<svg xmlns="http://www.w3.org/2000/svg" class="rich-terminal" viewBox="0 0 1141 513.6"><style>@font-face{font-family:&quot;Fira Code&quot;;src:local(&quot;FiraCode-Regular&quot;),url(https://cdnjs.cloudflare.com/ajax/libs/firacode/6.2.0/woff2/FiraCode-Regular.woff2) format(&quot;woff2&quot;),url(https://cdnjs.cloudflare.com/ajax/libs/firacode/6.2.0/woff/FiraCode-Regular.woff) format(&quot;woff&quot;);font-style:normal;font-weight:400}@font-face{font-family:&quot;Fira Code&quot;;src:local(&quot;FiraCode-Bold&quot;),url(https://cdnjs.cloudflare.com/ajax/libs/firacode/6.2.0/woff2/FiraCode-Bold.woff2) format(&quot;woff2&quot;),url(https://cdnjs.cloudflare.com/ajax/libs/firacode/6.2.0/woff/FiraCode-Bold.woff) format(&quot;woff&quot;);font-style:bold;font-weight:700}.terminal-322223703-matrix{font-family:Fira Code,monospace;font-size:20px;line-height:24.4px;font-variant-east-asian:full-width}.terminal-322223703-title{font-size:18px;font-weight:700;font-family:arial}.terminal-322223703-r1{fill:#ff3d94}.terminal-322223703-r2{fill:#ff3d94;font-weight:700}.terminal-322223703-r3{fill:#c5c8c6}.terminal-322223703-r4{fill:#ffcc3d}.terminal-322223703-r5{fill:#6b6b7b}.terminal-322223703-r6{fill:#3dff94}.terminal-322223703-r7{fill:#ff3d3d}.terminal-322223703-r8{fill:#3dffd1;font-weight:700}</style><defs><clipPath id="terminal-322223703-clip-terminal"><rect width="1121.4" height="462.6" x="0" y="0"/></clipPath><clipPath id="terminal-322223703-line-0"><rect width="1122.4" height="24.65" x="0" y="1.5"/></clipPath><clipPath id="terminal-322223703-line-1"><rect width="1122.4" height="24.65" x="0" y="25.9"/></clipPath><clipPath id="terminal-322223703-line-2"><rect width="1122.4" height="24.65" x="0" y="50.3"/></clipPath><clipPath id="terminal-322223703-line-3"><rect width="1122.4" height="24.65" x="0" y="74.7"/></clipPath><clipPath id="terminal-322223703-line-4"><rect width="1122.4" height="24.65" x="0" y="99.1"/></clipPath><clipPath id="terminal-322223703-line-5"><rect width="1122.4" height="24.65" x="0" y="123.5"/></clipPath><clipPath id="terminal-322223703-line-6"><rect width="1122.4" height="24.65" x="0" y="147.9"/></clipPath><clipPath id="terminal-322223703-line-7"><rect width="1122.4" height="24.65" x="0" y="172.3"/></clipPath><clipPath id="terminal-322223703-line-8"><rect width="1122.4" height="24.65" x="0" y="196.7"/></clipPath><clipPath id="terminal-322223703-line-9"><rect width="1122.4" height="24.65" x="0" y="221.1"/></clipPath><clipPath id="terminal-322223703-line-10"><rect width="1122.4" height="24.65" x="0" y="245.5"/></clipPath><clipPath id="terminal-322223703-line-11"><rect width="1122.4" height="24.65" x="0" y="269.9"/></clipPath><clipPath id="terminal-322223703-line-12"><rect width="1122.4" height="24.65" x="0" y="294.3"/></clipPath><clipPath id="terminal-322223703-line-13"><rect width="1122.4" height="24.65" x="0" y="318.7"/></clipPath><clipPath id="terminal-322223703-line-14"><rect width="1122.4" height="24.65" x="0" y="343.1"/></clipPath><clipPath id="terminal-322223703-line-15"><rect width="1122.4" height="24.65" x="0" y="367.5"/></clipPath><clipPath id="terminal-322223703-line-16"><rect width="1122.4" height="24.65" x="0" y="391.9"/></clipPath><clipPath id="terminal-322223703-line-17"><rect width="1122.4" height="24.65" x="0" y="416.3"/></clipPath></defs><rect width="1139" height="511.6" x="1" y="1" fill="#292929" stroke="rgba(255,255,255,0.35)" stroke-width="1" rx="8"/><text x="569" y="27" fill="#c5c8c6" class="terminal-322223703-title" text-anchor="middle">warden audit</text><g transform="translate(26,22)"><circle cx="0" cy="0" r="7" fill="#ff5f57"/><circle cx="22" cy="0" r="7" fill="#febc2e"/><circle cx="44" cy="0" r="7" fill="#28c840"/></g><g clip-path="url(#terminal-322223703-clip-terminal)" transform="translate(9, 41)"><rect width="24.4" height="24.65" x="0" y="1.5" fill="#15090f" shape-rendering="crispEdges"/><rect width="500.2" height="24.65" x="24.4" y="1.5" fill="#15090f" shape-rendering="crispEdges"/><rect width="573.4" height="24.65" x="524.6" y="1.5" fill="#15090f" shape-rendering="crispEdges"/><rect width="24.4" height="24.65" x="1098" y="1.5" fill="#15090f" shape-rendering="crispEdges"/><rect width="12.2" height="24.65" x="0" y="25.9" fill="#15090f" shape-rendering="crispEdges"/><rect width="12.2" height="24.65" x="12.2" y="25.9" fill="#15090f" shape-rendering="crispEdges"/><rect width="36.6" height="24.65" x="24.4" y="25.9" fill="#15090f" shape-rendering="crispEdges"/><rect width="36.6" height="24.65" x="61" y="25.9" fill="#15090f" shape-rendering="crispEdges"/><rect width="256.2" height="24.65" x="97.6" y="25.9" fill="#15090f" shape-rendering="crispEdges"/><rect width="85.4" height="24.65" x="353.8" y="25.9" fill="#15090f" shape-rendering="crispEdges"/><rect width="97.6" height="24.65" x="439.2" y="25.9" fill="#15090f" shape-rendering="crispEdges"/><rect width="12.2" height="24.65" x="536.8" y="25.9" fill="#15090f" shape-rendering="crispEdges"/><rect width="549" height="24.65" x="549" y="25.9" fill="#15090f" shape-rendering="crispEdges"/><rect width="12.2" height="24.65" x="1098" y="25.9" fill="#15090f" shape-rendering="crispEdges"/><rect width="12.2" height="24.65" x="1110.2" y="25.9" fill="#15090f" shape-rendering="crispEdges"/><rect width="12.2" height="24.65" x="0" y="50.3" fill="#15090f" shape-rendering="crispEdges"/><rect width="12.2" height="24.65" x="12.2" y="50.3" fill="#15090f" shape-rendering="crispEdges"/><rect width="73.2" height="24.65" x="24.4" y="50.3" fill="#15090f" shape-rendering="crispEdges"/><rect width="97.6" height="24.65" x="97.6" y="50.3" fill="#15090f" shape-rendering="crispEdges"/><rect width="122" height="24.65" x="195.2" y="50.3" fill="#15090f" shape-rendering="crispEdges"/><rect width="122" height="24.65" x="317.2" y="50.3" fill="#15090f" shape-rendering="crispEdges"/><rect width="109.8" height="24.65" x="439.2" y="50.3" fill="#15090f" shape-rendering="crispEdges"/><rect width="549" height="24.65" x="549" y="50.3" fill="#15090f" shape-rendering="crispEdges"/><rect width="12.2" height="24.65" x="1098" y="50.3" fill="#15090f" shape-rendering="crispEdges"/><rect width="12.2" height="24.65" x="1110.2" y="50.3" fill="#15090f" shape-rendering="crispEdges"/><rect width="1122.4" height="24.65" x="0" y="74.7" fill="#15090f" shape-rendering="crispEdges"/><rect width="24.4" height="24.65" x="0" y="99.1" fill="#15090f" shape-rendering="crispEdges"/><rect width="97.6" height="24.65" x="24.4" y="99.1" fill="#15090f" shape-rendering="crispEdges"/><rect width="976" height="24.65" x="122" y="99.1" fill="#15090f" shape-rendering="crispEdges"/><rect width="24.4" height="24.65" x="1098" y="99.1" fill="#15090f" shape-rendering="crispEdges"/><rect width="12.2" height="24.65" x="0" y="123.5" fill="#15090f" shape-rendering="crispEdges"/><rect width="12.2" height="24.65" x="12.2" y="123.5" fill="#15090f" shape-rendering="crispEdges"/><rect width="12.2" height="24.65" x="24.4" y="123.5" fill="#15090f" shape-rendering="crispEdges"/><rect width="12.2" height="24.65" x="36.6" y="123.5" fill="#15090f" shape-rendering="crispEdges"/><rect width="12.2" height="24.65" x="48.8" y="123.5" fill="#15090f" shape-rendering="crispEdges"/><rect width="12.2" height="24.65" x="61" y="123.5" fill="#15090f" shape-rendering="crispEdges"/><rect width="317.2" height="24.65" x="73.2" y="123.5" fill="#15090f" shape-rendering="crispEdges"/><rect width="12.2" height="24.65" x="390.4" y="123.5" fill="#15090f" shape-rendering="crispEdges"/><rect width="12.2" height="24.65" x="402.6" y="123.5" fill="#15090f" shape-rendering="crispEdges"/><rect width="671" height="24.65" x="414.8" y="123.5" fill="#15090f" shape-rendering="crispEdges"/><rect width="12.2" height="24.65" x="1085.8" y="123.5" fill="#15090f" shape-rendering="crispEdges"/><rect width="12.2" height="24.65" x="1098" y="123.5" fill="#15090f" shape-rendering="crispEdges"/><rect width="12.2" height="24.65" x="1110.2" y="123.5" fill="#15090f" shape-rendering="crispEdges"/><rect width="12.2" height="24.65" x="0" y="147.9" fill="#15090f" shape-rendering="crispEdges"/><rect width="12.2" height="24.65" x="12.2" y="147.9" fill="#15090f" shape-rendering="crispEdges"/><rect width="12.2" height="24.65" x="24.4" y="147.9" fill="#15090f" shape-rendering="crispEdges"/><rect width="12.2" height="24.65" x="36.6" y="147.9" fill="#15090f" shape-rendering="crispEdges"/><rect width="12.2" height="24.65" x="48.8" y="147.9" fill="#15090f" shape-rendering="crispEdges"/><rect width="12.2" height="24.65" x="61" y="147.9" fill="#15090f" shape-rendering="crispEdges"/><rect width="317.2" height="24.65" x="73.2" y="147.9" fill="#15090f" shape-rendering="crispEdges"/><rect width="12.2" height="24.65" x="390.4" y="147.9" fill="#15090f" shape-rendering="crispEdges"/><rect width="12.2" height="24.65" x="402.6" y="147.9" fill="#15090f" shape-rendering="crispEdges"/><rect width="671" height="24.65" x="414.8" y="147.9" fill="#15090f" shape-rendering="crispEdges"/><rect width="12.2" height="24.65" x="1085.8" y="147.9" fill="#15090f" shape-rendering="crispEdges"/><rect width="12.2" height="24.65" x="1098" y="147.9" fill="#15090f" shape-rendering="crispEdges"/><rect width="12.2" height="24.65" x="1110.2" y="147.9" fill="#15090f" shape-rendering="crispEdges"/><rect width="12.2" height="24.65" x="0" y="172.3" fill="#15090f" shape-rendering="crispEdges"/><rect width="12.2" height="24.65" x="12.2" y="172.3" fill="#15090f" shape-rendering="crispEdges"/><rect width="36.6" height="24.65" x="24.4" y="172.3" fill="#15090f" shape-rendering="crispEdges"/><rect width="341.6" height="24.65" x="61" y="172.3" fill="#15090f" shape-rendering="crispEdges"/><rect width="12.2" height="24.65" x="402.6" y="172.3" fill="#15090f" shape-rendering="crispEdges"/><rect width="671" height="24.65" x="414.8" y="172.3" fill="#15090f" shape-rendering="crispEdges"/><rect width="12.2" height="24.65" x="1085.8" y="172.3" fill="#15090f" shape-rendering="crispEdges"/><rect width="12.2" height="24.65" x="1098" y="172.3" fill="#15090f" shape-rendering="crispEdges"/><rect width="12.2" height="24.65" x="1110.2" y="172.3" fill="#15090f" shape-rendering="crispEdges"/><rect width="12.2" height="24.65" x="0" y="196.7" fill="#15090f" shape-rendering="crispEdges"/><rect width="12.2" height="24.65" x="12.2" y="196.7" fill="#15090f" shape-rendering="crispEdges"/><rect width="12.2" height="24.65" x="24.4" y="196.7" fill="#15090f" shape-rendering="crispEdges"/><rect width="12.2" height="24.65" x="36.6" y="196.7" fill="#15090f" shape-rendering="crispEdges"/><rect width="12.2" height="24.65" x="48.8" y="196.7" fill="#15090f" shape-rendering="crispEdges"/><rect width="12.2" height="24.65" x="61" y="196.7" fill="#15090f" shape-rendering="crispEdges"/><rect width="317.2" height="24.65" x="73.2" y="196.7" fill="#15090f" shape-rendering="crispEdges"/><rect width="12.2" height="24.65" x="390.4" y="196.7" fill="#15090f" shape-rendering="crispEdges"/><rect width="12.2" height="24.65" x="402.6" y="196.7" fill="#15090f" shape-rendering="crispEdges"/><rect width="671" height="24.65" x="414.8" y="196.7" fill="#15090f" shape-rendering="crispEdges"/><rect width="12.2" height="24.65" x="1085.8" y="196.7" fill="#15090f" shape-rendering="crispEdges"/><rect width="12.2" height="24.65" x="1098" y="196.7" fill="#15090f" shape-rendering="crispEdges"/><rect width="12.2" height="24.65" x="1110.2" y="196.7" fill="#15090f" shape-rendering="crispEdges"/><rect width="12.2" height="24.65" x="0" y="221.1" fill="#15090f" shape-rendering="crispEdges"/><rect width="12.2" height="24.65" x="12.2" y="221.1" fill="#15090f" shape-rendering="crispEdges"/><rect width="12.2" height="24.65" x="24.4" y="221.1" fill="#15090f" shape-rendering="crispEdges"/><rect width="12.2" height="24.65" x="36.6" y="221.1" fill="#15090f" shape-rendering="crispEdges"/><rect width="12.2" height="24.65" x="48.8" y="221.1" fill="#15090f" shape-rendering="crispEdges"/><rect width="12.2" height="24.65" x="61" y="221.1" fill="#15090f" shape-rendering="crispEdges"/><rect width="317.2" height="24.65" x="73.2" y="221.1" fill="#15090f" shape-rendering="crispEdges"/><rect width="12.2" height="24.65" x="390.4" y="221.1" fill="#15090f" shape-rendering="crispEdges"/><rect width="12.2" height="24.65" x="402.6" y="221.1" fill="#15090f" shape-rendering="crispEdges"/><rect width="671" height="24.65" x="414.8" y="221.1" fill="#15090f" shape-rendering="crispEdges"/><rect width="12.2" height="24.65" x="1085.8" y="221.1" fill="#15090f" shape-rendering="crispEdges"/><rect width="12.2" height="24.65" x="1098" y="221.1" fill="#15090f" shape-rendering="crispEdges"/><rect width="12.2" height="24.65" x="1110.2" y="221.1" fill="#15090f" shape-rendering="crispEdges"/><rect width="12.2" height="24.65" x="0" y="245.5" fill="#15090f" shape-rendering="crispEdges"/><rect width="12.2" height="24.65" x="12.2" y="245.5" fill="#15090f" shape-rendering="crispEdges"/><rect width="12.2" height="24.65" x="24.4" y="245.5" fill="#15090f" shape-rendering="crispEdges"/><rect width="12.2" height="24.65" x="36.6" y="245.5" fill="#15090f" shape-rendering="crispEdges"/><rect width="12.2" height="24.65" x="48.8" y="245.5" fill="#15090f" shape-rendering="crispEdges"/><rect width="12.2" height="24.65" x="61" y="245.5" fill="#15090f" shape-rendering="crispEdges"/><rect width="317.2" height="24.65" x="73.2" y="245.5" fill="#15090f" shape-rendering="crispEdges"/><rect width="12.2" height="24.65" x="390.4" y="245.5" fill="#15090f" shape-rendering="crispEdges"/><rect width="12.2" height="24.65" x="402.6" y="245.5" fill="#15090f" shape-rendering="crispEdges"/><rect width="671" height="24.65" x="414.8" y="245.5" fill="#15090f" shape-rendering="crispEdges"/><rect width="12.2" height="24.65" x="1085.8" y="245.5" fill="#15090f" shape-rendering="crispEdges"/><rect width="12.2" height="24.65" x="1098" y="245.5" fill="#15090f" shape-rendering="crispEdges"/><rect width="12.2" height="24.65" x="1110.2" y="245.5" fill="#15090f" shape-rendering="crispEdges"/><rect width="12.2" height="24.65" x="0" y="269.9" fill="#15090f" shape-rendering="crispEdges"/><rect width="12.2" height="24.65" x="12.2" y="269.9" fill="#15090f" shape-rendering="crispEdges"/><rect width="12.2" height="24.65" x="24.4" y="269.9" fill="#15090f" shape-rendering="crispEdges"/><rect width="12.2" height="24.65" x="36.6" y="269.9" fill="#15090f" shape-rendering="crispEdges"/><rect width="12.2" height="24.65" x="48.8" y="269.9" fill="#15090f" shape-rendering="crispEdges"/><rect width="12.2" height="24.65" x="61" y="269.9" fill="#15090f" shape-rendering="crispEdges"/><rect width="317.2" height="24.65" x="73.2" y="269.9" fill="#15090f" shape-rendering="crispEdges"/><rect width="12.2" height="24.65" x="390.4" y="269.9" fill="#15090f" shape-rendering="crispEdges"/><rect width="12.2" height="24.65" x="402.6" y="269.9" fill="#15090f" shape-rendering="crispEdges"/><rect width="671" height="24.65" x="414.8" y="269.9" fill="#15090f" shape-rendering="crispEdges"/><rect width="12.2" height="24.65" x="1085.8" y="269.9" fill="#15090f" shape-rendering="crispEdges"/><rect width="12.2" height="24.65" x="1098" y="269.9" fill="#15090f" shape-rendering="crispEdges"/><rect width="12.2" height="24.65" x="1110.2" y="269.9" fill="#15090f" shape-rendering="crispEdges"/><rect width="12.2" height="24.65" x="0" y="294.3" fill="#15090f" shape-rendering="crispEdges"/><rect width="12.2" height="24.65" x="12.2" y="294.3" fill="#15090f" shape-rendering="crispEdges"/><rect width="12.2" height="24.65" x="24.4" y="294.3" fill="#15090f" shape-rendering="crispEdges"/><rect width="12.2" height="24.65" x="36.6" y="294.3" fill="#15090f" shape-rendering="crispEdges"/><rect width="12.2" height="24.65" x="48.8" y="294.3" fill="#15090f" shape-rendering="crispEdges"/><rect width="12.2" height="24.65" x="61" y="294.3" fill="#15090f" shape-rendering="crispEdges"/><rect width="317.2" height="24.65" x="73.2" y="294.3" fill="#15090f" shape-rendering="crispEdges"/><rect width="12.2" height="24.65" x="390.4" y="294.3" fill="#15090f" shape-rendering="crispEdges"/><rect width="12.2" height="24.65" x="402.6" y="294.3" fill="#15090f" shape-rendering="crispEdges"/><rect width="671" height="24.65" x="414.8" y="294.3" fill="#15090f" shape-rendering="crispEdges"/><rect width="12.2" height="24.65" x="1085.8" y="294.3" fill="#15090f" shape-rendering="crispEdges"/><rect width="12.2" height="24.65" x="1098" y="294.3" fill="#15090f" shape-rendering="crispEdges"/><rect width="12.2" height="24.65" x="1110.2" y="294.3" fill="#15090f" shape-rendering="crispEdges"/><rect width="12.2" height="24.65" x="0" y="318.7" fill="#15090f" shape-rendering="crispEdges"/><rect width="12.2" height="24.65" x="12.2" y="318.7" fill="#15090f" shape-rendering="crispEdges"/><rect width="36.6" height="24.65" x="24.4" y="318.7" fill="#15090f" shape-rendering="crispEdges"/><rect width="341.6" height="24.65" x="61" y="318.7" fill="#15090f" shape-rendering="crispEdges"/><rect width="12.2" height="24.65" x="402.6" y="318.7" fill="#15090f" shape-rendering="crispEdges"/><rect width="671" height="24.65" x="414.8" y="318.7" fill="#15090f" shape-rendering="crispEdges"/><rect width="12.2" height="24.65" x="1085.8" y="318.7" fill="#15090f" shape-rendering="crispEdges"/><rect width="12.2" height="24.65" x="1098" y="318.7" fill="#15090f" shape-rendering="crispEdges"/><rect width="12.2" height="24.65" x="1110.2" y="318.7" fill="#15090f" shape-rendering="crispEdges"/><rect width="12.2" height="24.65" x="0" y="343.1" fill="#15090f" shape-rendering="crispEdges"/><rect width="12.2" height="24.65" x="12.2" y="343.1" fill="#15090f" shape-rendering="crispEdges"/><rect width="12.2" height="24.65" x="24.4" y="343.1" fill="#15090f" shape-rendering="crispEdges"/><rect width="12.2" height="24.65" x="36.6" y="343.1" fill="#15090f" shape-rendering="crispEdges"/><rect width="12.2" height="24.65" x="48.8" y="343.1" fill="#15090f" shape-rendering="crispEdges"/><rect width="12.2" height="24.65" x="61" y="343.1" fill="#15090f" shape-rendering="crispEdges"/><rect width="317.2" height="24.65" x="73.2" y="343.1" fill="#15090f" shape-rendering="crispEdges"/><rect width="12.2" height="24.65" x="390.4" y="343.1" fill="#15090f" shape-rendering="crispEdges"/><rect width="12.2" height="24.65" x="402.6" y="343.1" fill="#15090f" shape-rendering="crispEdges"/><rect width="671" height="24.65" x="414.8" y="343.1" fill="#15090f" shape-rendering="crispEdges"/><rect width="12.2" height="24.65" x="1085.8" y="343.1" fill="#15090f" shape-rendering="crispEdges"/><rect width="12.2" height="24.65" x="1098" y="343.1" fill="#15090f" shape-rendering="crispEdges"/><rect width="12.2" height="24.65" x="1110.2" y="343.1" fill="#15090f" shape-rendering="crispEdges"/><rect width="12.2" height="24.65" x="0" y="367.5" fill="#15090f" shape-rendering="crispEdges"/><rect width="12.2" height="24.65" x="12.2" y="367.5" fill="#15090f" shape-rendering="crispEdges"/><rect width="36.6" height="24.65" x="24.4" y="367.5" fill="#15090f" shape-rendering="crispEdges"/><rect width="341.6" height="24.65" x="61" y="367.5" fill="#15090f" shape-rendering="crispEdges"/><rect width="12.2" height="24.65" x="402.6" y="367.5" fill="#15090f" shape-rendering="crispEdges"/><rect width="671" height="24.65" x="414.8" y="367.5" fill="#15090f" shape-rendering="crispEdges"/><rect width="12.2" height="24.65" x="1085.8" y="367.5" fill="#15090f" shape-rendering="crispEdges"/><rect width="12.2" height="24.65" x="1098" y="367.5" fill="#15090f" shape-rendering="crispEdges"/><rect width="12.2" height="24.65" x="1110.2" y="367.5" fill="#15090f" shape-rendering="crispEdges"/><rect width="12.2" height="24.65" x="0" y="391.9" fill="#15090f" shape-rendering="crispEdges"/><rect width="12.2" height="24.65" x="12.2" y="391.9" fill="#15090f" shape-rendering="crispEdges"/><rect width="12.2" height="24.65" x="24.4" y="391.9" fill="#15090f" shape-rendering="crispEdges"/><rect width="12.2" height="24.65" x="36.6" y="391.9" fill="#15090f" shape-rendering="crispEdges"/><rect width="12.2" height="24.65" x="48.8" y="391.9" fill="#15090f" shape-rendering="crispEdges"/><rect width="12.2" height="24.65" x="61" y="391.9" fill="#15090f" shape-rendering="crispEdges"/><rect width="317.2" height="24.65" x="73.2" y="391.9" fill="#15090f" shape-rendering="crispEdges"/><rect width="12.2" height="24.65" x="390.4" y="391.9" fill="#15090f" shape-rendering="crispEdges"/><rect width="12.2" height="24.65" x="402.6" y="391.9" fill="#15090f" shape-rendering="crispEdges"/><rect width="671" height="24.65" x="414.8" y="391.9" fill="#15090f" shape-rendering="crispEdges"/><rect width="12.2" height="24.65" x="1085.8" y="391.9" fill="#15090f" shape-rendering="crispEdges"/><rect width="12.2" height="24.65" x="1098" y="391.9" fill="#15090f" shape-rendering="crispEdges"/><rect width="12.2" height="24.65" x="1110.2" y="391.9" fill="#15090f" shape-rendering="crispEdges"/><rect width="12.2" height="24.65" x="0" y="416.3" fill="#15090f" shape-rendering="crispEdges"/><rect width="12.2" height="24.65" x="12.2" y="416.3" fill="#15090f" shape-rendering="crispEdges"/><rect width="36.6" height="24.65" x="24.4" y="416.3" fill="#15090f" shape-rendering="crispEdges"/><rect width="341.6" height="24.65" x="61" y="416.3" fill="#15090f" shape-rendering="crispEdges"/><rect width="12.2" height="24.65" x="402.6" y="416.3" fill="#15090f" shape-rendering="crispEdges"/><rect width="671" height="24.65" x="414.8" y="416.3" fill="#15090f" shape-rendering="crispEdges"/><rect width="12.2" height="24.65" x="1085.8" y="416.3" fill="#15090f" shape-rendering="crispEdges"/><rect width="12.2" height="24.65" x="1098" y="416.3" fill="#15090f" shape-rendering="crispEdges"/><rect width="12.2" height="24.65" x="1110.2" y="416.3" fill="#15090f" shape-rendering="crispEdges"/><rect width="1122.4" height="24.65" x="0" y="440.7" fill="#15090f" shape-rendering="crispEdges"/><g class="terminal-322223703-matrix"><text x="0" y="20" class="terminal-322223703-r1" clip-path="url(#terminal-322223703-line-0)" textLength="24.4">╭─</text><text x="24.4" y="20" class="terminal-322223703-r2" clip-path="url(#terminal-322223703-line-0)" textLength="500.2">Hardening · usuario (cobertura parcial)</text><text x="524.6" y="20" class="terminal-322223703-r1" clip-path="url(#terminal-322223703-line-0)" textLength="573.4">───────────────────────────────────────────────</text><text x="1098" y="20" class="terminal-322223703-r1" clip-path="url(#terminal-322223703-line-0)" textLength="24.4">─╮</text><text x="0" y="44.4" class="terminal-322223703-r1" clip-path="url(#terminal-322223703-line-1)" textLength="12.2">│</text><text x="24.4" y="44.4" class="terminal-322223703-r3" clip-path="url(#terminal-322223703-line-1)" textLength="36.6">C</text><text x="97.6" y="44.4" class="terminal-322223703-r4" clip-path="url(#terminal-322223703-line-1)" textLength="256.2">█████████████████████</text><text x="353.8" y="44.4" class="terminal-322223703-r5" clip-path="url(#terminal-322223703-line-1)" textLength="85.4">░░░░░░░</text><text x="439.2" y="44.4" class="terminal-322223703-r4" clip-path="url(#terminal-322223703-line-1)" textLength="97.6">75/100</text><text x="1110.2" y="44.4" class="terminal-322223703-r1" clip-path="url(#terminal-322223703-line-1)" textLength="12.2">│</text><text x="0" y="68.8" class="terminal-322223703-r1" clip-path="url(#terminal-322223703-line-2)" textLength="12.2">│</text><text x="97.6" y="68.8" class="terminal-322223703-r6" clip-path="url(#terminal-322223703-line-2)" textLength="97.6">● 2 ok</text><text x="195.2" y="68.8" class="terminal-322223703-r4" clip-path="url(#terminal-322223703-line-2)" textLength="122">● 4 warn</text><text x="317.2" y="68.8" class="terminal-322223703-r7" clip-path="url(#terminal-322223703-line-2)" textLength="122">● 0 fail</text><text x="439.2" y="68.8" class="terminal-322223703-r5" clip-path="url(#terminal-322223703-line-2)" textLength="109.8">○ 2 n/a</text><text x="1110.2" y="68.8" class="terminal-322223703-r1" clip-path="url(#terminal-322223703-line-2)" textLength="12.2">│</text><text x="0" y="93.2" class="terminal-322223703-r1" clip-path="url(#terminal-322223703-line-3)" textLength="1122.4">╰──────────────────────────────────────────────────────────────────────────────────────────╯</text><text x="0" y="117.6" class="terminal-322223703-r1" clip-path="url(#terminal-322223703-line-4)" textLength="24.4">╭─</text><text x="24.4" y="117.6" class="terminal-322223703-r2" clip-path="url(#terminal-322223703-line-4)" textLength="97.6">Checks</text><text x="122" y="117.6" class="terminal-322223703-r1" clip-path="url(#terminal-322223703-line-4)" textLength="976">────────────────────────────────────────────────────────────────────────────────</text><text x="1098" y="117.6" class="terminal-322223703-r1" clip-path="url(#terminal-322223703-line-4)" textLength="24.4">─╮</text><text x="0" y="142" class="terminal-322223703-r1" clip-path="url(#terminal-322223703-line-5)" textLength="12.2">│</text><text x="73.2" y="142" class="terminal-322223703-r2" clip-path="url(#terminal-322223703-line-5)" textLength="317.2">Check</text><text x="414.8" y="142" class="terminal-322223703-r2" clip-path="url(#terminal-322223703-line-5)" textLength="671">Detalle</text><text x="1110.2" y="142" class="terminal-322223703-r1" clip-path="url(#terminal-322223703-line-5)" textLength="12.2">│</text><text x="0" y="166.4" class="terminal-322223703-r1" clip-path="url(#terminal-322223703-line-6)" textLength="12.2">│</text><text x="36.6" y="166.4" class="terminal-322223703-r4" clip-path="url(#terminal-322223703-line-6)" textLength="12.2">●</text><text x="73.2" y="166.4" class="terminal-322223703-r8" clip-path="url(#terminal-322223703-line-6)" textLength="317.2">Cortafuegos</text><text x="414.8" y="166.4" class="terminal-322223703-r5" clip-path="url(#terminal-322223703-line-6)" textLength="671">Sin cortafuegos detectado. → Instala y activa ufw o</text><text x="1110.2" y="166.4" class="terminal-322223703-r1" clip-path="url(#terminal-322223703-line-6)" textLength="12.2">│</text><text x="0" y="190.8" class="terminal-322223703-r1" clip-path="url(#terminal-322223703-line-7)" textLength="12.2">│</text><text x="414.8" y="190.8" class="terminal-322223703-r5" clip-path="url(#terminal-322223703-line-7)" textLength="671">firewalld.</text><text x="1110.2" y="190.8" class="terminal-322223703-r1" clip-path="url(#terminal-322223703-line-7)" textLength="12.2">│</text><text x="0" y="215.2" class="terminal-322223703-r1" clip-path="url(#terminal-322223703-line-8)" textLength="12.2">│</text><text x="36.6" y="215.2" class="terminal-322223703-r5" clip-path="url(#terminal-322223703-line-8)" textLength="12.2">○</text><text x="73.2" y="215.2" class="terminal-322223703-r8" clip-path="url(#terminal-322223703-line-8)" textLength="317.2">SSH root login</text><text x="414.8" y="215.2" class="terminal-322223703-r5" clip-path="url(#terminal-322223703-line-8)" textLength="671">Sin servidor SSH (no sshd_config).</text><text x="1110.2" y="215.2" class="terminal-322223703-r1" clip-path="url(#terminal-322223703-line-8)" textLength="12.2">│</text><text x="0" y="239.6" class="terminal-322223703-r1" clip-path="url(#terminal-322223703-line-9)" textLength="12.2">│</text><text x="36.6" y="239.6" class="terminal-322223703-r5" clip-path="url(#terminal-322223703-line-9)" textLength="12.2">○</text><text x="73.2" y="239.6" class="terminal-322223703-r8" clip-path="url(#terminal-322223703-line-9)" textLength="317.2">SSH password auth</text><text x="414.8" y="239.6" class="terminal-322223703-r5" clip-path="url(#terminal-322223703-line-9)" textLength="671">Sin servidor SSH.</text><text x="1110.2" y="239.6" class="terminal-322223703-r1" clip-path="url(#terminal-322223703-line-9)" textLength="12.2">│</text><text x="0" y="264" class="terminal-322223703-r1" clip-path="url(#terminal-322223703-line-10)" textLength="12.2">│</text><text x="36.6" y="264" class="terminal-322223703-r6" clip-path="url(#terminal-322223703-line-10)" textLength="12.2">●</text><text x="73.2" y="264" class="terminal-322223703-r8" clip-path="url(#terminal-322223703-line-10)" textLength="317.2">Permisos sensibles</text><text x="414.8" y="264" class="terminal-322223703-r5" clip-path="url(#terminal-322223703-line-10)" textLength="671">shadow/passwd/sudoers/~/.ssh correctos.</text><text x="1110.2" y="264" class="terminal-322223703-r1" clip-path="url(#terminal-322223703-line-10)" textLength="12.2">│</text><text x="0" y="288.4" class="terminal-322223703-r1" clip-path="url(#terminal-322223703-line-11)" textLength="12.2">│</text><text x="36.6" y="288.4" class="terminal-322223703-r6" clip-path="url(#terminal-322223703-line-11)" textLength="12.2">●</text><text x="73.2" y="288.4" class="terminal-322223703-r8" clip-path="url(#terminal-322223703-line-11)" textLength="317.2">Cuentas UID 0</text><text x="414.8" y="288.4" class="terminal-322223703-r5" clip-path="url(#terminal-322223703-line-11)" textLength="671">Solo root con UID 0.</text><text x="1110.2" y="288.4" class="terminal-322223703-r1" clip-path="url(#terminal-322223703-line-11)" textLength="12.2">│</text><text x="0" y="312.8" class="terminal-322223703-r1" clip-path="url(#terminal-322223703-line-12)" textLength="12.2">│</text><text x="36.6" y="312.8" class="terminal-322223703-r4" clip-path="url(#terminal-322223703-line-12)" textLength="12.2">●</text><text x="73.2" y="312.8" class="terminal-322223703-r8" clip-path="url(#terminal-322223703-line-12)" textLength="317.2">Actualizaciones pendientes</text><text x="414.8" y="312.8" class="terminal-322223703-r5" clip-path="url(#terminal-322223703-line-12)" textLength="671">30 paquetes actualizables (apt). → Ejecuta apt</text><text x="1110.2" y="312.8" class="terminal-322223703-r1" clip-path="url(#terminal-322223703-line-12)" textLength="12.2">│</text><text x="0" y="337.2" class="terminal-322223703-r1" clip-path="url(#terminal-322223703-line-13)" textLength="12.2">│</text><text x="414.8" y="337.2" class="terminal-322223703-r5" clip-path="url(#terminal-322223703-line-13)" textLength="671">upgrade.</text><text x="1110.2" y="337.2" class="terminal-322223703-r1" clip-path="url(#terminal-322223703-line-13)" textLength="12.2">│</text><text x="0" y="361.6" class="terminal-322223703-r1" clip-path="url(#terminal-322223703-line-14)" textLength="12.2">│</text><text x="36.6" y="361.6" class="terminal-322223703-r4" clip-path="url(#terminal-322223703-line-14)" textLength="12.2">●</text><text x="73.2" y="361.6" class="terminal-322223703-r8" clip-path="url(#terminal-322223703-line-14)" textLength="317.2">Cifrado de disco</text><text x="414.8" y="361.6" class="terminal-322223703-r5" clip-path="url(#terminal-322223703-line-14)" textLength="671">Sin cifrado de disco detectado. → Considera LUKS para</text><text x="1110.2" y="361.6" class="terminal-322223703-r1" clip-path="url(#terminal-322223703-line-14)" textLength="12.2">│</text><text x="0" y="386" class="terminal-322223703-r1" clip-path="url(#terminal-322223703-line-15)" textLength="12.2">│</text><text x="414.8" y="386" class="terminal-322223703-r5" clip-path="url(#terminal-322223703-line-15)" textLength="671">datos en reposo.</text><text x="1110.2" y="386" class="terminal-322223703-r1" clip-path="url(#terminal-322223703-line-15)" textLength="12.2">│</text><text x="0" y="410.4" class="terminal-322223703-r1" clip-path="url(#terminal-322223703-line-16)" textLength="12.2">│</text><text x="36.6" y="410.4" class="terminal-322223703-r4" clip-path="url(#terminal-322223703-line-16)" textLength="12.2">●</text><text x="73.2" y="410.4" class="terminal-322223703-r8" clip-path="url(#terminal-322223703-line-16)" textLength="317.2">Puertos a la escucha</text><text x="414.8" y="410.4" class="terminal-322223703-r5" clip-path="url(#terminal-322223703-line-16)" textLength="671">Escuchando en 0.0.0.0/:: puertos 80. → Limita binds a</text><text x="1110.2" y="410.4" class="terminal-322223703-r1" clip-path="url(#terminal-322223703-line-16)" textLength="12.2">│</text><text x="0" y="434.8" class="terminal-322223703-r1" clip-path="url(#terminal-322223703-line-17)" textLength="12.2">│</text><text x="414.8" y="434.8" class="terminal-322223703-r5" clip-path="url(#terminal-322223703-line-17)" textLength="671">127.0.0.1 o protege con cortafuegos.</text><text x="1110.2" y="434.8" class="terminal-322223703-r1" clip-path="url(#terminal-322223703-line-17)" textLength="12.2">│</text><text x="0" y="459.2" class="terminal-322223703-r1" clip-path="url(#terminal-322223703-line-18)" textLength="1122.4">╰──────────────────────────────────────────────────────────────────────────────────────────╯</text></g></g></svg>