<svg class="rich-terminal" viewBox="0 0 1141 513.5999999999999" xmlns="http://www.w3.org/2000/svg">
    <!-- Generated with Rich https://www.textualize.io -->
    <style>

    @font-face {
        font-family: "Fira Code";
        src: local("FiraCode-Regular"),
                url("https://cdnjs.cloudflare.com/ajax/libs/firacode/6.2.0/woff2/FiraCode-Regular.woff2") format("woff2"),
                url("https://cdnjs.cloudflare.com/ajax/libs/firacode/6.2.0/woff/FiraCode-Regular.woff") format("woff");
        font-style: normal;
        font-weight: 400;
    }
    @font-face {
        font-family: "Fira Code";
        src: local("FiraCode-Bold"),
                url("https://cdnjs.cloudflare.com/ajax/libs/firacode/6.2.0/woff2/FiraCode-Bold.woff2") format("woff2"),
                url("https://cdnjs.cloudflare.com/ajax/libs/firacode/6.2.0/woff/FiraCode-Bold.woff") format("woff");
        font-style: bold;
        font-weight: 700;
    }

    .terminal-322223703-matrix {
        font-family: Fira Code, monospace;
        font-size: 20px;
        line-height: 24.4px;
        font-variant-east-asian: full-width;
    }

    .terminal-322223703-title {
        font-size: 18px;
        font-weight: bold;
        font-family: arial;
    }

    .terminal-322223703-r1 { fill: #ff3d94 }
.terminal-322223703-r2 { fill: #ff3d94;font-weight: bold }
.terminal-322223703-r3 { fill: #c5c8c6 }
.terminal-322223703-r4 { fill: #ffcc3d }
.terminal-322223703-r5 { fill: #6b6b7b }
.terminal-322223703-r6 { fill: #3dff94 }
.terminal-322223703-r7 { fill: #ff3d3d }
.terminal-322223703-r8 { fill: #3dffd1;font-weight: bold }
    </style>

    <defs>
    <clipPath id="terminal-322223703-clip-terminal">
      <rect x="0" y="0" width="1121.3999999999999" height="462.59999999999997" />
    </clipPath>
    <clipPath id="terminal-322223703-line-0">
    <rect x="0" y="1.5" width="1122.4" height="24.65"/>
            </clipPath>
<clipPath id="terminal-322223703-line-1">
    <rect x="0" y="25.9" width="1122.4" height="24.65"/>
            </clipPath>
<clipPath id="terminal-322223703-line-2">
    <rect x="0" y="50.3" width="1122.4" height="24.65"/>
            </clipPath>
<clipPath id="terminal-322223703-line-3">
    <rect x="0" y="74.7" width="1122.4" height="24.65"/>
            </clipPath>
<clipPath id="terminal-322223703-line-4">
    <rect x="0" y="99.1" width="1122.4" height="24.65"/>
            </clipPath>
<clipPath id="terminal-322223703-line-5">
    <rect x="0" y="123.5" width="1122.4" height="24.65"/>
            </clipPath>
<clipPath id="terminal-322223703-line-6">
    <rect x="0" y="147.9" width="1122.4" height="24.65"/>
            </clipPath>
<clipPath id="terminal-322223703-line-7">
    <rect x="0" y="172.3" width="1122.4" height="24.65"/>
            </clipPath>
<clipPath id="terminal-322223703-line-8">
    <rect x="0" y="196.7" width="1122.4" height="24.65"/>
            </clipPath>
<clipPath id="terminal-322223703-line-9">
    <rect x="0" y="221.1" width="1122.4" height="24.65"/>
            </clipPath>
<clipPath id="terminal-322223703-line-10">
    <rect x="0" y="245.5" width="1122.4" height="24.65"/>
            </clipPath>
<clipPath id="terminal-322223703-line-11">
    <rect x="0" y="269.9" width="1122.4" height="24.65"/>
            </clipPath>
<clipPath id="terminal-322223703-line-12">
    <rect x="0" y="294.3" width="1122.4" height="24.65"/>
            </clipPath>
<clipPath id="terminal-322223703-line-13">
    <rect x="0" y="318.7" width="1122.4" height="24.65"/>
            </clipPath>
<clipPath id="terminal-322223703-line-14">
    <rect x="0" y="343.1" width="1122.4" height="24.65"/>
            </clipPath>
<clipPath id="terminal-322223703-line-15">
    <rect x="0" y="367.5" width="1122.4" height="24.65"/>
            </clipPath>
<clipPath id="terminal-322223703-line-16">
    <rect x="0" y="391.9" width="1122.4" height="24.65"/>
            </clipPath>
<clipPath id="terminal-322223703-line-17">
    <rect x="0" y="416.3" width="1122.4" height="24.65"/>
            </clipPath>
    </defs>

    <rect fill="#292929" stroke="rgba(255,255,255,0.35)" stroke-width="1" x="1" y="1" width="1139" height="511.6" rx="8"/><text class="terminal-322223703-title" fill="#c5c8c6" text-anchor="middle" x="569" y="27">warden&#160;audit</text>
            <g transform="translate(26,22)">
            <circle cx="0" cy="0" r="7" fill="#ff5f57"/>
            <circle cx="22" cy="0" r="7" fill="#febc2e"/>
            <circle cx="44" cy="0" r="7" fill="#28c840"/>
            </g>
        
    <g transform="translate(9, 41)" clip-path="url(#terminal-322223703-clip-terminal)">
    <rect fill="#15090f" x="0" y="1.5" width="24.4" height="24.65" shape-rendering="crispEdges"/><rect fill="#15090f" x="24.4" y="1.5" width="500.2" height="24.65" shape-rendering="crispEdges"/><rect fill="#15090f" x="524.6" y="1.5" width="573.4" height="24.65" shape-rendering="crispEdges"/><rect fill="#15090f" x="1098" y="1.5" width="24.4" height="24.65" shape-rendering="crispEdges"/><rect fill="#15090f" x="0" y="25.9" width="12.2" height="24.65" shape-rendering="crispEdges"/><rect fill="#15090f" x="12.2" y="25.9" width="12.2" height="24.65" shape-rendering="crispEdges"/><rect fill="#15090f" x="24.4" y="25.9" width="36.6" height="24.65" shape-rendering="crispEdges"/><rect fill="#15090f" x="61" y="25.9" width="36.6" height="24.65" shape-rendering="crispEdges"/><rect fill="#15090f" x="97.6" y="25.9" width="256.2" height="24.65" shape-rendering="crispEdges"/><rect fill="#15090f" x="353.8" y="25.9" width="85.4" height="24.65" shape-rendering="crispEdges"/><rect fill="#15090f" x="439.2" y="25.9" width="97.6" height="24.65" shape-rendering="crispEdges"/><rect fill="#15090f" x="536.8" y="25.9" width="12.2" height="24.65" shape-rendering="crispEdges"/><rect fill="#15090f" x="549" y="25.9" width="549" height="24.65" shape-rendering="crispEdges"/><rect fill="#15090f" x="1098" y="25.9" width="12.2" height="24.65" shape-rendering="crispEdges"/><rect fill="#15090f" x="1110.2" y="25.9" width="12.2" height="24.65" shape-rendering="crispEdges"/><rect fill="#15090f" x="0" y="50.3" width="12.2" height="24.65" shape-rendering="crispEdges"/><rect fill="#15090f" x="12.2" y="50.3" width="12.2" height="24.65" shape-rendering="crispEdges"/><rect fill="#15090f" x="24.4" y="50.3" width="73.2" height="24.65" shape-rendering="crispEdges"/><rect fill="#15090f" x="97.6" y="50.3" width="97.6" height="24.65" shape-rendering="crispEdges"/><rect fill="#15090f" x="195.2" y="50.3" width="122" height="24.65" shape-rendering="crispEdges"/><rect fill="#15090f" x="317.2" y="50.3" width="122" height="24.65" shape-rendering="crispEdges"/><rect fill="#15090f" x="439.2" y="50.3" width="109.8" height="24.65" shape-rendering="crispEdges"/><rect fill="#15090f" x="549" y="50.3" width="549" height="24.65" shape-rendering="crispEdges"/><rect fill="#15090f" x="1098" y="50.3" width="12.2" height="24.65" shape-rendering="crispEdges"/><rect fill="#15090f" x="1110.2" y="50.3" width="12.2" height="24.65" shape-rendering="crispEdges"/><rect fill="#15090f" x="0" y="74.7" width="1122.4" height="24.65" shape-rendering="crispEdges"/><rect fill="#15090f" x="0" y="99.1" width="24.4" height="24.65" shape-rendering="crispEdges"/><rect fill="#15090f" x="24.4" y="99.1" width="97.6" height="24.65" shape-rendering="crispEdges"/><rect fill="#15090f" x="122" y="99.1" width="976" height="24.65" shape-rendering="crispEdges"/><rect fill="#15090f" x="1098" y="99.1" width="24.4" height="24.65" shape-rendering="crispEdges"/><rect fill="#15090f" x="0" y="123.5" width="12.2" height="24.65" shape-rendering="crispEdges"/><rect fill="#15090f" x="12.2" y="123.5" width="12.2" height="24.65" shape-rendering="crispEdges"/><rect fill="#15090f" x="24.4" y="123.5" width="12.2" height="24.65" shape-rendering="crispEdges"/><rect fill="#15090f" x="36.6" y="123.5" width="12.2" height="24.65" shape-rendering="crispEdges"/><rect fill="#15090f" x="48.8" y="123.5" width="12.2" height="24.65" shape-rendering="crispEdges"/><rect fill="#15090f" x="61" y="123.5" width="12.2" height="24.65" shape-rendering="crispEdges"/><rect fill="#15090f" x="73.2" y="123.5" width="317.2" height="24.65" shape-rendering="crispEdges"/><rect fill="#15090f" x="390.4" y="123.5" width="12.2" height="24.65" shape-rendering="crispEdges"/><rect fill="#15090f" x="402.6" y="123.5" width="12.2" height="24.65" shape-rendering="crispEdges"/><rect fill="#15090f" x="414.8" y="123.5" width="671" height="24.65" shape-rendering="crispEdges"/><rect fill="#15090f" x="1085.8" y="123.5" width="12.2" height="24.65" shape-rendering="crispEdges"/><rect fill="#15090f" x="1098" y="123.5" width="12.2" height="24.65" shape-rendering="crispEdges"/><rect fill="#15090f" x="1110.2" y="123.5" width="12.2" height="24.65" shape-rendering="crispEdges"/><rect fill="#15090f" x="0" y="147.9" width="12.2" height="24.65" shape-rendering="crispEdges"/><rect fill="#15090f" x="12.2" y="147.9" width="12.2" height="24.65" shape-rendering="crispEdges"/><rect fill="#15090f" x="24.4" y="147.9" width="12.2" height="24.65" shape-rendering="crispEdges"/><rect fill="#15090f" x="36.6" y="147.9" width="12.2" height="24.65" shape-rendering="crispEdges"/><rect fill="#15090f" x="48.8" y="147.9" width="12.2" height="24.65" shape-rendering="crispEdges"/><rect fill="#15090f" x="61" y="147.9" width="12.2" height="24.65" shape-rendering="crispEdges"/><rect fill="#15090f" x="73.2" y="147.9" width="317.2" height="24.65" shape-rendering="crispEdges"/><rect fill="#15090f" x="390.4" y="147.9" width="12.2" height="24.65" shape-rendering="crispEdges"/><rect fill="#15090f" x="402.6" y="147.9" width="12.2" height="24.65" shape-rendering="crispEdges"/><rect fill="#15090f" x="414.8" y="147.9" width="671" height="24.65" shape-rendering="crispEdges"/><rect fill="#15090f" x="1085.8" y="147.9" width="12.2" height="24.65" shape-rendering="crispEdges"/><rect fill="#15090f" x="1098" y="147.9" width="12.2" height="24.65" shape-rendering="crispEdges"/><rect fill="#15090f" x="1110.2" y="147.9" width="12.2" height="24.65" shape-rendering="crispEdges"/><rect fill="#15090f" x="0" y="172.3" width="12.2" height="24.65" shape-rendering="crispEdges"/><rect fill="#15090f" x="12.2" y="172.3" width="12.2" height="24.65" shape-rendering="crispEdges"/><rect fill="#15090f" x="24.4" y="172.3" width="36.6" height="24.65" shape-rendering="crispEdges"/><rect fill="#15090f" x="61" y="172.3" width="341.6" height="24.65" shape-rendering="crispEdges"/><rect fill="#15090f" x="402.6" y="172.3" width="12.2" height="24.65" shape-rendering="crispEdges"/><rect fill="#15090f" x="414.8" y="172.3" width="671" height="24.65" shape-rendering="crispEdges"/><rect fill="#15090f" x="1085.8" y="172.3" width="12.2" height="24.65" shape-rendering="crispEdges"/><rect fill="#15090f" x="1098" y="172.3" width="12.2" height="24.65" shape-rendering="crispEdges"/><rect fill="#15090f" x="1110.2" y="172.3" width="12.2" height="24.65" shape-rendering="crispEdges"/><rect fill="#15090f" x="0" y="196.7" width="12.2" height="24.65" shape-rendering="crispEdges"/><rect fill="#15090f" x="12.2" y="196.7" width="12.2" height="24.65" shape-rendering="crispEdges"/><rect fill="#15090f" x="24.4" y="196.7" width="12.2" height="24.65" shape-rendering="crispEdges"/><rect fill="#15090f" x="36.6" y="196.7" width="12.2" height="24.65" shape-rendering="crispEdges"/><rect fill="#15090f" x="48.8" y="196.7" width="12.2" height="24.65" shape-rendering="crispEdges"/><rect fill="#15090f" x="61" y="196.7" width="12.2" height="24.65" shape-rendering="crispEdges"/><rect fill="#15090f" x="73.2" y="196.7" width="317.2" height="24.65" shape-rendering="crispEdges"/><rect fill="#15090f" x="390.4" y="196.7" width="12.2" height="24.65" shape-rendering="crispEdges"/><rect fill="#15090f" x="402.6" y="196.7" width="12.2" height="24.65" shape-rendering="crispEdges"/><rect fill="#15090f" x="414.8" y="196.7" width="671" height="24.65" shape-rendering="crispEdges"/><rect fill="#15090f" x="1085.8" y="196.7" width="12.2" height="24.65" shape-rendering="crispEdges"/><rect fill="#15090f" x="1098" y="196.7" width="12.2" height="24.65" shape-rendering="crispEdges"/><rect fill="#15090f" x="1110.2" y="196.7" width="12.2" height="24.65" shape-rendering="crispEdges"/><rect fill="#15090f" x="0" y="221.1" width="12.2" height="24.65" shape-rendering="crispEdges"/><rect fill="#15090f" x="12.2" y="221.1" width="12.2" height="24.65" shape-rendering="crispEdges"/><rect fill="#15090f" x="24.4" y="221.1" width="12.2" height="24.65" shape-rendering="crispEdges"/><rect fill="#15090f" x="36.6" y="221.1" width="12.2" height="24.65" shape-rendering="crispEdges"/><rect fill="#15090f" x="48.8" y="221.1" width="12.2" height="24.65" shape-rendering="crispEdges"/><rect fill="#15090f" x="61" y="221.1" width="12.2" height="24.65" shape-rendering="crispEdges"/><rect fill="#15090f" x="73.2" y="221.1" width="317.2" height="24.65" shape-rendering="crispEdges"/><rect fill="#15090f" x="390.4" y="221.1" width="12.2" height="24.65" shape-rendering="crispEdges"/><rect fill="#15090f" x="402.6" y="221.1" width="12.2" height="24.65" shape-rendering="crispEdges"/><rect fill="#15090f" x="414.8" y="221.1" width="671" height="24.65" shape-rendering="crispEdges"/><rect fill="#15090f" x="1085.8" y="221.1" width="12.2" height="24.65" shape-rendering="crispEdges"/><rect fill="#15090f" x="1098" y="221.1" width="12.2" height="24.65" shape-rendering="crispEdges"/><rect fill="#15090f" x="1110.2" y="221.1" width="12.2" height="24.65" shape-rendering="crispEdges"/><rect fill="#15090f" x="0" y="245.5" width="12.2" height="24.65" shape-rendering="crispEdges"/><rect fill="#15090f" x="12.2" y="245.5" width="12.2" height="24.65" shape-rendering="crispEdges"/><rect fill="#15090f" x="24.4" y="245.5" width="12.2" height="24.65" shape-rendering="crispEdges"/><rect fill="#15090f" x="36.6" y="245.5" width="12.2" height="24.65" shape-rendering="crispEdges"/><rect fill="#15090f" x="48.8" y="245.5" width="12.2" height="24.65" shape-rendering="crispEdges"/><rect fill="#15090f" x="61" y="245.5" width="12.2" height="24.65" shape-rendering="crispEdges"/><rect fill="#15090f" x="73.2" y="245.5" width="317.2" height="24.65" shape-rendering="crispEdges"/><rect fill="#15090f" x="390.4" y="245.5" width="12.2" height="24.65" shape-rendering="crispEdges"/><rect fill="#15090f" x="402.6" y="245.5" width="12.2" height="24.65" shape-rendering="crispEdges"/><rect fill="#15090f" x="414.8" y="245.5" width="671" height="24.65" shape-rendering="crispEdges"/><rect fill="#15090f" x="1085.8" y="245.5" width="12.2" height="24.65" shape-rendering="crispEdges"/><rect fill="#15090f" x="1098" y="245.5" width="12.2" height="24.65" shape-rendering="crispEdges"/><rect fill="#15090f" x="1110.2" y="245.5" width="12.2" height="24.65" shape-rendering="crispEdges"/><rect fill="#15090f" x="0" y="269.9" width="12.2" height="24.65" shape-rendering="crispEdges"/><rect fill="#15090f" x="12.2" y="269.9" width="12.2" height="24.65" shape-rendering="crispEdges"/><rect fill="#15090f" x="24.4" y="269.9" width="12.2" height="24.65" shape-rendering="crispEdges"/><rect fill="#15090f" x="36.6" y="269.9" width="12.2" height="24.65" shape-rendering="crispEdges"/><rect fill="#15090f" x="48.8" y="269.9" width="12.2" height="24.65" shape-rendering="crispEdges"/><rect fill="#15090f" x="61" y="269.9" width="12.2" height="24.65" shape-rendering="crispEdges"/><rect fill="#15090f" x="73.2" y="269.9" width="317.2" height="24.65" shape-rendering="crispEdges"/><rect fill="#15090f" x="390.4" y="269.9" width="12.2" height="24.65" shape-rendering="crispEdges"/><rect fill="#15090f" x="402.6" y="269.9" width="12.2" height="24.65" shape-rendering="crispEdges"/><rect fill="#15090f" x="414.8" y="269.9" width="671" height="24.65" shape-rendering="crispEdges"/><rect fill="#15090f" x="1085.8" y="269.9" width="12.2" height="24.65" shape-rendering="crispEdges"/><rect fill="#15090f" x="1098" y="269.9" width="12.2" height="24.65" shape-rendering="crispEdges"/><rect fill="#15090f" x="1110.2" y="269.9" width="12.2" height="24.65" shape-rendering="crispEdges"/><rect fill="#15090f" x="0" y="294.3" width="12.2" height="24.65" shape-rendering="crispEdges"/><rect fill="#15090f" x="12.2" y="294.3" width="12.2" height="24.65" shape-rendering="crispEdges"/><rect fill="#15090f" x="24.4" y="294.3" width="12.2" height="24.65" shape-rendering="crispEdges"/><rect fill="#15090f" x="36.6" y="294.3" width="12.2" height="24.65" shape-rendering="crispEdges"/><rect fill="#15090f" x="48.8" y="294.3" width="12.2" height="24.65" shape-rendering="crispEdges"/><rect fill="#15090f" x="61" y="294.3" width="12.2" height="24.65" shape-rendering="crispEdges"/><rect fill="#15090f" x="73.2" y="294.3" width="317.2" height="24.65" shape-rendering="crispEdges"/><rect fill="#15090f" x="390.4" y="294.3" width="12.2" height="24.65" shape-rendering="crispEdges"/><rect fill="#15090f" x="402.6" y="294.3" width="12.2" height="24.65" shape-rendering="crispEdges"/><rect fill="#15090f" x="414.8" y="294.3" width="671" height="24.65" shape-rendering="crispEdges"/><rect fill="#15090f" x="1085.8" y="294.3" width="12.2" height="24.65" shape-rendering="crispEdges"/><rect fill="#15090f" x="1098" y="294.3" width="12.2" height="24.65" shape-rendering="crispEdges"/><rect fill="#15090f" x="1110.2" y="294.3" width="12.2" height="24.65" shape-rendering="crispEdges"/><rect fill="#15090f" x="0" y="318.7" width="12.2" height="24.65" shape-rendering="crispEdges"/><rect fill="#15090f" x="12.2" y="318.7" width="12.2" height="24.65" shape-rendering="crispEdges"/><rect fill="#15090f" x="24.4" y="318.7" width="36.6" height="24.65" shape-rendering="crispEdges"/><rect fill="#15090f" x="61" y="318.7" width="341.6" height="24.65" shape-rendering="crispEdges"/><rect fill="#15090f" x="402.6" y="318.7" width="12.2" height="24.65" shape-rendering="crispEdges"/><rect fill="#15090f" x="414.8" y="318.7" width="671" height="24.65" shape-rendering="crispEdges"/><rect fill="#15090f" x="1085.8" y="318.7" width="12.2" height="24.65" shape-rendering="crispEdges"/><rect fill="#15090f" x="1098" y="318.7" width="12.2" height="24.65" shape-rendering="crispEdges"/><rect fill="#15090f" x="1110.2" y="318.7" width="12.2" height="24.65" shape-rendering="crispEdges"/><rect fill="#15090f" x="0" y="343.1" width="12.2" height="24.65" shape-rendering="crispEdges"/><rect fill="#15090f" x="12.2" y="343.1" width="12.2" height="24.65" shape-rendering="crispEdges"/><rect fill="#15090f" x="24.4" y="343.1" width="12.2" height="24.65" shape-rendering="crispEdges"/><rect fill="#15090f" x="36.6" y="343.1" width="12.2" height="24.65" shape-rendering="crispEdges"/><rect fill="#15090f" x="48.8" y="343.1" width="12.2" height="24.65" shape-rendering="crispEdges"/><rect fill="#15090f" x="61" y="343.1" width="12.2" height="24.65" shape-rendering="crispEdges"/><rect fill="#15090f" x="73.2" y="343.1" width="317.2" height="24.65" shape-rendering="crispEdges"/><rect fill="#15090f" x="390.4" y="343.1" width="12.2" height="24.65" shape-rendering="crispEdges"/><rect fill="#15090f" x="402.6" y="343.1" width="12.2" height="24.65" shape-rendering="crispEdges"/><rect fill="#15090f" x="414.8" y="343.1" width="671" height="24.65" shape-rendering="crispEdges"/><rect fill="#15090f" x="1085.8" y="343.1" width="12.2" height="24.65" shape-rendering="crispEdges"/><rect fill="#15090f" x="1098" y="343.1" width="12.2" height="24.65" shape-rendering="crispEdges"/><rect fill="#15090f" x="1110.2" y="343.1" width="12.2" height="24.65" shape-rendering="crispEdges"/><rect fill="#15090f" x="0" y="367.5" width="12.2" height="24.65" shape-rendering="crispEdges"/><rect fill="#15090f" x="12.2" y="367.5" width="12.2" height="24.65" shape-rendering="crispEdges"/><rect fill="#15090f" x="24.4" y="367.5" width="36.6" height="24.65" shape-rendering="crispEdges"/><rect fill="#15090f" x="61" y="367.5" width="341.6" height="24.65" shape-rendering="crispEdges"/><rect fill="#15090f" x="402.6" y="367.5" width="12.2" height="24.65" shape-rendering="crispEdges"/><rect fill="#15090f" x="414.8" y="367.5" width="671" height="24.65" shape-rendering="crispEdges"/><rect fill="#15090f" x="1085.8" y="367.5" width="12.2" height="24.65" shape-rendering="crispEdges"/><rect fill="#15090f" x="1098" y="367.5" width="12.2" height="24.65" shape-rendering="crispEdges"/><rect fill="#15090f" x="1110.2" y="367.5" width="12.2" height="24.65" shape-rendering="crispEdges"/><rect fill="#15090f" x="0" y="391.9" width="12.2" height="24.65" shape-rendering="crispEdges"/><rect fill="#15090f" x="12.2" y="391.9" width="12.2" height="24.65" shape-rendering="crispEdges"/><rect fill="#15090f" x="24.4" y="391.9" width="12.2" height="24.65" shape-rendering="crispEdges"/><rect fill="#15090f" x="36.6" y="391.9" width="12.2" height="24.65" shape-rendering="crispEdges"/><rect fill="#15090f" x="48.8" y="391.9" width="12.2" height="24.65" shape-rendering="crispEdges"/><rect fill="#15090f" x="61" y="391.9" width="12.2" height="24.65" shape-rendering="crispEdges"/><rect fill="#15090f" x="73.2" y="391.9" width="317.2" height="24.65" shape-rendering="crispEdges"/><rect fill="#15090f" x="390.4" y="391.9" width="12.2" height="24.65" shape-rendering="crispEdges"/><rect fill="#15090f" x="402.6" y="391.9" width="12.2" height="24.65" shape-rendering="crispEdges"/><rect fill="#15090f" x="414.8" y="391.9" width="671" height="24.65" shape-rendering="crispEdges"/><rect fill="#15090f" x="1085.8" y="391.9" width="12.2" height="24.65" shape-rendering="crispEdges"/><rect fill="#15090f" x="1098" y="391.9" width="12.2" height="24.65" shape-rendering="crispEdges"/><rect fill="#15090f" x="1110.2" y="391.9" width="12.2" height="24.65" shape-rendering="crispEdges"/><rect fill="#15090f" x="0" y="416.3" width="12.2" height="24.65" shape-rendering="crispEdges"/><rect fill="#15090f" x="12.2" y="416.3" width="12.2" height="24.65" shape-rendering="crispEdges"/><rect fill="#15090f" x="24.4" y="416.3" width="36.6" height="24.65" shape-rendering="crispEdges"/><rect fill="#15090f" x="61" y="416.3" width="341.6" height="24.65" shape-rendering="crispEdges"/><rect fill="#15090f" x="402.6" y="416.3" width="12.2" height="24.65" shape-rendering="crispEdges"/><rect fill="#15090f" x="414.8" y="416.3" width="671" height="24.65" shape-rendering="crispEdges"/><rect fill="#15090f" x="1085.8" y="416.3" width="12.2" height="24.65" shape-rendering="crispEdges"/><rect fill="#15090f" x="1098" y="416.3" width="12.2" height="24.65" shape-rendering="crispEdges"/><rect fill="#15090f" x="1110.2" y="416.3" width="12.2" height="24.65" shape-rendering="crispEdges"/><rect fill="#15090f" x="0" y="440.7" width="1122.4" height="24.65" shape-rendering="crispEdges"/>
    <g class="terminal-322223703-matrix">
    <text class="terminal-322223703-r1" x="0" y="20" textLength="24.4" clip-path="url(#terminal-322223703-line-0)">╭─</text><text class="terminal-322223703-r2" x="24.4" y="20" textLength="500.2" clip-path="url(#terminal-322223703-line-0)">&#160;Hardening&#160;·&#160;usuario&#160;(cobertura&#160;parcial)&#160;</text><text class="terminal-322223703-r1" x="524.6" y="20" textLength="573.4" clip-path="url(#terminal-322223703-line-0)">───────────────────────────────────────────────</text><text class="terminal-322223703-r1" x="1098" y="20" textLength="24.4" clip-path="url(#terminal-322223703-line-0)">─╮</text><text class="terminal-322223703-r3" x="1122.4" y="20" textLength="12.2" clip-path="url(#terminal-322223703-line-0)">
</text><text class="terminal-322223703-r1" x="0" y="44.4" textLength="12.2" clip-path="url(#terminal-322223703-line-1)">│</text><text class="terminal-322223703-r3" x="24.4" y="44.4" textLength="36.6" clip-path="url(#terminal-322223703-line-1)">&#160;C&#160;</text><text class="terminal-322223703-r4" x="97.6" y="44.4" textLength="256.2" clip-path="url(#terminal-322223703-line-1)">█████████████████████</text><text class="terminal-322223703-r5" x="353.8" y="44.4" textLength="85.4" clip-path="url(#terminal-322223703-line-1)">░░░░░░░</text><text class="terminal-322223703-r4" x="439.2" y="44.4" textLength="97.6" clip-path="url(#terminal-322223703-line-1)">&#160;&#160;75/100</text><text class="terminal-322223703-r1" x="1110.2" y="44.4" textLength="12.2" clip-path="url(#terminal-322223703-line-1)">│</text><text class="terminal-322223703-r3" x="1122.4" y="44.4" textLength="12.2" clip-path="url(#terminal-322223703-line-1)">
</text><text class="terminal-322223703-r1" x="0" y="68.8" textLength="12.2" clip-path="url(#terminal-322223703-line-2)">│</text><text class="terminal-322223703-r6" x="97.6" y="68.8" textLength="97.6" clip-path="url(#terminal-322223703-line-2)">&#160;&#160;●&#160;2&#160;ok</text><text class="terminal-322223703-r4" x="195.2" y="68.8" textLength="122" clip-path="url(#terminal-322223703-line-2)">&#160;&#160;●&#160;4&#160;warn</text><text class="terminal-322223703-r7" x="317.2" y="68.8" textLength="122" clip-path="url(#terminal-322223703-line-2)">&#160;&#160;●&#160;0&#160;fail</text><text class="terminal-322223703-r5" x="439.2" y="68.8" textLength="109.8" clip-path="url(#terminal-322223703-line-2)">&#160;&#160;○&#160;2&#160;n/a</text><text class="terminal-322223703-r1" x="1110.2" y="68.8" textLength="12.2" clip-path="url(#terminal-322223703-line-2)">│</text><text class="terminal-322223703-r3" x="1122.4" y="68.8" textLength="12.2" clip-path="url(#terminal-322223703-line-2)">
</text><text class="terminal-322223703-r1" x="0" y="93.2" textLength="1122.4" clip-path="url(#terminal-322223703-line-3)">╰──────────────────────────────────────────────────────────────────────────────────────────╯</text><text class="terminal-322223703-r3" x="1122.4" y="93.2" textLength="12.2" clip-path="url(#terminal-322223703-line-3)">
</text><text class="terminal-322223703-r1" x="0" y="117.6" textLength="24.4" clip-path="url(#terminal-322223703-line-4)">╭─</text><text class="terminal-322223703-r2" x="24.4" y="117.6" textLength="97.6" clip-path="url(#terminal-322223703-line-4)">&#160;Checks&#160;</text><text class="terminal-322223703-r1" x="122" y="117.6" textLength="976" clip-path="url(#terminal-322223703-line-4)">────────────────────────────────────────────────────────────────────────────────</text><text class="terminal-322223703-r1" x="1098" y="117.6" textLength="24.4" clip-path="url(#terminal-322223703-line-4)">─╮</text><text class="terminal-322223703-r3" x="1122.4" y="117.6" textLength="12.2" clip-path="url(#terminal-322223703-line-4)">
</text><text class="terminal-322223703-r1" x="0" y="142" textLength="12.2" clip-path="url(#terminal-322223703-line-5)">│</text><text class="terminal-322223703-r2" x="73.2" y="142" textLength="317.2" clip-path="url(#terminal-322223703-line-5)">Check&#160;&#160;&#160;&#160;&#160;&#160;&#160;&#160;&#160;&#160;&#160;&#160;&#160;&#160;&#160;&#160;&#160;&#160;&#160;&#160;&#160;</text><text class="terminal-322223703-r2" x="414.8" y="142" textLength="671" clip-path="url(#terminal-322223703-line-5)">Detalle&#160;&#160;&#160;&#160;&#160;&#160;&#160;&#160;&#160;&#160;&#160;&#160;&#160;&#160;&#160;&#160;&#160;&#160;&#160;&#160;&#160;&#160;&#160;&#160;&#160;&#160;&#160;&#160;&#160;&#160;&#160;&#160;&#160;&#160;&#160;&#160;&#160;&#160;&#160;&#160;&#160;&#160;&#160;&#160;&#160;&#160;&#160;&#160;</text><text class="terminal-322223703-r1" x="1110.2" y="142" textLength="12.2" clip-path="url(#terminal-322223703-line-5)">│</text><text class="terminal-322223703-r3" x="1122.4" y="142" textLength="12.2" clip-path="url(#terminal-322223703-line-5)">
</text><text class="terminal-322223703-r1" x="0" y="166.4" textLength="12.2" clip-path="url(#terminal-322223703-line-6)">│</text><text class="terminal-322223703-r4" x="36.6" y="166.4" textLength="12.2" clip-path="url(#terminal-322223703-line-6)">●</text><text class="terminal-322223703-r8" x="73.2" y="166.4" textLength="317.2" clip-path="url(#terminal-322223703-line-6)">Cortafuegos&#160;&#160;&#160;&#160;&#160;&#160;&#160;&#160;&#160;&#160;&#160;&#160;&#160;&#160;&#160;</text><text class="terminal-322223703-r5" x="414.8" y="166.4" textLength="671" clip-path="url(#terminal-322223703-line-6)">Sin&#160;cortafuegos&#160;detectado.&#160;&#160;→&#160;Instala&#160;y&#160;activa&#160;ufw&#160;o&#160;&#160;&#160;</text><text class="terminal-322223703-r1" x="1110.2" y="166.4" textLength="12.2" clip-path="url(#terminal-322223703-line-6)">│</text><text class="terminal-322223703-r3" x="1122.4" y="166.4" textLength="12.2" clip-path="url(#terminal-322223703-line-6)">
</text><text class="terminal-322223703-r1" x="0" y="190.8" textLength="12.2" clip-path="url(#terminal-322223703-line-7)">│</text><text class="terminal-322223703-r5" x="414.8" y="190.8" textLength="671" clip-path="url(#terminal-322223703-line-7)">firewalld.&#160;&#160;&#160;&#160;&#160;&#160;&#160;&#160;&#160;&#160;&#160;&#160;&#160;&#160;&#160;&#160;&#160;&#160;&#160;&#160;&#160;&#160;&#160;&#160;&#160;&#160;&#160;&#160;&#160;&#160;&#160;&#160;&#160;&#160;&#160;&#160;&#160;&#160;&#160;&#160;&#160;&#160;&#160;&#160;&#160;</text><text class="terminal-322223703-r1" x="1110.2" y="190.8" textLength="12.2" clip-path="url(#terminal-322223703-line-7)">│</text><text class="terminal-322223703-r3" x="1122.4" y="190.8" textLength="12.2" clip-path="url(#terminal-322223703-line-7)">
</text><text class="terminal-322223703-r1" x="0" y="215.2" textLength="12.2" clip-path="url(#terminal-322223703-line-8)">│</text><text class="terminal-322223703-r5" x="36.6" y="215.2" textLength="12.2" clip-path="url(#terminal-322223703-line-8)">○</text><text class="terminal-322223703-r8" x="73.2" y="215.2" textLength="317.2" clip-path="url(#terminal-322223703-line-8)">SSH&#160;root&#160;login&#160;&#160;&#160;&#160;&#160;&#160;&#160;&#160;&#160;&#160;&#160;&#160;</text><text class="terminal-322223703-r5" x="414.8" y="215.2" textLength="671" clip-path="url(#terminal-322223703-line-8)">Sin&#160;servidor&#160;SSH&#160;(no&#160;sshd_config).&#160;&#160;&#160;&#160;&#160;&#160;&#160;&#160;&#160;&#160;&#160;&#160;&#160;&#160;&#160;&#160;&#160;&#160;&#160;&#160;&#160;</text><text class="terminal-322223703-r1" x="1110.2" y="215.2" textLength="12.2" clip-path="url(#terminal-322223703-line-8)">│</text><text class="terminal-322223703-r3" x="1122.4" y="215.2" textLength="12.2" clip-path="url(#terminal-322223703-line-8)">
</text><text class="terminal-322223703-r1" x="0" y="239.6" textLength="12.2" clip-path="url(#terminal-322223703-line-9)">│</text><text class="terminal-322223703-r5" x="36.6" y="239.6" textLength="12.2" clip-path="url(#terminal-322223703-line-9)">○</text><text class="terminal-322223703-r8" x="73.2" y="239.6" textLength="317.2" clip-path="url(#terminal-322223703-line-9)">SSH&#160;password&#160;auth&#160;&#160;&#160;&#160;&#160;&#160;&#160;&#160;&#160;</text><text class="terminal-322223703-r5" x="414.8" y="239.6" textLength="671" clip-path="url(#terminal-322223703-line-9)">Sin&#160;servidor&#160;SSH.&#160;&#160;&#160;&#160;&#160;&#160;&#160;&#160;&#160;&#160;&#160;&#160;&#160;&#160;&#160;&#160;&#160;&#160;&#160;&#160;&#160;&#160;&#160;&#160;&#160;&#160;&#160;&#160;&#160;&#160;&#160;&#160;&#160;&#160;&#160;&#160;&#160;&#160;</text><text class="terminal-322223703-r1" x="1110.2" y="239.6" textLength="12.2" clip-path="url(#terminal-322223703-line-9)">│</text><text class="terminal-322223703-r3" x="1122.4" y="239.6" textLength="12.2" clip-path="url(#terminal-322223703-line-9)">
</text><text class="terminal-322223703-r1" x="0" y="264" textLength="12.2" clip-path="url(#terminal-322223703-line-10)">│</text><text class="terminal-322223703-r6" x="36.6" y="264" textLength="12.2" clip-path="url(#terminal-322223703-line-10)">●</text><text class="terminal-322223703-r8" x="73.2" y="264" textLength="317.2" clip-path="url(#terminal-322223703-line-10)">Permisos&#160;sensibles&#160;&#160;&#160;&#160;&#160;&#160;&#160;&#160;</text><text class="terminal-322223703-r5" x="414.8" y="264" textLength="671" clip-path="url(#terminal-322223703-line-10)">shadow/passwd/sudoers/~/.ssh&#160;correctos.&#160;&#160;&#160;&#160;&#160;&#160;&#160;&#160;&#160;&#160;&#160;&#160;&#160;&#160;&#160;&#160;</text><text class="terminal-322223703-r1" x="1110.2" y="264" textLength="12.2" clip-path="url(#terminal-322223703-line-10)">│</text><text class="terminal-322223703-r3" x="1122.4" y="264" textLength="12.2" clip-path="url(#terminal-322223703-line-10)">
</text><text class="terminal-322223703-r1" x="0" y="288.4" textLength="12.2" clip-path="url(#terminal-322223703-line-11)">│</text><text class="terminal-322223703-r6" x="36.6" y="288.4" textLength="12.2" clip-path="url(#terminal-322223703-line-11)">●</text><text class="terminal-322223703-r8" x="73.2" y="288.4" textLength="317.2" clip-path="url(#terminal-322223703-line-11)">Cuentas&#160;UID&#160;0&#160;&#160;&#160;&#160;&#160;&#160;&#160;&#160;&#160;&#160;&#160;&#160;&#160;</text><text class="terminal-322223703-r5" x="414.8" y="288.4" textLength="671" clip-path="url(#terminal-322223703-line-11)">Solo&#160;root&#160;con&#160;UID&#160;0.&#160;&#160;&#160;&#160;&#160;&#160;&#160;&#160;&#160;&#160;&#160;&#160;&#160;&#160;&#160;&#160;&#160;&#160;&#160;&#160;&#160;&#160;&#160;&#160;&#160;&#160;&#160;&#160;&#160;&#160;&#160;&#160;&#160;&#160;&#160;</text><text class="terminal-322223703-r1" x="1110.2" y="288.4" textLength="12.2" clip-path="url(#terminal-322223703-line-11)">│</text><text class="terminal-322223703-r3" x="1122.4" y="288.4" textLength="12.2" clip-path="url(#terminal-322223703-line-11)">
</text><text class="terminal-322223703-r1" x="0" y="312.8" textLength="12.2" clip-path="url(#terminal-322223703-line-12)">│</text><text class="terminal-322223703-r4" x="36.6" y="312.8" textLength="12.2" clip-path="url(#terminal-322223703-line-12)">●</text><text class="terminal-322223703-r8" x="73.2" y="312.8" textLength="317.2" clip-path="url(#terminal-322223703-line-12)">Actualizaciones&#160;pendientes</text><text class="terminal-322223703-r5" x="414.8" y="312.8" textLength="671" clip-path="url(#terminal-322223703-line-12)">30&#160;paquetes&#160;actualizables&#160;(apt).&#160;&#160;→&#160;Ejecuta&#160;apt&#160;&#160;&#160;&#160;&#160;&#160;&#160;&#160;</text><text class="terminal-322223703-r1" x="1110.2" y="312.8" textLength="12.2" clip-path="url(#terminal-322223703-line-12)">│</text><text class="terminal-322223703-r3" x="1122.4" y="312.8" textLength="12.2" clip-path="url(#terminal-322223703-line-12)">
</text><text class="terminal-322223703-r1" x="0" y="337.2" textLength="12.2" clip-path="url(#terminal-322223703-line-13)">│</text><text class="terminal-322223703-r5" x="414.8" y="337.2" textLength="671" clip-path="url(#terminal-322223703-line-13)">upgrade.&#160;&#160;&#160;&#160;&#160;&#160;&#160;&#160;&#160;&#160;&#160;&#160;&#160;&#160;&#160;&#160;&#160;&#160;&#160;&#160;&#160;&#160;&#160;&#160;&#160;&#160;&#160;&#160;&#160;&#160;&#160;&#160;&#160;&#160;&#160;&#160;&#160;&#160;&#160;&#160;&#160;&#160;&#160;&#160;&#160;&#160;&#160;</text><text class="terminal-322223703-r1" x="1110.2" y="337.2" textLength="12.2" clip-path="url(#terminal-322223703-line-13)">│</text><text class="terminal-322223703-r3" x="1122.4" y="337.2" textLength="12.2" clip-path="url(#terminal-322223703-line-13)">
</text><text class="terminal-322223703-r1" x="0" y="361.6" textLength="12.2" clip-path="url(#terminal-322223703-line-14)">│</text><text class="terminal-322223703-r4" x="36.6" y="361.6" textLength="12.2" clip-path="url(#terminal-322223703-line-14)">●</text><text class="terminal-322223703-r8" x="73.2" y="361.6" textLength="317.2" clip-path="url(#terminal-322223703-line-14)">Cifrado&#160;de&#160;disco&#160;&#160;&#160;&#160;&#160;&#160;&#160;&#160;&#160;&#160;</text><text class="terminal-322223703-r5" x="414.8" y="361.6" textLength="671" clip-path="url(#terminal-322223703-line-14)">Sin&#160;cifrado&#160;de&#160;disco&#160;detectado.&#160;&#160;→&#160;Considera&#160;LUKS&#160;para&#160;</text><text class="terminal-322223703-r1" x="1110.2" y="361.6" textLength="12.2" clip-path="url(#terminal-322223703-line-14)">│</text><text class="terminal-322223703-r3" x="1122.4" y="361.6" textLength="12.2" clip-path="url(#terminal-322223703-line-14)">
</text><text class="terminal-322223703-r1" x="0" y="386" textLength="12.2" clip-path="url(#terminal-322223703-line-15)">│</text><text class="terminal-322223703-r5" x="414.8" y="386" textLength="671" clip-path="url(#terminal-322223703-line-15)">datos&#160;en&#160;reposo.&#160;&#160;&#160;&#160;&#160;&#160;&#160;&#160;&#160;&#160;&#160;&#160;&#160;&#160;&#160;&#160;&#160;&#160;&#160;&#160;&#160;&#160;&#160;&#160;&#160;&#160;&#160;&#160;&#160;&#160;&#160;&#160;&#160;&#160;&#160;&#160;&#160;&#160;&#160;</text><text class="terminal-322223703-r1" x="1110.2" y="386" textLength="12.2" clip-path="url(#terminal-322223703-line-15)">│</text><text class="terminal-322223703-r3" x="1122.4" y="386" textLength="12.2" clip-path="url(#terminal-322223703-line-15)">
</text><text class="terminal-322223703-r1" x="0" y="410.4" textLength="12.2" clip-path="url(#terminal-322223703-line-16)">│</text><text class="terminal-322223703-r4" x="36.6" y="410.4" textLength="12.2" clip-path="url(#terminal-322223703-line-16)">●</text><text class="terminal-322223703-r8" x="73.2" y="410.4" textLength="317.2" clip-path="url(#terminal-322223703-line-16)">Puertos&#160;a&#160;la&#160;escucha&#160;&#160;&#160;&#160;&#160;&#160;</text><text class="terminal-322223703-r5" x="414.8" y="410.4" textLength="671" clip-path="url(#terminal-322223703-line-16)">Escuchando&#160;en&#160;0.0.0.0/::&#160;puertos&#160;80.&#160;&#160;→&#160;Limita&#160;binds&#160;a&#160;</text><text class="terminal-322223703-r1" x="1110.2" y="410.4" textLength="12.2" clip-path="url(#terminal-322223703-line-16)">│</text><text class="terminal-322223703-r3" x="1122.4" y="410.4" textLength="12.2" clip-path="url(#terminal-322223703-line-16)">
</text><text class="terminal-322223703-r1" x="0" y="434.8" textLength="12.2" clip-path="url(#terminal-322223703-line-17)">│</text><text class="terminal-322223703-r5" x="414.8" y="434.8" textLength="671" clip-path="url(#terminal-322223703-line-17)">127.0.0.1&#160;o&#160;protege&#160;con&#160;cortafuegos.&#160;&#160;&#160;&#160;&#160;&#160;&#160;&#160;&#160;&#160;&#160;&#160;&#160;&#160;&#160;&#160;&#160;&#160;&#160;</text><text class="terminal-322223703-r1" x="1110.2" y="434.8" textLength="12.2" clip-path="url(#terminal-322223703-line-17)">│</text><text class="terminal-322223703-r3" x="1122.4" y="434.8" textLength="12.2" clip-path="url(#terminal-322223703-line-17)">
</text><text class="terminal-322223703-r1" x="0" y="459.2" textLength="1122.4" clip-path="url(#terminal-322223703-line-18)">╰──────────────────────────────────────────────────────────────────────────────────────────╯</text><text class="terminal-322223703-r3" x="1122.4" y="459.2" textLength="12.2" clip-path="url(#terminal-322223703-line-18)">
</text>
    </g>
    </g>
</svg>
