<svg class="rich-terminal" viewBox="0 0 1141 440.4" xmlns="http://www.w3.org/2000/svg">
    <!-- Generated with Rich https://www.textualize.io -->
    <style>

    @font-face {
        font-family: "Fira Code";
        src: local("FiraCode-Regular"),
                url("https://cdnjs.cloudflare.com/ajax/libs/firacode/6.2.0/woff2/FiraCode-Regular.woff2") format("woff2"),
                url("https://cdnjs.cloudflare.com/ajax/libs/firacode/6.2.0/woff/FiraCode-Regular.woff") format("woff");
        font-style: normal;
        font-weight: 400;
    }
    @font-face {
        font-family: "Fira Code";
        src: local("FiraCode-Bold"),
                url("https://cdnjs.cloudflare.com/ajax/libs/firacode/6.2.0/woff2/FiraCode-Bold.woff2") format("woff2"),
                url("https://cdnjs.cloudflare.com/ajax/libs/firacode/6.2.0/woff/FiraCode-Bold.woff") format("woff");
        font-style: bold;
        font-weight: 700;
    }

    .terminal-1699499130-matrix {
        font-family: Fira Code, monospace;
        font-size: 20px;
        line-height: 24.4px;
        font-variant-east-asian: full-width;
    }

    .terminal-1699499130-title {
        font-size: 18px;
        font-weight: bold;
        font-family: arial;
    }

    .terminal-1699499130-r1 { fill: #ff3d94 }
.terminal-1699499130-r2 { fill: #ff3d94;font-weight: bold }
.terminal-1699499130-r3 { fill: #c5c8c6 }
.terminal-1699499130-r4 { fill: #3dffd1;font-weight: bold }
.terminal-1699499130-r5 { fill: #6b6b7b }
.terminal-1699499130-r6 { fill: #ff3d3d }
.terminal-1699499130-r7 { fill: #3dffd1 }
.terminal-1699499130-r8 { fill: #ffcc3d }
    </style>

    <defs>
    <clipPath id="terminal-1699499130-clip-terminal">
      <rect x="0" y="0" width="1121.3999999999999" height="389.4" />
    </clipPath>
    <clipPath id="terminal-1699499130-line-0">
    <rect x="0" y="1.5" width="1122.4" height="24.65"/>
            </clipPath>
<clipPath id="terminal-1699499130-line-1">
    <rect x="0" y="25.9" width="1122.4" height="24.65"/>
            </clipPath>
<clipPath id="terminal-1699499130-line-2">
    <rect x="0" y="50.3" width="1122.4" height="24.65"/>
            </clipPath>
<clipPath id="terminal-1699499130-line-3">
    <rect x="0" y="74.7" width="1122.4" height="24.65"/>
            </clipPath>
<clipPath id="terminal-1699499130-line-4">
    <rect x="0" y="99.1" width="1122.4" height="24.65"/>
            </clipPath>
<clipPath id="terminal-1699499130-line-5">
    <rect x="0" y="123.5" width="1122.4" height="24.65"/>
            </clipPath>
<clipPath id="terminal-1699499130-line-6">
    <rect x="0" y="147.9" width="1122.4" height="24.65"/>
            </clipPath>
<clipPath id="terminal-1699499130-line-7">
    <rect x="0" y="172.3" width="1122.4" height="24.65"/>
            </clipPath>
<clipPath id="terminal-1699499130-line-8">
    <rect x="0" y="196.7" width="1122.4" height="24.65"/>
            </clipPath>
<clipPath id="terminal-1699499130-line-9">
    <rect x="0" y="221.1" width="1122.4" height="24.65"/>
            </clipPath>
<clipPath id="terminal-1699499130-line-10">
    <rect x="0" y="245.5" width="1122.4" height="24.65"/>
            </clipPath>
<clipPath id="terminal-1699499130-line-11">
    <rect x="0" y="269.9" width="1122.4" height="24.65"/>
            </clipPath>
<clipPath id="terminal-1699499130-line-12">
    <rect x="0" y="294.3" width="1122.4" height="24.65"/>
            </clipPath>
<clipPath id="terminal-1699499130-line-13">
    <rect x="0" y="318.7" width="1122.4" height="24.65"/>
            </clipPath>
<clipPath id="terminal-1699499130-line-14">
    <rect x="0" y="343.1" width="1122.4" height="24.65"/>
            </clipPath>
    </defs>

    <rect fill="#292929" stroke="rgba(255,255,255,0.35)" stroke-width="1" x="1" y="1" width="1139" height="438.4" rx="8"/><text class="terminal-1699499130-title" fill="#c5c8c6" text-anchor="middle" x="569" y="27">warden&#160;cve&#160;·&#160;OSV.dev</text>
            <g transform="translate(26,22)">
            <circle cx="0" cy="0" r="7" fill="#ff5f57"/>
            <circle cx="22" cy="0" r="7" fill="#febc2e"/>
            <circle cx="44" cy="0" r="7" fill="#28c840"/>
            </g>
        
    <g transform="translate(9, 41)" clip-path="url(#terminal-1699499130-clip-terminal)">
    <rect fill="#15090f" x="0" y="1.5" width="24.4" height="24.65" shape-rendering="crispEdges"/><rect fill="#15090f" x="24.4" y="1.5" width="256.2" height="24.65" shape-rendering="crispEdges"/><rect fill="#15090f" x="280.6" y="1.5" width="817.4" height="24.65" shape-rendering="crispEdges"/><rect fill="#15090f" x="1098" y="1.5" width="24.4" height="24.65" shape-rendering="crispEdges"/><rect fill="#15090f" x="0" y="25.9" width="12.2" height="24.65" shape-rendering="crispEdges"/><rect fill="#15090f" x="12.2" y="25.9" width="12.2" height="24.65" shape-rendering="crispEdges"/><rect fill="#15090f" x="24.4" y="25.9" width="219.6" height="24.65" shape-rendering="crispEdges"/><rect fill="#15090f" x="244" y="25.9" width="12.2" height="24.65" shape-rendering="crispEdges"/><rect fill="#15090f" x="256.2" y="25.9" width="12.2" height="24.65" shape-rendering="crispEdges"/><rect fill="#15090f" x="268.4" y="25.9" width="244" height="24.65" shape-rendering="crispEdges"/><rect fill="#15090f" x="512.4" y="25.9" width="12.2" height="24.65" shape-rendering="crispEdges"/><rect fill="#15090f" x="524.6" y="25.9" width="12.2" height="24.65" shape-rendering="crispEdges"/><rect fill="#15090f" x="536.8" y="25.9" width="61" height="24.65" shape-rendering="crispEdges"/><rect fill="#15090f" x="597.8" y="25.9" width="12.2" height="24.65" shape-rendering="crispEdges"/><rect fill="#15090f" x="610" y="25.9" width="12.2" height="24.65" shape-rendering="crispEdges"/><rect fill="#15090f" x="622.2" y="25.9" width="475.8" height="24.65" shape-rendering="crispEdges"/><rect fill="#15090f" x="1098" y="25.9" width="12.2" height="24.65" shape-rendering="crispEdges"/><rect fill="#15090f" x="1110.2" y="25.9" width="12.2" height="24.65" shape-rendering="crispEdges"/><rect fill="#15090f" x="0" y="50.3" width="12.2" height="24.65" shape-rendering="crispEdges"/><rect fill="#15090f" x="12.2" y="50.3" width="12.2" height="24.65" shape-rendering="crispEdges"/><rect fill="#15090f" x="24.4" y="50.3" width="219.6" height="24.65" shape-rendering="crispEdges"/><rect fill="#15090f" x="244" y="50.3" width="12.2" height="24.65" shape-rendering="crispEdges"/><rect fill="#15090f" x="256.2" y="50.3" width="12.2" height="24.65" shape-rendering="crispEdges"/><rect fill="#15090f" x="268.4" y="50.3" width="244" height="24.65" shape-rendering="crispEdges"/><rect fill="#15090f" x="512.4" y="50.3" width="12.2" height="24.65" shape-rendering="crispEdges"/><rect fill="#15090f" x="524.6" y="50.3" width="12.2" height="24.65" shape-rendering="crispEdges"/><rect fill="#15090f" x="536.8" y="50.3" width="61" height="24.65" shape-rendering="crispEdges"/><rect fill="#15090f" x="597.8" y="50.3" width="12.2" height="24.65" shape-rendering="crispEdges"/><rect fill="#15090f" x="610" y="50.3" width="12.2" height="24.65" shape-rendering="crispEdges"/><rect fill="#15090f" x="622.2" y="50.3" width="475.8" height="24.65" shape-rendering="crispEdges"/><rect fill="#15090f" x="1098" y="50.3" width="12.2" height="24.65" shape-rendering="crispEdges"/><rect fill="#15090f" x="1110.2" y="50.3" width="12.2" height="24.65" shape-rendering="crispEdges"/><rect fill="#15090f" x="0" y="74.7" width="12.2" height="24.65" shape-rendering="crispEdges"/><rect fill="#15090f" x="12.2" y="74.7" width="12.2" height="24.65" shape-rendering="crispEdges"/><rect fill="#15090f" x="24.4" y="74.7" width="219.6" height="24.65" shape-rendering="crispEdges"/><rect fill="#15090f" x="244" y="74.7" width="12.2" height="24.65" shape-rendering="crispEdges"/><rect fill="#15090f" x="256.2" y="74.7" width="12.2" height="24.65" shape-rendering="crispEdges"/><rect fill="#15090f" x="268.4" y="74.7" width="244" height="24.65" shape-rendering="crispEdges"/><rect fill="#15090f" x="512.4" y="74.7" width="12.2" height="24.65" shape-rendering="crispEdges"/><rect fill="#15090f" x="524.6" y="74.7" width="12.2" height="24.65" shape-rendering="crispEdges"/><rect fill="#15090f" x="536.8" y="74.7" width="61" height="24.65" shape-rendering="crispEdges"/><rect fill="#15090f" x="597.8" y="74.7" width="12.2" height="24.65" shape-rendering="crispEdges"/><rect fill="#15090f" x="610" y="74.7" width="12.2" height="24.65" shape-rendering="crispEdges"/><rect fill="#15090f" x="622.2" y="74.7" width="475.8" height="24.65" shape-rendering="crispEdges"/><rect fill="#15090f" x="1098" y="74.7" width="12.2" height="24.65" shape-rendering="crispEdges"/><rect fill="#15090f" x="1110.2" y="74.7" width="12.2" height="24.65" shape-rendering="crispEdges"/><rect fill="#15090f" x="0" y="99.1" width="12.2" height="24.65" shape-rendering="crispEdges"/><rect fill="#15090f" x="12.2" y="99.1" width="12.2" height="24.65" shape-rendering="crispEdges"/><rect fill="#15090f" x="24.4" y="99.1" width="219.6" height="24.65" shape-rendering="crispEdges"/><rect fill="#15090f" x="244" y="99.1" width="12.2" height="24.65" shape-rendering="crispEdges"/><rect fill="#15090f" x="256.2" y="99.1" width="12.2" height="24.65" shape-rendering="crispEdges"/><rect fill="#15090f" x="268.4" y="99.1" width="244" height="24.65" shape-rendering="crispEdges"/><rect fill="#15090f" x="512.4" y="99.1" width="12.2" height="24.65" shape-rendering="crispEdges"/><rect fill="#15090f" x="524.6" y="99.1" width="12.2" height="24.65" shape-rendering="crispEdges"/><rect fill="#15090f" x="536.8" y="99.1" width="61" height="24.65" shape-rendering="crispEdges"/><rect fill="#15090f" x="597.8" y="99.1" width="12.2" height="24.65" shape-rendering="crispEdges"/><rect fill="#15090f" x="610" y="99.1" width="12.2" height="24.65" shape-rendering="crispEdges"/><rect fill="#15090f" x="622.2" y="99.1" width="475.8" height="24.65" shape-rendering="crispEdges"/><rect fill="#15090f" x="1098" y="99.1" width="12.2" height="24.65" shape-rendering="crispEdges"/><rect fill="#15090f" x="1110.2" y="99.1" width="12.2" height="24.65" shape-rendering="crispEdges"/><rect fill="#15090f" x="0" y="123.5" width="12.2" height="24.65" shape-rendering="crispEdges"/><rect fill="#15090f" x="12.2" y="123.5" width="12.2" height="24.65" shape-rendering="crispEdges"/><rect fill="#15090f" x="24.4" y="123.5" width="219.6" height="24.65" shape-rendering="crispEdges"/><rect fill="#15090f" x="244" y="123.5" width="12.2" height="24.65" shape-rendering="crispEdges"/><rect fill="#15090f" x="256.2" y="123.5" width="12.2" height="24.65" shape-rendering="crispEdges"/><rect fill="#15090f" x="268.4" y="123.5" width="244" height="24.65" shape-rendering="crispEdges"/><rect fill="#15090f" x="512.4" y="123.5" width="12.2" height="24.65" shape-rendering="crispEdges"/><rect fill="#15090f" x="524.6" y="123.5" width="12.2" height="24.65" shape-rendering="crispEdges"/><rect fill="#15090f" x="536.8" y="123.5" width="61" height="24.65" shape-rendering="crispEdges"/><rect fill="#15090f" x="597.8" y="123.5" width="12.2" height="24.65" shape-rendering="crispEdges"/><rect fill="#15090f" x="610" y="123.5" width="12.2" height="24.65" shape-rendering="crispEdges"/><rect fill="#15090f" x="622.2" y="123.5" width="475.8" height="24.65" shape-rendering="crispEdges"/><rect fill="#15090f" x="1098" y="123.5" width="12.2" height="24.65" shape-rendering="crispEdges"/><rect fill="#15090f" x="1110.2" y="123.5" width="12.2" height="24.65" shape-rendering="crispEdges"/><rect fill="#15090f" x="0" y="147.9" width="12.2" height="24.65" shape-rendering="crispEdges"/><rect fill="#15090f" x="12.2" y="147.9" width="12.2" height="24.65" shape-rendering="crispEdges"/><rect fill="#15090f" x="24.4" y="147.9" width="219.6" height="24.65" shape-rendering="crispEdges"/><rect fill="#15090f" x="244" y="147.9" width="12.2" height="24.65" shape-rendering="crispEdges"/><rect fill="#15090f" x="256.2" y="147.9" width="12.2" height="24.65" shape-rendering="crispEdges"/><rect fill="#15090f" x="268.4" y="147.9" width="244" height="24.65" shape-rendering="crispEdges"/><rect fill="#15090f" x="512.4" y="147.9" width="12.2" height="24.65" shape-rendering="crispEdges"/><rect fill="#15090f" x="524.6" y="147.9" width="12.2" height="24.65" shape-rendering="crispEdges"/><rect fill="#15090f" x="536.8" y="147.9" width="61" height="24.65" shape-rendering="crispEdges"/><rect fill="#15090f" x="597.8" y="147.9" width="12.2" height="24.65" shape-rendering="crispEdges"/><rect fill="#15090f" x="610" y="147.9" width="12.2" height="24.65" shape-rendering="crispEdges"/><rect fill="#15090f" x="622.2" y="147.9" width="475.8" height="24.65" shape-rendering="crispEdges"/><rect fill="#15090f" x="1098" y="147.9" width="12.2" height="24.65" shape-rendering="crispEdges"/><rect fill="#15090f" x="1110.2" y="147.9" width="12.2" height="24.65" shape-rendering="crispEdges"/><rect fill="#15090f" x="0" y="172.3" width="12.2" height="24.65" shape-rendering="crispEdges"/><rect fill="#15090f" x="12.2" y="172.3" width="12.2" height="24.65" shape-rendering="crispEdges"/><rect fill="#15090f" x="24.4" y="172.3" width="219.6" height="24.65" shape-rendering="crispEdges"/><rect fill="#15090f" x="244" y="172.3" width="12.2" height="24.65" shape-rendering="crispEdges"/><rect fill="#15090f" x="256.2" y="172.3" width="12.2" height="24.65" shape-rendering="crispEdges"/><rect fill="#15090f" x="268.4" y="172.3" width="244" height="24.65" shape-rendering="crispEdges"/><rect fill="#15090f" x="512.4" y="172.3" width="12.2" height="24.65" shape-rendering="crispEdges"/><rect fill="#15090f" x="524.6" y="172.3" width="12.2" height="24.65" shape-rendering="crispEdges"/><rect fill="#15090f" x="536.8" y="172.3" width="61" height="24.65" shape-rendering="crispEdges"/><rect fill="#15090f" x="597.8" y="172.3" width="12.2" height="24.65" shape-rendering="crispEdges"/><rect fill="#15090f" x="610" y="172.3" width="12.2" height="24.65" shape-rendering="crispEdges"/><rect fill="#15090f" x="622.2" y="172.3" width="475.8" height="24.65" shape-rendering="crispEdges"/><rect fill="#15090f" x="1098" y="172.3" width="12.2" height="24.65" shape-rendering="crispEdges"/><rect fill="#15090f" x="1110.2" y="172.3" width="12.2" height="24.65" shape-rendering="crispEdges"/><rect fill="#15090f" x="0" y="196.7" width="12.2" height="24.65" shape-rendering="crispEdges"/><rect fill="#15090f" x="12.2" y="196.7" width="12.2" height="24.65" shape-rendering="crispEdges"/><rect fill="#15090f" x="24.4" y="196.7" width="219.6" height="24.65" shape-rendering="crispEdges"/><rect fill="#15090f" x="244" y="196.7" width="12.2" height="24.65" shape-rendering="crispEdges"/><rect fill="#15090f" x="256.2" y="196.7" width="12.2" height="24.65" shape-rendering="crispEdges"/><rect fill="#15090f" x="268.4" y="196.7" width="244" height="24.65" shape-rendering="crispEdges"/><rect fill="#15090f" x="512.4" y="196.7" width="12.2" height="24.65" shape-rendering="crispEdges"/><rect fill="#15090f" x="524.6" y="196.7" width="12.2" height="24.65" shape-rendering="crispEdges"/><rect fill="#15090f" x="536.8" y="196.7" width="61" height="24.65" shape-rendering="crispEdges"/><rect fill="#15090f" x="597.8" y="196.7" width="12.2" height="24.65" shape-rendering="crispEdges"/><rect fill="#15090f" x="610" y="196.7" width="12.2" height="24.65" shape-rendering="crispEdges"/><rect fill="#15090f" x="622.2" y="196.7" width="475.8" height="24.65" shape-rendering="crispEdges"/><rect fill="#15090f" x="1098" y="196.7" width="12.2" height="24.65" shape-rendering="crispEdges"/><rect fill="#15090f" x="1110.2" y="196.7" width="12.2" height="24.65" shape-rendering="crispEdges"/><rect fill="#15090f" x="0" y="221.1" width="12.2" height="24.65" shape-rendering="crispEdges"/><rect fill="#15090f" x="12.2" y="221.1" width="12.2" height="24.65" shape-rendering="crispEdges"/><rect fill="#15090f" x="24.4" y="221.1" width="219.6" height="24.65" shape-rendering="crispEdges"/><rect fill="#15090f" x="244" y="221.1" width="12.2" height="24.65" shape-rendering="crispEdges"/><rect fill="#15090f" x="256.2" y="221.1" width="12.2" height="24.65" shape-rendering="crispEdges"/><rect fill="#15090f" x="268.4" y="221.1" width="244" height="24.65" shape-rendering="crispEdges"/><rect fill="#15090f" x="512.4" y="221.1" width="12.2" height="24.65" shape-rendering="crispEdges"/><rect fill="#15090f" x="524.6" y="221.1" width="12.2" height="24.65" shape-rendering="crispEdges"/><rect fill="#15090f" x="536.8" y="221.1" width="61" height="24.65" shape-rendering="crispEdges"/><rect fill="#15090f" x="597.8" y="221.1" width="12.2" height="24.65" shape-rendering="crispEdges"/><rect fill="#15090f" x="610" y="221.1" width="12.2" height="24.65" shape-rendering="crispEdges"/><rect fill="#15090f" x="622.2" y="221.1" width="475.8" height="24.65" shape-rendering="crispEdges"/><rect fill="#15090f" x="1098" y="221.1" width="12.2" height="24.65" shape-rendering="crispEdges"/><rect fill="#15090f" x="1110.2" y="221.1" width="12.2" height="24.65" shape-rendering="crispEdges"/><rect fill="#15090f" x="0" y="245.5" width="12.2" height="24.65" shape-rendering="crispEdges"/><rect fill="#15090f" x="12.2" y="245.5" width="12.2" height="24.65" shape-rendering="crispEdges"/><rect fill="#15090f" x="24.4" y="245.5" width="219.6" height="24.65" shape-rendering="crispEdges"/><rect fill="#15090f" x="244" y="245.5" width="12.2" height="24.65" shape-rendering="crispEdges"/><rect fill="#15090f" x="256.2" y="245.5" width="12.2" height="24.65" shape-rendering="crispEdges"/><rect fill="#15090f" x="268.4" y="245.5" width="244" height="24.65" shape-rendering="crispEdges"/><rect fill="#15090f" x="512.4" y="245.5" width="12.2" height="24.65" shape-rendering="crispEdges"/><rect fill="#15090f" x="524.6" y="245.5" width="12.2" height="24.65" shape-rendering="crispEdges"/><rect fill="#15090f" x="536.8" y="245.5" width="61" height="24.65" shape-rendering="crispEdges"/><rect fill="#15090f" x="597.8" y="245.5" width="12.2" height="24.65" shape-rendering="crispEdges"/><rect fill="#15090f" x="610" y="245.5" width="12.2" height="24.65" shape-rendering="crispEdges"/><rect fill="#15090f" x="622.2" y="245.5" width="475.8" height="24.65" shape-rendering="crispEdges"/><rect fill="#15090f" x="1098" y="245.5" width="12.2" height="24.65" shape-rendering="crispEdges"/><rect fill="#15090f" x="1110.2" y="245.5" width="12.2" height="24.65" shape-rendering="crispEdges"/><rect fill="#15090f" x="0" y="269.9" width="12.2" height="24.65" shape-rendering="crispEdges"/><rect fill="#15090f" x="12.2" y="269.9" width="12.2" height="24.65" shape-rendering="crispEdges"/><rect fill="#15090f" x="24.4" y="269.9" width="219.6" height="24.65" shape-rendering="crispEdges"/><rect fill="#15090f" x="244" y="269.9" width="12.2" height="24.65" shape-rendering="crispEdges"/><rect fill="#15090f" x="256.2" y="269.9" width="12.2" height="24.65" shape-rendering="crispEdges"/><rect fill="#15090f" x="268.4" y="269.9" width="244" height="24.65" shape-rendering="crispEdges"/><rect fill="#15090f" x="512.4" y="269.9" width="12.2" height="24.65" shape-rendering="crispEdges"/><rect fill="#15090f" x="524.6" y="269.9" width="12.2" height="24.65" shape-rendering="crispEdges"/><rect fill="#15090f" x="536.8" y="269.9" width="61" height="24.65" shape-rendering="crispEdges"/><rect fill="#15090f" x="597.8" y="269.9" width="12.2" height="24.65" shape-rendering="crispEdges"/><rect fill="#15090f" x="610" y="269.9" width="12.2" height="24.65" shape-rendering="crispEdges"/><rect fill="#15090f" x="622.2" y="269.9" width="475.8" height="24.65" shape-rendering="crispEdges"/><rect fill="#15090f" x="1098" y="269.9" width="12.2" height="24.65" shape-rendering="crispEdges"/><rect fill="#15090f" x="1110.2" y="269.9" width="12.2" height="24.65" shape-rendering="crispEdges"/><rect fill="#15090f" x="0" y="294.3" width="12.2" height="24.65" shape-rendering="crispEdges"/><rect fill="#15090f" x="12.2" y="294.3" width="12.2" height="24.65" shape-rendering="crispEdges"/><rect fill="#15090f" x="24.4" y="294.3" width="707.6" height="24.65" shape-rendering="crispEdges"/><rect fill="#15090f" x="732" y="294.3" width="366" height="24.65" shape-rendering="crispEdges"/><rect fill="#15090f" x="1098" y="294.3" width="12.2" height="24.65" shape-rendering="crispEdges"/><rect fill="#15090f" x="1110.2" y="294.3" width="12.2" height="24.65" shape-rendering="crispEdges"/><rect fill="#15090f" x="0" y="318.7" width="12.2" height="24.65" shape-rendering="crispEdges"/><rect fill="#15090f" x="12.2" y="318.7" width="12.2" height="24.65" shape-rendering="crispEdges"/><rect fill="#15090f" x="24.4" y="318.7" width="1073.6" height="24.65" shape-rendering="crispEdges"/><rect fill="#15090f" x="1098" y="318.7" width="12.2" height="24.65" shape-rendering="crispEdges"/><rect fill="#15090f" x="1110.2" y="318.7" width="12.2" height="24.65" shape-rendering="crispEdges"/><rect fill="#15090f" x="0" y="343.1" width="12.2" height="24.65" shape-rendering="crispEdges"/><rect fill="#15090f" x="12.2" y="343.1" width="12.2" height="24.65" shape-rendering="crispEdges"/><rect fill="#15090f" x="24.4" y="343.1" width="463.6" height="24.65" shape-rendering="crispEdges"/><rect fill="#15090f" x="488" y="343.1" width="610" height="24.65" shape-rendering="crispEdges"/><rect fill="#15090f" x="1098" y="343.1" width="12.2" height="24.65" shape-rendering="crispEdges"/><rect fill="#15090f" x="1110.2" y="343.1" width="12.2" height="24.65" shape-rendering="crispEdges"/><rect fill="#15090f" x="0" y="367.5" width="1122.4" height="24.65" shape-rendering="crispEdges"/>
    <g class="terminal-1699499130-matrix">
    <text class="terminal-1699499130-r1" x="0" y="20" textLength="24.4" clip-path="url(#terminal-1699499130-line-0)">╭─</text><text class="terminal-1699499130-r2" x="24.4" y="20" textLength="256.2" clip-path="url(#terminal-1699499130-line-0)">&#160;CVE&#160;·&#160;OSV.dev&#160;(259)&#160;</text><text class="terminal-1699499130-r1" x="280.6" y="20" textLength="817.4" clip-path="url(#terminal-1699499130-line-0)">───────────────────────────────────────────────────────────────────</text><text class="terminal-1699499130-r1" x="1098" y="20" textLength="24.4" clip-path="url(#terminal-1699499130-line-0)">─╮</text><text class="terminal-1699499130-r3" x="1122.4" y="20" textLength="12.2" clip-path="url(#terminal-1699499130-line-0)">
</text><text class="terminal-1699499130-r1" x="0" y="44.4" textLength="12.2" clip-path="url(#terminal-1699499130-line-1)">│</text><text class="terminal-1699499130-r2" x="24.4" y="44.4" textLength="219.6" clip-path="url(#terminal-1699499130-line-1)">Paquete&#160;&#160;&#160;&#160;&#160;&#160;&#160;&#160;&#160;&#160;&#160;</text><text class="terminal-1699499130-r2" x="268.4" y="44.4" textLength="244" clip-path="url(#terminal-1699499130-line-1)">Versión&#160;&#160;&#160;&#160;&#160;&#160;&#160;&#160;&#160;&#160;&#160;&#160;&#160;</text><text class="terminal-1699499130-r2" x="536.8" y="44.4" textLength="61" clip-path="url(#terminal-1699499130-line-1)">Vulns</text><text class="terminal-1699499130-r2" x="622.2" y="44.4" textLength="475.8" clip-path="url(#terminal-1699499130-line-1)">CVEs&#160;&#160;&#160;&#160;&#160;&#160;&#160;&#160;&#160;&#160;&#160;&#160;&#160;&#160;&#160;&#160;&#160;&#160;&#160;&#160;&#160;&#160;&#160;&#160;&#160;&#160;&#160;&#160;&#160;&#160;&#160;&#160;&#160;&#160;&#160;</text><text class="terminal-1699499130-r1" x="1110.2" y="44.4" textLength="12.2" clip-path="url(#terminal-1699499130-line-1)">│</text><text class="terminal-1699499130-r3" x="1122.4" y="44.4" textLength="12.2" clip-path="url(#terminal-1699499130-line-1)">
</text><text class="terminal-1699499130-r1" x="0" y="68.8" textLength="12.2" clip-path="url(#terminal-1699499130-line-2)">│</text><text class="terminal-1699499130-r4" x="24.4" y="68.8" textLength="219.6" clip-path="url(#terminal-1699499130-line-2)">binutils&#160;&#160;&#160;&#160;&#160;&#160;&#160;&#160;&#160;&#160;</text><text class="terminal-1699499130-r5" x="268.4" y="68.8" textLength="244" clip-path="url(#terminal-1699499130-line-2)">2.42-4ubuntu2.10&#160;&#160;&#160;&#160;</text><text class="terminal-1699499130-r6" x="536.8" y="68.8" textLength="61" clip-path="url(#terminal-1699499130-line-2)">&#160;&#160;&#160;25</text><text class="terminal-1699499130-r7" x="622.2" y="68.8" textLength="475.8" clip-path="url(#terminal-1699499130-line-2)">CVE-2017-13716,&#160;CVE-2025-1149,&#160;+23&#160;&#160;&#160;&#160;&#160;</text><text class="terminal-1699499130-r1" x="1110.2" y="68.8" textLength="12.2" clip-path="url(#terminal-1699499130-line-2)">│</text><text class="terminal-1699499130-r3" x="1122.4" y="68.8" textLength="12.2" clip-path="url(#terminal-1699499130-line-2)">
</text><text class="terminal-1699499130-r1" x="0" y="93.2" textLength="12.2" clip-path="url(#terminal-1699499130-line-3)">│</text><text class="terminal-1699499130-r4" x="24.4" y="93.2" textLength="219.6" clip-path="url(#terminal-1699499130-line-3)">node-undici&#160;&#160;&#160;&#160;&#160;&#160;&#160;</text><text class="terminal-1699499130-r5" x="268.4" y="93.2" textLength="244" clip-path="url(#terminal-1699499130-line-3)">5.26.3+dfsg1+~cs23.…</text><text class="terminal-1699499130-r6" x="536.8" y="93.2" textLength="61" clip-path="url(#terminal-1699499130-line-3)">&#160;&#160;&#160;25</text><text class="terminal-1699499130-r7" x="622.2" y="93.2" textLength="475.8" clip-path="url(#terminal-1699499130-line-3)">CVE-2022-31150,&#160;CVE-2022-31151,&#160;+23&#160;&#160;&#160;&#160;</text><text class="terminal-1699499130-r1" x="1110.2" y="93.2" textLength="12.2" clip-path="url(#terminal-1699499130-line-3)">│</text><text class="terminal-1699499130-r3" x="1122.4" y="93.2" textLength="12.2" clip-path="url(#terminal-1699499130-line-3)">
</text><text class="terminal-1699499130-r1" x="0" y="117.6" textLength="12.2" clip-path="url(#terminal-1699499130-line-4)">│</text><text class="terminal-1699499130-r4" x="24.4" y="117.6" textLength="219.6" clip-path="url(#terminal-1699499130-line-4)">nodejs&#160;&#160;&#160;&#160;&#160;&#160;&#160;&#160;&#160;&#160;&#160;&#160;</text><text class="terminal-1699499130-r5" x="268.4" y="117.6" textLength="244" clip-path="url(#terminal-1699499130-line-4)">18.19.1+dfsg-6ubunt…</text><text class="terminal-1699499130-r6" x="536.8" y="117.6" textLength="61" clip-path="url(#terminal-1699499130-line-4)">&#160;&#160;&#160;24</text><text class="terminal-1699499130-r7" x="622.2" y="117.6" textLength="475.8" clip-path="url(#terminal-1699499130-line-4)">CVE-2021-44534,&#160;CVE-2024-22018,&#160;+22&#160;&#160;&#160;&#160;</text><text class="terminal-1699499130-r1" x="1110.2" y="117.6" textLength="12.2" clip-path="url(#terminal-1699499130-line-4)">│</text><text class="terminal-1699499130-r3" x="1122.4" y="117.6" textLength="12.2" clip-path="url(#terminal-1699499130-line-4)">
</text><text class="terminal-1699499130-r1" x="0" y="142" textLength="12.2" clip-path="url(#terminal-1699499130-line-5)">│</text><text class="terminal-1699499130-r4" x="24.4" y="142" textLength="219.6" clip-path="url(#terminal-1699499130-line-5)">python3.12&#160;&#160;&#160;&#160;&#160;&#160;&#160;&#160;</text><text class="terminal-1699499130-r5" x="268.4" y="142" textLength="244" clip-path="url(#terminal-1699499130-line-5)">3.12.3-1ubuntu0.13&#160;&#160;</text><text class="terminal-1699499130-r6" x="536.8" y="142" textLength="61" clip-path="url(#terminal-1699499130-line-5)">&#160;&#160;&#160;23</text><text class="terminal-1699499130-r7" x="622.2" y="142" textLength="475.8" clip-path="url(#terminal-1699499130-line-5)">CVE-2025-12781,&#160;CVE-2025-13462,&#160;+21&#160;&#160;&#160;&#160;</text><text class="terminal-1699499130-r1" x="1110.2" y="142" textLength="12.2" clip-path="url(#terminal-1699499130-line-5)">│</text><text class="terminal-1699499130-r3" x="1122.4" y="142" textLength="12.2" clip-path="url(#terminal-1699499130-line-5)">
</text><text class="terminal-1699499130-r1" x="0" y="166.4" textLength="12.2" clip-path="url(#terminal-1699499130-line-6)">│</text><text class="terminal-1699499130-r4" x="24.4" y="166.4" textLength="219.6" clip-path="url(#terminal-1699499130-line-6)">snapd&#160;&#160;&#160;&#160;&#160;&#160;&#160;&#160;&#160;&#160;&#160;&#160;&#160;</text><text class="terminal-1699499130-r5" x="268.4" y="166.4" textLength="244" clip-path="url(#terminal-1699499130-line-6)">2.73+ubuntu24.04.2&#160;&#160;</text><text class="terminal-1699499130-r6" x="536.8" y="166.4" textLength="61" clip-path="url(#terminal-1699499130-line-6)">&#160;&#160;&#160;19</text><text class="terminal-1699499130-r7" x="622.2" y="166.4" textLength="475.8" clip-path="url(#terminal-1699499130-line-6)">CVE-2017-3204,&#160;CVE-2019-11840,&#160;+17&#160;&#160;&#160;&#160;&#160;</text><text class="terminal-1699499130-r1" x="1110.2" y="166.4" textLength="12.2" clip-path="url(#terminal-1699499130-line-6)">│</text><text class="terminal-1699499130-r3" x="1122.4" y="166.4" textLength="12.2" clip-path="url(#terminal-1699499130-line-6)">
</text><text class="terminal-1699499130-r1" x="0" y="190.8" textLength="12.2" clip-path="url(#terminal-1699499130-line-7)">│</text><text class="terminal-1699499130-r4" x="24.4" y="190.8" textLength="219.6" clip-path="url(#terminal-1699499130-line-7)">apache2&#160;&#160;&#160;&#160;&#160;&#160;&#160;&#160;&#160;&#160;&#160;</text><text class="terminal-1699499130-r5" x="268.4" y="190.8" textLength="244" clip-path="url(#terminal-1699499130-line-7)">2.4.58-1ubuntu8.13&#160;&#160;</text><text class="terminal-1699499130-r6" x="536.8" y="190.8" textLength="61" clip-path="url(#terminal-1699499130-line-7)">&#160;&#160;&#160;12</text><text class="terminal-1699499130-r7" x="622.2" y="190.8" textLength="475.8" clip-path="url(#terminal-1699499130-line-7)">CVE-2026-29167,&#160;CVE-2026-29170,&#160;+10&#160;&#160;&#160;&#160;</text><text class="terminal-1699499130-r1" x="1110.2" y="190.8" textLength="12.2" clip-path="url(#terminal-1699499130-line-7)">│</text><text class="terminal-1699499130-r3" x="1122.4" y="190.8" textLength="12.2" clip-path="url(#terminal-1699499130-line-7)">
</text><text class="terminal-1699499130-r1" x="0" y="215.2" textLength="12.2" clip-path="url(#terminal-1699499130-line-8)">│</text><text class="terminal-1699499130-r4" x="24.4" y="215.2" textLength="219.6" clip-path="url(#terminal-1699499130-line-8)">jq&#160;&#160;&#160;&#160;&#160;&#160;&#160;&#160;&#160;&#160;&#160;&#160;&#160;&#160;&#160;&#160;</text><text class="terminal-1699499130-r5" x="268.4" y="215.2" textLength="244" clip-path="url(#terminal-1699499130-line-8)">1.7.1-3ubuntu0.24.0…</text><text class="terminal-1699499130-r6" x="536.8" y="215.2" textLength="61" clip-path="url(#terminal-1699499130-line-8)">&#160;&#160;&#160;10</text><text class="terminal-1699499130-r7" x="622.2" y="215.2" textLength="475.8" clip-path="url(#terminal-1699499130-line-8)">CVE-2025-9403,&#160;CVE-2026-40612,&#160;+8&#160;&#160;&#160;&#160;&#160;&#160;</text><text class="terminal-1699499130-r1" x="1110.2" y="215.2" textLength="12.2" clip-path="url(#terminal-1699499130-line-8)">│</text><text class="terminal-1699499130-r3" x="1122.4" y="215.2" textLength="12.2" clip-path="url(#terminal-1699499130-line-8)">
</text><text class="terminal-1699499130-r1" x="0" y="239.6" textLength="12.2" clip-path="url(#terminal-1699499130-line-9)">│</text><text class="terminal-1699499130-r4" x="24.4" y="239.6" textLength="219.6" clip-path="url(#terminal-1699499130-line-9)">node-tar&#160;&#160;&#160;&#160;&#160;&#160;&#160;&#160;&#160;&#160;</text><text class="terminal-1699499130-r5" x="268.4" y="239.6" textLength="244" clip-path="url(#terminal-1699499130-line-9)">6.1.13+~cs7.0.5-3&#160;&#160;&#160;</text><text class="terminal-1699499130-r6" x="536.8" y="239.6" textLength="61" clip-path="url(#terminal-1699499130-line-9)">&#160;&#160;&#160;10</text><text class="terminal-1699499130-r7" x="622.2" y="239.6" textLength="475.8" clip-path="url(#terminal-1699499130-line-9)">CVE-2021-32804,&#160;CVE-2021-37712,&#160;+8&#160;&#160;&#160;&#160;&#160;</text><text class="terminal-1699499130-r1" x="1110.2" y="239.6" textLength="12.2" clip-path="url(#terminal-1699499130-line-9)">│</text><text class="terminal-1699499130-r3" x="1122.4" y="239.6" textLength="12.2" clip-path="url(#terminal-1699499130-line-9)">
</text><text class="terminal-1699499130-r1" x="0" y="264" textLength="12.2" clip-path="url(#terminal-1699499130-line-10)">│</text><text class="terminal-1699499130-r4" x="24.4" y="264" textLength="219.6" clip-path="url(#terminal-1699499130-line-10)">perl&#160;&#160;&#160;&#160;&#160;&#160;&#160;&#160;&#160;&#160;&#160;&#160;&#160;&#160;</text><text class="terminal-1699499130-r5" x="268.4" y="264" textLength="244" clip-path="url(#terminal-1699499130-line-10)">5.38.2-3.2ubuntu0.2&#160;</text><text class="terminal-1699499130-r8" x="536.8" y="264" textLength="61" clip-path="url(#terminal-1699499130-line-10)">&#160;&#160;&#160;&#160;9</text><text class="terminal-1699499130-r7" x="622.2" y="264" textLength="475.8" clip-path="url(#terminal-1699499130-line-10)">CVE-2025-15649,&#160;CVE-2026-12087,&#160;+7&#160;&#160;&#160;&#160;&#160;</text><text class="terminal-1699499130-r1" x="1110.2" y="264" textLength="12.2" clip-path="url(#terminal-1699499130-line-10)">│</text><text class="terminal-1699499130-r3" x="1122.4" y="264" textLength="12.2" clip-path="url(#terminal-1699499130-line-10)">
</text><text class="terminal-1699499130-r1" x="0" y="288.4" textLength="12.2" clip-path="url(#terminal-1699499130-line-11)">│</text><text class="terminal-1699499130-r4" x="24.4" y="288.4" textLength="219.6" clip-path="url(#terminal-1699499130-line-11)">npm&#160;&#160;&#160;&#160;&#160;&#160;&#160;&#160;&#160;&#160;&#160;&#160;&#160;&#160;&#160;</text><text class="terminal-1699499130-r5" x="268.4" y="288.4" textLength="244" clip-path="url(#terminal-1699499130-line-11)">9.2.0~ds1-2&#160;&#160;&#160;&#160;&#160;&#160;&#160;&#160;&#160;</text><text class="terminal-1699499130-r8" x="536.8" y="288.4" textLength="61" clip-path="url(#terminal-1699499130-line-11)">&#160;&#160;&#160;&#160;8</text><text class="terminal-1699499130-r7" x="622.2" y="288.4" textLength="475.8" clip-path="url(#terminal-1699499130-line-11)">CVE-2017-20162,&#160;CVE-2019-16775,&#160;+6&#160;&#160;&#160;&#160;&#160;</text><text class="terminal-1699499130-r1" x="1110.2" y="288.4" textLength="12.2" clip-path="url(#terminal-1699499130-line-11)">│</text><text class="terminal-1699499130-r3" x="1122.4" y="288.4" textLength="12.2" clip-path="url(#terminal-1699499130-line-11)">
</text><text class="terminal-1699499130-r1" x="0" y="312.8" textLength="12.2" clip-path="url(#terminal-1699499130-line-12)">│</text><text class="terminal-1699499130-r8" x="24.4" y="312.8" textLength="707.6" clip-path="url(#terminal-1699499130-line-12)">…&#160;+48&#160;paquetes&#160;más&#160;&#160;·&#160;&#160;usa&#160;--json&#160;para&#160;el&#160;listado&#160;completo</text><text class="terminal-1699499130-r1" x="1110.2" y="312.8" textLength="12.2" clip-path="url(#terminal-1699499130-line-12)">│</text><text class="terminal-1699499130-r3" x="1122.4" y="312.8" textLength="12.2" clip-path="url(#terminal-1699499130-line-12)">
</text><text class="terminal-1699499130-r1" x="0" y="337.2" textLength="12.2" clip-path="url(#terminal-1699499130-line-13)">│</text><text class="terminal-1699499130-r5" x="24.4" y="337.2" textLength="1073.6" clip-path="url(#terminal-1699499130-line-13)">ecosistema&#160;Ubuntu&#160;·&#160;1148&#160;paquetes&#160;·&#160;259&#160;vulns&#160;en&#160;58&#160;paquetes&#160;&#160;·&#160;&#160;según&#160;OSV.dev&#160;(el&#160;match</text><text class="terminal-1699499130-r1" x="1110.2" y="337.2" textLength="12.2" clip-path="url(#terminal-1699499130-line-13)">│</text><text class="terminal-1699499130-r3" x="1122.4" y="337.2" textLength="12.2" clip-path="url(#terminal-1699499130-line-13)">
</text><text class="terminal-1699499130-r1" x="0" y="361.6" textLength="12.2" clip-path="url(#terminal-1699499130-line-14)">│</text><text class="terminal-1699499130-r5" x="24.4" y="361.6" textLength="463.6" clip-path="url(#terminal-1699499130-line-14)">de&#160;versión&#160;puede&#160;dar&#160;falsos&#160;positivos)</text><text class="terminal-1699499130-r1" x="1110.2" y="361.6" textLength="12.2" clip-path="url(#terminal-1699499130-line-14)">│</text><text class="terminal-1699499130-r3" x="1122.4" y="361.6" textLength="12.2" clip-path="url(#terminal-1699499130-line-14)">
</text><text class="terminal-1699499130-r1" x="0" y="386" textLength="1122.4" clip-path="url(#terminal-1699499130-line-15)">╰──────────────────────────────────────────────────────────────────────────────────────────╯</text><text class="terminal-1699499130-r3" x="1122.4" y="386" textLength="12.2" clip-path="url(#terminal-1699499130-line-15)">
</text>
    </g>
    </g>
</svg>
