<svg xmlns="http://www.w3.org/2000/svg" class="rich-terminal" viewBox="0 0 1141 440.4"><style>@font-face{font-family:&quot;Fira Code&quot;;src:local(&quot;FiraCode-Regular&quot;),url(https://cdnjs.cloudflare.com/ajax/libs/firacode/6.2.0/woff2/FiraCode-Regular.woff2) format(&quot;woff2&quot;),url(https://cdnjs.cloudflare.com/ajax/libs/firacode/6.2.0/woff/FiraCode-Regular.woff) format(&quot;woff&quot;);font-style:normal;font-weight:400}@font-face{font-family:&quot;Fira Code&quot;;src:local(&quot;FiraCode-Bold&quot;),url(https://cdnjs.cloudflare.com/ajax/libs/firacode/6.2.0/woff2/FiraCode-Bold.woff2) format(&quot;woff2&quot;),url(https://cdnjs.cloudflare.com/ajax/libs/firacode/6.2.0/woff/FiraCode-Bold.woff) format(&quot;woff&quot;);font-style:bold;font-weight:700}.terminal-1699499130-matrix{font-family:Fira Code,monospace;font-size:20px;line-height:24.4px;font-variant-east-asian:full-width}.terminal-1699499130-title{font-size:18px;font-weight:700;font-family:arial}.terminal-1699499130-r1{fill:#ff3d94}.terminal-1699499130-r2{fill:#ff3d94;font-weight:700}.terminal-1699499130-r4{fill:#3dffd1;font-weight:700}.terminal-1699499130-r5{fill:#6b6b7b}.terminal-1699499130-r6{fill:#ff3d3d}.terminal-1699499130-r7{fill:#3dffd1}.terminal-1699499130-r8{fill:#ffcc3d}</style><defs><clipPath id="terminal-1699499130-clip-terminal"><rect width="1121.4" height="389.4" x="0" y="0"/></clipPath><clipPath id="terminal-1699499130-line-0"><rect width="1122.4" height="24.65" x="0" y="1.5"/></clipPath><clipPath id="terminal-1699499130-line-1"><rect width="1122.4" height="24.65" x="0" y="25.9"/></clipPath><clipPath id="terminal-1699499130-line-2"><rect width="1122.4" height="24.65" x="0" y="50.3"/></clipPath><clipPath id="terminal-1699499130-line-3"><rect width="1122.4" height="24.65" x="0" y="74.7"/></clipPath><clipPath id="terminal-1699499130-line-4"><rect width="1122.4" height="24.65" x="0" y="99.1"/></clipPath><clipPath id="terminal-1699499130-line-5"><rect width="1122.4" height="24.65" x="0" y="123.5"/></clipPath><clipPath id="terminal-1699499130-line-6"><rect width="1122.4" height="24.65" x="0" y="147.9"/></clipPath><clipPath id="terminal-1699499130-line-7"><rect width="1122.4" height="24.65" x="0" y="172.3"/></clipPath><clipPath id="terminal-1699499130-line-8"><rect width="1122.4" height="24.65" x="0" y="196.7"/></clipPath><clipPath id="terminal-1699499130-line-9"><rect width="1122.4" height="24.65" x="0" y="221.1"/></clipPath><clipPath id="terminal-1699499130-line-10"><rect width="1122.4" height="24.65" x="0" y="245.5"/></clipPath><clipPath id="terminal-1699499130-line-11"><rect width="1122.4" height="24.65" x="0" y="269.9"/></clipPath><clipPath id="terminal-1699499130-line-12"><rect width="1122.4" height="24.65" x="0" y="294.3"/></clipPath><clipPath id="terminal-1699499130-line-13"><rect width="1122.4" height="24.65" x="0" y="318.7"/></clipPath><clipPath id="terminal-1699499130-line-14"><rect width="1122.4" height="24.65" x="0" y="343.1"/></clipPath></defs><rect width="1139" height="438.4" x="1" y="1" fill="#292929" stroke="rgba(255,255,255,0.35)" stroke-width="1" rx="8"/><text x="569" y="27" fill="#c5c8c6" class="terminal-1699499130-title" text-anchor="middle">warden cve · OSV.dev</text><g transform="translate(26,22)"><circle cx="0" cy="0" r="7" fill="#ff5f57"/><circle cx="22" cy="0" r="7" fill="#febc2e"/><circle cx="44" cy="0" r="7" fill="#28c840"/></g><g clip-path="url(#terminal-1699499130-clip-terminal)" transform="translate(9, 41)"><rect width="24.4" height="24.65" x="0" y="1.5" fill="#15090f" shape-rendering="crispEdges"/><rect width="256.2" height="24.65" x="24.4" y="1.5" fill="#15090f" shape-rendering="crispEdges"/><rect width="817.4" height="24.65" x="280.6" y="1.5" fill="#15090f" shape-rendering="crispEdges"/><rect width="24.4" height="24.65" x="1098" y="1.5" fill="#15090f" shape-rendering="crispEdges"/><rect width="12.2" height="24.65" x="0" y="25.9" fill="#15090f" shape-rendering="crispEdges"/><rect width="12.2" height="24.65" x="12.2" y="25.9" fill="#15090f" shape-rendering="crispEdges"/><rect width="219.6" height="24.65" x="24.4" y="25.9" fill="#15090f" shape-rendering="crispEdges"/><rect width="12.2" height="24.65" x="244" y="25.9" fill="#15090f" shape-rendering="crispEdges"/><rect width="12.2" height="24.65" x="256.2" y="25.9" fill="#15090f" shape-rendering="crispEdges"/><rect width="244" height="24.65" x="268.4" y="25.9" fill="#15090f" shape-rendering="crispEdges"/><rect width="12.2" height="24.65" x="512.4" y="25.9" fill="#15090f" shape-rendering="crispEdges"/><rect width="12.2" height="24.65" x="524.6" y="25.9" fill="#15090f" shape-rendering="crispEdges"/><rect width="61" height="24.65" x="536.8" y="25.9" fill="#15090f" shape-rendering="crispEdges"/><rect width="12.2" height="24.65" x="597.8" y="25.9" fill="#15090f" shape-rendering="crispEdges"/><rect width="12.2" height="24.65" x="610" y="25.9" fill="#15090f" shape-rendering="crispEdges"/><rect width="475.8" height="24.65" x="622.2" y="25.9" fill="#15090f" shape-rendering="crispEdges"/><rect width="12.2" height="24.65" x="1098" y="25.9" fill="#15090f" shape-rendering="crispEdges"/><rect width="12.2" height="24.65" x="1110.2" y="25.9" fill="#15090f" shape-rendering="crispEdges"/><rect width="12.2" height="24.65" x="0" y="50.3" fill="#15090f" shape-rendering="crispEdges"/><rect width="12.2" height="24.65" x="12.2" y="50.3" fill="#15090f" shape-rendering="crispEdges"/><rect width="219.6" height="24.65" x="24.4" y="50.3" fill="#15090f" shape-rendering="crispEdges"/><rect width="12.2" height="24.65" x="244" y="50.3" fill="#15090f" shape-rendering="crispEdges"/><rect width="12.2" height="24.65" x="256.2" y="50.3" fill="#15090f" shape-rendering="crispEdges"/><rect width="244" height="24.65" x="268.4" y="50.3" fill="#15090f" shape-rendering="crispEdges"/><rect width="12.2" height="24.65" x="512.4" y="50.3" fill="#15090f" shape-rendering="crispEdges"/><rect width="12.2" height="24.65" x="524.6" y="50.3" fill="#15090f" shape-rendering="crispEdges"/><rect width="61" height="24.65" x="536.8" y="50.3" fill="#15090f" shape-rendering="crispEdges"/><rect width="12.2" height="24.65" x="597.8" y="50.3" fill="#15090f" shape-rendering="crispEdges"/><rect width="12.2" height="24.65" x="610" y="50.3" fill="#15090f" shape-rendering="crispEdges"/><rect width="475.8" height="24.65" x="622.2" y="50.3" fill="#15090f" shape-rendering="crispEdges"/><rect width="12.2" height="24.65" x="1098" y="50.3" fill="#15090f" shape-rendering="crispEdges"/><rect width="12.2" height="24.65" x="1110.2" y="50.3" fill="#15090f" shape-rendering="crispEdges"/><rect width="12.2" height="24.65" x="0" y="74.7" fill="#15090f" shape-rendering="crispEdges"/><rect width="12.2" height="24.65" x="12.2" y="74.7" fill="#15090f" shape-rendering="crispEdges"/><rect width="219.6" height="24.65" x="24.4" y="74.7" fill="#15090f" shape-rendering="crispEdges"/><rect width="12.2" height="24.65" x="244" y="74.7" fill="#15090f" shape-rendering="crispEdges"/><rect width="12.2" height="24.65" x="256.2" y="74.7" fill="#15090f" shape-rendering="crispEdges"/><rect width="244" height="24.65" x="268.4" y="74.7" fill="#15090f" shape-rendering="crispEdges"/><rect width="12.2" height="24.65" x="512.4" y="74.7" fill="#15090f" shape-rendering="crispEdges"/><rect width="12.2" height="24.65" x="524.6" y="74.7" fill="#15090f" shape-rendering="crispEdges"/><rect width="61" height="24.65" x="536.8" y="74.7" fill="#15090f" shape-rendering="crispEdges"/><rect width="12.2" height="24.65" x="597.8" y="74.7" fill="#15090f" shape-rendering="crispEdges"/><rect width="12.2" height="24.65" x="610" y="74.7" fill="#15090f" shape-rendering="crispEdges"/><rect width="475.8" height="24.65" x="622.2" y="74.7" fill="#15090f" shape-rendering="crispEdges"/><rect width="12.2" height="24.65" x="1098" y="74.7" fill="#15090f" shape-rendering="crispEdges"/><rect width="12.2" height="24.65" x="1110.2" y="74.7" fill="#15090f" shape-rendering="crispEdges"/><rect width="12.2" height="24.65" x="0" y="99.1" fill="#15090f" shape-rendering="crispEdges"/><rect width="12.2" height="24.65" x="12.2" y="99.1" fill="#15090f" shape-rendering="crispEdges"/><rect width="219.6" height="24.65" x="24.4" y="99.1" fill="#15090f" shape-rendering="crispEdges"/><rect width="12.2" height="24.65" x="244" y="99.1" fill="#15090f" shape-rendering="crispEdges"/><rect width="12.2" height="24.65" x="256.2" y="99.1" fill="#15090f" shape-rendering="crispEdges"/><rect width="244" height="24.65" x="268.4" y="99.1" fill="#15090f" shape-rendering="crispEdges"/><rect width="12.2" height="24.65" x="512.4" y="99.1" fill="#15090f" shape-rendering="crispEdges"/><rect width="12.2" height="24.65" x="524.6" y="99.1" fill="#15090f" shape-rendering="crispEdges"/><rect width="61" height="24.65" x="536.8" y="99.1" fill="#15090f" shape-rendering="crispEdges"/><rect width="12.2" height="24.65" x="597.8" y="99.1" fill="#15090f" shape-rendering="crispEdges"/><rect width="12.2" height="24.65" x="610" y="99.1" fill="#15090f" shape-rendering="crispEdges"/><rect width="475.8" height="24.65" x="622.2" y="99.1" fill="#15090f" shape-rendering="crispEdges"/><rect width="12.2" height="24.65" x="1098" y="99.1" fill="#15090f" shape-rendering="crispEdges"/><rect width="12.2" height="24.65" x="1110.2" y="99.1" fill="#15090f" shape-rendering="crispEdges"/><rect width="12.2" height="24.65" x="0" y="123.5" fill="#15090f" shape-rendering="crispEdges"/><rect width="12.2" height="24.65" x="12.2" y="123.5" fill="#15090f" shape-rendering="crispEdges"/><rect width="219.6" height="24.65" x="24.4" y="123.5" fill="#15090f" shape-rendering="crispEdges"/><rect width="12.2" height="24.65" x="244" y="123.5" fill="#15090f" shape-rendering="crispEdges"/><rect width="12.2" height="24.65" x="256.2" y="123.5" fill="#15090f" shape-rendering="crispEdges"/><rect width="244" height="24.65" x="268.4" y="123.5" fill="#15090f" shape-rendering="crispEdges"/><rect width="12.2" height="24.65" x="512.4" y="123.5" fill="#15090f" shape-rendering="crispEdges"/><rect width="12.2" height="24.65" x="524.6" y="123.5" fill="#15090f" shape-rendering="crispEdges"/><rect width="61" height="24.65" x="536.8" y="123.5" fill="#15090f" shape-rendering="crispEdges"/><rect width="12.2" height="24.65" x="597.8" y="123.5" fill="#15090f" shape-rendering="crispEdges"/><rect width="12.2" height="24.65" x="610" y="123.5" fill="#15090f" shape-rendering="crispEdges"/><rect width="475.8" height="24.65" x="622.2" y="123.5" fill="#15090f" shape-rendering="crispEdges"/><rect width="12.2" height="24.65" x="1098" y="123.5" fill="#15090f" shape-rendering="crispEdges"/><rect width="12.2" height="24.65" x="1110.2" y="123.5" fill="#15090f" shape-rendering="crispEdges"/><rect width="12.2" height="24.65" x="0" y="147.9" fill="#15090f" shape-rendering="crispEdges"/><rect width="12.2" height="24.65" x="12.2" y="147.9" fill="#15090f" shape-rendering="crispEdges"/><rect width="219.6" height="24.65" x="24.4" y="147.9" fill="#15090f" shape-rendering="crispEdges"/><rect width="12.2" height="24.65" x="244" y="147.9" fill="#15090f" shape-rendering="crispEdges"/><rect width="12.2" height="24.65" x="256.2" y="147.9" fill="#15090f" shape-rendering="crispEdges"/><rect width="244" height="24.65" x="268.4" y="147.9" fill="#15090f" shape-rendering="crispEdges"/><rect width="12.2" height="24.65" x="512.4" y="147.9" fill="#15090f" shape-rendering="crispEdges"/><rect width="12.2" height="24.65" x="524.6" y="147.9" fill="#15090f" shape-rendering="crispEdges"/><rect width="61" height="24.65" x="536.8" y="147.9" fill="#15090f" shape-rendering="crispEdges"/><rect width="12.2" height="24.65" x="597.8" y="147.9" fill="#15090f" shape-rendering="crispEdges"/><rect width="12.2" height="24.65" x="610" y="147.9" fill="#15090f" shape-rendering="crispEdges"/><rect width="475.8" height="24.65" x="622.2" y="147.9" fill="#15090f" shape-rendering="crispEdges"/><rect width="12.2" height="24.65" x="1098" y="147.9" fill="#15090f" shape-rendering="crispEdges"/><rect width="12.2" height="24.65" x="1110.2" y="147.9" fill="#15090f" shape-rendering="crispEdges"/><rect width="12.2" height="24.65" x="0" y="172.3" fill="#15090f" shape-rendering="crispEdges"/><rect width="12.2" height="24.65" x="12.2" y="172.3" fill="#15090f" shape-rendering="crispEdges"/><rect width="219.6" height="24.65" x="24.4" y="172.3" fill="#15090f" shape-rendering="crispEdges"/><rect width="12.2" height="24.65" x="244" y="172.3" fill="#15090f" shape-rendering="crispEdges"/><rect width="12.2" height="24.65" x="256.2" y="172.3" fill="#15090f" shape-rendering="crispEdges"/><rect width="244" height="24.65" x="268.4" y="172.3" fill="#15090f" shape-rendering="crispEdges"/><rect width="12.2" height="24.65" x="512.4" y="172.3" fill="#15090f" shape-rendering="crispEdges"/><rect width="12.2" height="24.65" x="524.6" y="172.3" fill="#15090f" shape-rendering="crispEdges"/><rect width="61" height="24.65" x="536.8" y="172.3" fill="#15090f" shape-rendering="crispEdges"/><rect width="12.2" height="24.65" x="597.8" y="172.3" fill="#15090f" shape-rendering="crispEdges"/><rect width="12.2" height="24.65" x="610" y="172.3" fill="#15090f" shape-rendering="crispEdges"/><rect width="475.8" height="24.65" x="622.2" y="172.3" fill="#15090f" shape-rendering="crispEdges"/><rect width="12.2" height="24.65" x="1098" y="172.3" fill="#15090f" shape-rendering="crispEdges"/><rect width="12.2" height="24.65" x="1110.2" y="172.3" fill="#15090f" shape-rendering="crispEdges"/><rect width="12.2" height="24.65" x="0" y="196.7" fill="#15090f" shape-rendering="crispEdges"/><rect width="12.2" height="24.65" x="12.2" y="196.7" fill="#15090f" shape-rendering="crispEdges"/><rect width="219.6" height="24.65" x="24.4" y="196.7" fill="#15090f" shape-rendering="crispEdges"/><rect width="12.2" height="24.65" x="244" y="196.7" fill="#15090f" shape-rendering="crispEdges"/><rect width="12.2" height="24.65" x="256.2" y="196.7" fill="#15090f" shape-rendering="crispEdges"/><rect width="244" height="24.65" x="268.4" y="196.7" fill="#15090f" shape-rendering="crispEdges"/><rect width="12.2" height="24.65" x="512.4" y="196.7" fill="#15090f" shape-rendering="crispEdges"/><rect width="12.2" height="24.65" x="524.6" y="196.7" fill="#15090f" shape-rendering="crispEdges"/><rect width="61" height="24.65" x="536.8" y="196.7" fill="#15090f" shape-rendering="crispEdges"/><rect width="12.2" height="24.65" x="597.8" y="196.7" fill="#15090f" shape-rendering="crispEdges"/><rect width="12.2" height="24.65" x="610" y="196.7" fill="#15090f" shape-rendering="crispEdges"/><rect width="475.8" height="24.65" x="622.2" y="196.7" fill="#15090f" shape-rendering="crispEdges"/><rect width="12.2" height="24.65" x="1098" y="196.7" fill="#15090f" shape-rendering="crispEdges"/><rect width="12.2" height="24.65" x="1110.2" y="196.7" fill="#15090f" shape-rendering="crispEdges"/><rect width="12.2" height="24.65" x="0" y="221.1" fill="#15090f" shape-rendering="crispEdges"/><rect width="12.2" height="24.65" x="12.2" y="221.1" fill="#15090f" shape-rendering="crispEdges"/><rect width="219.6" height="24.65" x="24.4" y="221.1" fill="#15090f" shape-rendering="crispEdges"/><rect width="12.2" height="24.65" x="244" y="221.1" fill="#15090f" shape-rendering="crispEdges"/><rect width="12.2" height="24.65" x="256.2" y="221.1" fill="#15090f" shape-rendering="crispEdges"/><rect width="244" height="24.65" x="268.4" y="221.1" fill="#15090f" shape-rendering="crispEdges"/><rect width="12.2" height="24.65" x="512.4" y="221.1" fill="#15090f" shape-rendering="crispEdges"/><rect width="12.2" height="24.65" x="524.6" y="221.1" fill="#15090f" shape-rendering="crispEdges"/><rect width="61" height="24.65" x="536.8" y="221.1" fill="#15090f" shape-rendering="crispEdges"/><rect width="12.2" height="24.65" x="597.8" y="221.1" fill="#15090f" shape-rendering="crispEdges"/><rect width="12.2" height="24.65" x="610" y="221.1" fill="#15090f" shape-rendering="crispEdges"/><rect width="475.8" height="24.65" x="622.2" y="221.1" fill="#15090f" shape-rendering="crispEdges"/><rect width="12.2" height="24.65" x="1098" y="221.1" fill="#15090f" shape-rendering="crispEdges"/><rect width="12.2" height="24.65" x="1110.2" y="221.1" fill="#15090f" shape-rendering="crispEdges"/><rect width="12.2" height="24.65" x="0" y="245.5" fill="#15090f" shape-rendering="crispEdges"/><rect width="12.2" height="24.65" x="12.2" y="245.5" fill="#15090f" shape-rendering="crispEdges"/><rect width="219.6" height="24.65" x="24.4" y="245.5" fill="#15090f" shape-rendering="crispEdges"/><rect width="12.2" height="24.65" x="244" y="245.5" fill="#15090f" shape-rendering="crispEdges"/><rect width="12.2" height="24.65" x="256.2" y="245.5" fill="#15090f" shape-rendering="crispEdges"/><rect width="244" height="24.65" x="268.4" y="245.5" fill="#15090f" shape-rendering="crispEdges"/><rect width="12.2" height="24.65" x="512.4" y="245.5" fill="#15090f" shape-rendering="crispEdges"/><rect width="12.2" height="24.65" x="524.6" y="245.5" fill="#15090f" shape-rendering="crispEdges"/><rect width="61" height="24.65" x="536.8" y="245.5" fill="#15090f" shape-rendering="crispEdges"/><rect width="12.2" height="24.65" x="597.8" y="245.5" fill="#15090f" shape-rendering="crispEdges"/><rect width="12.2" height="24.65" x="610" y="245.5" fill="#15090f" shape-rendering="crispEdges"/><rect width="475.8" height="24.65" x="622.2" y="245.5" fill="#15090f" shape-rendering="crispEdges"/><rect width="12.2" height="24.65" x="1098" y="245.5" fill="#15090f" shape-rendering="crispEdges"/><rect width="12.2" height="24.65" x="1110.2" y="245.5" fill="#15090f" shape-rendering="crispEdges"/><rect width="12.2" height="24.65" x="0" y="269.9" fill="#15090f" shape-rendering="crispEdges"/><rect width="12.2" height="24.65" x="12.2" y="269.9" fill="#15090f" shape-rendering="crispEdges"/><rect width="219.6" height="24.65" x="24.4" y="269.9" fill="#15090f" shape-rendering="crispEdges"/><rect width="12.2" height="24.65" x="244" y="269.9" fill="#15090f" shape-rendering="crispEdges"/><rect width="12.2" height="24.65" x="256.2" y="269.9" fill="#15090f" shape-rendering="crispEdges"/><rect width="244" height="24.65" x="268.4" y="269.9" fill="#15090f" shape-rendering="crispEdges"/><rect width="12.2" height="24.65" x="512.4" y="269.9" fill="#15090f" shape-rendering="crispEdges"/><rect width="12.2" height="24.65" x="524.6" y="269.9" fill="#15090f" shape-rendering="crispEdges"/><rect width="61" height="24.65" x="536.8" y="269.9" fill="#15090f" shape-rendering="crispEdges"/><rect width="12.2" height="24.65" x="597.8" y="269.9" fill="#15090f" shape-rendering="crispEdges"/><rect width="12.2" height="24.65" x="610" y="269.9" fill="#15090f" shape-rendering="crispEdges"/><rect width="475.8" height="24.65" x="622.2" y="269.9" fill="#15090f" shape-rendering="crispEdges"/><rect width="12.2" height="24.65" x="1098" y="269.9" fill="#15090f" shape-rendering="crispEdges"/><rect width="12.2" height="24.65" x="1110.2" y="269.9" fill="#15090f" shape-rendering="crispEdges"/><rect width="12.2" height="24.65" x="0" y="294.3" fill="#15090f" shape-rendering="crispEdges"/><rect width="12.2" height="24.65" x="12.2" y="294.3" fill="#15090f" shape-rendering="crispEdges"/><rect width="707.6" height="24.65" x="24.4" y="294.3" fill="#15090f" shape-rendering="crispEdges"/><rect width="366" height="24.65" x="732" y="294.3" fill="#15090f" shape-rendering="crispEdges"/><rect width="12.2" height="24.65" x="1098" y="294.3" fill="#15090f" shape-rendering="crispEdges"/><rect width="12.2" height="24.65" x="1110.2" y="294.3" fill="#15090f" shape-rendering="crispEdges"/><rect width="12.2" height="24.65" x="0" y="318.7" fill="#15090f" shape-rendering="crispEdges"/><rect width="12.2" height="24.65" x="12.2" y="318.7" fill="#15090f" shape-rendering="crispEdges"/><rect width="1073.6" height="24.65" x="24.4" y="318.7" fill="#15090f" shape-rendering="crispEdges"/><rect width="12.2" height="24.65" x="1098" y="318.7" fill="#15090f" shape-rendering="crispEdges"/><rect width="12.2" height="24.65" x="1110.2" y="318.7" fill="#15090f" shape-rendering="crispEdges"/><rect width="12.2" height="24.65" x="0" y="343.1" fill="#15090f" shape-rendering="crispEdges"/><rect width="12.2" height="24.65" x="12.2" y="343.1" fill="#15090f" shape-rendering="crispEdges"/><rect width="463.6" height="24.65" x="24.4" y="343.1" fill="#15090f" shape-rendering="crispEdges"/><rect width="610" height="24.65" x="488" y="343.1" fill="#15090f" shape-rendering="crispEdges"/><rect width="12.2" height="24.65" x="1098" y="343.1" fill="#15090f" shape-rendering="crispEdges"/><rect width="12.2" height="24.65" x="1110.2" y="343.1" fill="#15090f" shape-rendering="crispEdges"/><rect width="1122.4" height="24.65" x="0" y="367.5" fill="#15090f" shape-rendering="crispEdges"/><g class="terminal-1699499130-matrix"><text x="0" y="20" class="terminal-1699499130-r1" clip-path="url(#terminal-1699499130-line-0)" textLength="24.4">╭─</text><text x="24.4" y="20" class="terminal-1699499130-r2" clip-path="url(#terminal-1699499130-line-0)" textLength="256.2">CVE · OSV.dev (259)</text><text x="280.6" y="20" class="terminal-1699499130-r1" clip-path="url(#terminal-1699499130-line-0)" textLength="817.4">───────────────────────────────────────────────────────────────────</text><text x="1098" y="20" class="terminal-1699499130-r1" clip-path="url(#terminal-1699499130-line-0)" textLength="24.4">─╮</text><text x="0" y="44.4" class="terminal-1699499130-r1" clip-path="url(#terminal-1699499130-line-1)" textLength="12.2">│</text><text x="24.4" y="44.4" class="terminal-1699499130-r2" clip-path="url(#terminal-1699499130-line-1)" textLength="219.6">Paquete</text><text x="268.4" y="44.4" class="terminal-1699499130-r2" clip-path="url(#terminal-1699499130-line-1)" textLength="244">Versión</text><text x="536.8" y="44.4" class="terminal-1699499130-r2" clip-path="url(#terminal-1699499130-line-1)" textLength="61">Vulns</text><text x="622.2" y="44.4" class="terminal-1699499130-r2" clip-path="url(#terminal-1699499130-line-1)" textLength="475.8">CVEs</text><text x="1110.2" y="44.4" class="terminal-1699499130-r1" clip-path="url(#terminal-1699499130-line-1)" textLength="12.2">│</text><text x="0" y="68.8" class="terminal-1699499130-r1" clip-path="url(#terminal-1699499130-line-2)" textLength="12.2">│</text><text x="24.4" y="68.8" class="terminal-1699499130-r4" clip-path="url(#terminal-1699499130-line-2)" textLength="219.6">binutils</text><text x="268.4" y="68.8" class="terminal-1699499130-r5" clip-path="url(#terminal-1699499130-line-2)" textLength="244">2.42-4ubuntu2.10</text><text x="536.8" y="68.8" class="terminal-1699499130-r6" clip-path="url(#terminal-1699499130-line-2)" textLength="61">25</text><text x="622.2" y="68.8" class="terminal-1699499130-r7" clip-path="url(#terminal-1699499130-line-2)" textLength="475.8">CVE-2017-13716, CVE-2025-1149, +23</text><text x="1110.2" y="68.8" class="terminal-1699499130-r1" clip-path="url(#terminal-1699499130-line-2)" textLength="12.2">│</text><text x="0" y="93.2" class="terminal-1699499130-r1" clip-path="url(#terminal-1699499130-line-3)" textLength="12.2">│</text><text x="24.4" y="93.2" class="terminal-1699499130-r4" clip-path="url(#terminal-1699499130-line-3)" textLength="219.6">node-undici</text><text x="268.4" y="93.2" class="terminal-1699499130-r5" clip-path="url(#terminal-1699499130-line-3)" textLength="244">5.26.3+dfsg1+~cs23.…</text><text x="536.8" y="93.2" class="terminal-1699499130-r6" clip-path="url(#terminal-1699499130-line-3)" textLength="61">25</text><text x="622.2" y="93.2" class="terminal-1699499130-r7" clip-path="url(#terminal-1699499130-line-3)" textLength="475.8">CVE-2022-31150, CVE-2022-31151, +23</text><text x="1110.2" y="93.2" class="terminal-1699499130-r1" clip-path="url(#terminal-1699499130-line-3)" textLength="12.2">│</text><text x="0" y="117.6" class="terminal-1699499130-r1" clip-path="url(#terminal-1699499130-line-4)" textLength="12.2">│</text><text x="24.4" y="117.6" class="terminal-1699499130-r4" clip-path="url(#terminal-1699499130-line-4)" textLength="219.6">nodejs</text><text x="268.4" y="117.6" class="terminal-1699499130-r5" clip-path="url(#terminal-1699499130-line-4)" textLength="244">18.19.1+dfsg-6ubunt…</text><text x="536.8" y="117.6" class="terminal-1699499130-r6" clip-path="url(#terminal-1699499130-line-4)" textLength="61">24</text><text x="622.2" y="117.6" class="terminal-1699499130-r7" clip-path="url(#terminal-1699499130-line-4)" textLength="475.8">CVE-2021-44534, CVE-2024-22018, +22</text><text x="1110.2" y="117.6" class="terminal-1699499130-r1" clip-path="url(#terminal-1699499130-line-4)" textLength="12.2">│</text><text x="0" y="142" class="terminal-1699499130-r1" clip-path="url(#terminal-1699499130-line-5)" textLength="12.2">│</text><text x="24.4" y="142" class="terminal-1699499130-r4" clip-path="url(#terminal-1699499130-line-5)" textLength="219.6">python3.12</text><text x="268.4" y="142" class="terminal-1699499130-r5" clip-path="url(#terminal-1699499130-line-5)" textLength="244">3.12.3-1ubuntu0.13</text><text x="536.8" y="142" class="terminal-1699499130-r6" clip-path="url(#terminal-1699499130-line-5)" textLength="61">23</text><text x="622.2" y="142" class="terminal-1699499130-r7" clip-path="url(#terminal-1699499130-line-5)" textLength="475.8">CVE-2025-12781, CVE-2025-13462, +21</text><text x="1110.2" y="142" class="terminal-1699499130-r1" clip-path="url(#terminal-1699499130-line-5)" textLength="12.2">│</text><text x="0" y="166.4" class="terminal-1699499130-r1" clip-path="url(#terminal-1699499130-line-6)" textLength="12.2">│</text><text x="24.4" y="166.4" class="terminal-1699499130-r4" clip-path="url(#terminal-1699499130-line-6)" textLength="219.6">snapd</text><text x="268.4" y="166.4" class="terminal-1699499130-r5" clip-path="url(#terminal-1699499130-line-6)" textLength="244">2.73+ubuntu24.04.2</text><text x="536.8" y="166.4" class="terminal-1699499130-r6" clip-path="url(#terminal-1699499130-line-6)" textLength="61">19</text><text x="622.2" y="166.4" class="terminal-1699499130-r7" clip-path="url(#terminal-1699499130-line-6)" textLength="475.8">CVE-2017-3204, CVE-2019-11840, +17</text><text x="1110.2" y="166.4" class="terminal-1699499130-r1" clip-path="url(#terminal-1699499130-line-6)" textLength="12.2">│</text><text x="0" y="190.8" class="terminal-1699499130-r1" clip-path="url(#terminal-1699499130-line-7)" textLength="12.2">│</text><text x="24.4" y="190.8" class="terminal-1699499130-r4" clip-path="url(#terminal-1699499130-line-7)" textLength="219.6">apache2</text><text x="268.4" y="190.8" class="terminal-1699499130-r5" clip-path="url(#terminal-1699499130-line-7)" textLength="244">2.4.58-1ubuntu8.13</text><text x="536.8" y="190.8" class="terminal-1699499130-r6" clip-path="url(#terminal-1699499130-line-7)" textLength="61">12</text><text x="622.2" y="190.8" class="terminal-1699499130-r7" clip-path="url(#terminal-1699499130-line-7)" textLength="475.8">CVE-2026-29167, CVE-2026-29170, +10</text><text x="1110.2" y="190.8" class="terminal-1699499130-r1" clip-path="url(#terminal-1699499130-line-7)" textLength="12.2">│</text><text x="0" y="215.2" class="terminal-1699499130-r1" clip-path="url(#terminal-1699499130-line-8)" textLength="12.2">│</text><text x="24.4" y="215.2" class="terminal-1699499130-r4" clip-path="url(#terminal-1699499130-line-8)" textLength="219.6">jq</text><text x="268.4" y="215.2" class="terminal-1699499130-r5" clip-path="url(#terminal-1699499130-line-8)" textLength="244">1.7.1-3ubuntu0.24.0…</text><text x="536.8" y="215.2" class="terminal-1699499130-r6" clip-path="url(#terminal-1699499130-line-8)" textLength="61">10</text><text x="622.2" y="215.2" class="terminal-1699499130-r7" clip-path="url(#terminal-1699499130-line-8)" textLength="475.8">CVE-2025-9403, CVE-2026-40612, +8</text><text x="1110.2" y="215.2" class="terminal-1699499130-r1" clip-path="url(#terminal-1699499130-line-8)" textLength="12.2">│</text><text x="0" y="239.6" class="terminal-1699499130-r1" clip-path="url(#terminal-1699499130-line-9)" textLength="12.2">│</text><text x="24.4" y="239.6" class="terminal-1699499130-r4" clip-path="url(#terminal-1699499130-line-9)" textLength="219.6">node-tar</text><text x="268.4" y="239.6" class="terminal-1699499130-r5" clip-path="url(#terminal-1699499130-line-9)" textLength="244">6.1.13+~cs7.0.5-3</text><text x="536.8" y="239.6" class="terminal-1699499130-r6" clip-path="url(#terminal-1699499130-line-9)" textLength="61">10</text><text x="622.2" y="239.6" class="terminal-1699499130-r7" clip-path="url(#terminal-1699499130-line-9)" textLength="475.8">CVE-2021-32804, CVE-2021-37712, +8</text><text x="1110.2" y="239.6" class="terminal-1699499130-r1" clip-path="url(#terminal-1699499130-line-9)" textLength="12.2">│</text><text x="0" y="264" class="terminal-1699499130-r1" clip-path="url(#terminal-1699499130-line-10)" textLength="12.2">│</text><text x="24.4" y="264" class="terminal-1699499130-r4" clip-path="url(#terminal-1699499130-line-10)" textLength="219.6">perl</text><text x="268.4" y="264" class="terminal-1699499130-r5" clip-path="url(#terminal-1699499130-line-10)" textLength="244">5.38.2-3.2ubuntu0.2</text><text x="536.8" y="264" class="terminal-1699499130-r8" clip-path="url(#terminal-1699499130-line-10)" textLength="61">9</text><text x="622.2" y="264" class="terminal-1699499130-r7" clip-path="url(#terminal-1699499130-line-10)" textLength="475.8">CVE-2025-15649, CVE-2026-12087, +7</text><text x="1110.2" y="264" class="terminal-1699499130-r1" clip-path="url(#terminal-1699499130-line-10)" textLength="12.2">│</text><text x="0" y="288.4" class="terminal-1699499130-r1" clip-path="url(#terminal-1699499130-line-11)" textLength="12.2">│</text><text x="24.4" y="288.4" class="terminal-1699499130-r4" clip-path="url(#terminal-1699499130-line-11)" textLength="219.6">npm</text><text x="268.4" y="288.4" class="terminal-1699499130-r5" clip-path="url(#terminal-1699499130-line-11)" textLength="244">9.2.0~ds1-2</text><text x="536.8" y="288.4" class="terminal-1699499130-r8" clip-path="url(#terminal-1699499130-line-11)" textLength="61">8</text><text x="622.2" y="288.4" class="terminal-1699499130-r7" clip-path="url(#terminal-1699499130-line-11)" textLength="475.8">CVE-2017-20162, CVE-2019-16775, +6</text><text x="1110.2" y="288.4" class="terminal-1699499130-r1" clip-path="url(#terminal-1699499130-line-11)" textLength="12.2">│</text><text x="0" y="312.8" class="terminal-1699499130-r1" clip-path="url(#terminal-1699499130-line-12)" textLength="12.2">│</text><text x="24.4" y="312.8" class="terminal-1699499130-r8" clip-path="url(#terminal-1699499130-line-12)" textLength="707.6">… +48 paquetes más · usa --json para el listado completo</text><text x="1110.2" y="312.8" class="terminal-1699499130-r1" clip-path="url(#terminal-1699499130-line-12)" textLength="12.2">│</text><text x="0" y="337.2" class="terminal-1699499130-r1" clip-path="url(#terminal-1699499130-line-13)" textLength="12.2">│</text><text x="24.4" y="337.2" class="terminal-1699499130-r5" clip-path="url(#terminal-1699499130-line-13)" textLength="1073.6">ecosistema Ubuntu · 1148 paquetes · 259 vulns en 58 paquetes · según OSV.dev (el match</text><text x="1110.2" y="337.2" class="terminal-1699499130-r1" clip-path="url(#terminal-1699499130-line-13)" textLength="12.2">│</text><text x="0" y="361.6" class="terminal-1699499130-r1" clip-path="url(#terminal-1699499130-line-14)" textLength="12.2">│</text><text x="24.4" y="361.6" class="terminal-1699499130-r5" clip-path="url(#terminal-1699499130-line-14)" textLength="463.6">de versión puede dar falsos positivos)</text><text x="1110.2" y="361.6" class="terminal-1699499130-r1" clip-path="url(#terminal-1699499130-line-14)" textLength="12.2">│</text><text x="0" y="386" class="terminal-1699499130-r1" clip-path="url(#terminal-1699499130-line-15)" textLength="1122.4">╰──────────────────────────────────────────────────────────────────────────────────────────╯</text></g></g></svg>