<svg class="rich-terminal" viewBox="0 0 1141 440.4" xmlns="http://www.w3.org/2000/svg">
    <!-- Generated with Rich https://www.textualize.io -->
    <style>

    @font-face {
        font-family: "Fira Code";
        src: local("FiraCode-Regular"),
                url("https://cdnjs.cloudflare.com/ajax/libs/firacode/6.2.0/woff2/FiraCode-Regular.woff2") format("woff2"),
                url("https://cdnjs.cloudflare.com/ajax/libs/firacode/6.2.0/woff/FiraCode-Regular.woff") format("woff");
        font-style: normal;
        font-weight: 400;
    }
    @font-face {
        font-family: "Fira Code";
        src: local("FiraCode-Bold"),
                url("https://cdnjs.cloudflare.com/ajax/libs/firacode/6.2.0/woff2/FiraCode-Bold.woff2") format("woff2"),
                url("https://cdnjs.cloudflare.com/ajax/libs/firacode/6.2.0/woff/FiraCode-Bold.woff") format("woff");
        font-style: bold;
        font-weight: 700;
    }

    .terminal-2208014391-matrix {
        font-family: Fira Code, monospace;
        font-size: 20px;
        line-height: 24.4px;
        font-variant-east-asian: full-width;
    }

    .terminal-2208014391-title {
        font-size: 18px;
        font-weight: bold;
        font-family: arial;
    }

    .terminal-2208014391-r1 { fill: #ff3d94 }
.terminal-2208014391-r2 { fill: #c5c8c6 }
.terminal-2208014391-r3 { fill: #ff3d94;font-weight: bold }
.terminal-2208014391-r4 { fill: #3dffd1 }
.terminal-2208014391-r5 { fill: #6b6b7b }
.terminal-2208014391-r6 { fill: #0d0d12;font-weight: bold }
.terminal-2208014391-r7 { fill: #ffcc3d }
.terminal-2208014391-r8 { fill: #3dff94 }
.terminal-2208014391-r9 { fill: #ff3d3d }
.terminal-2208014391-r10 { fill: #3dffd1;font-weight: bold }
    </style>

    <defs>
    <clipPath id="terminal-2208014391-clip-terminal">
      <rect x="0" y="0" width="1121.3999999999999" height="389.4" />
    </clipPath>
    <clipPath id="terminal-2208014391-line-0">
    <rect x="0" y="1.5" width="1122.4" height="24.65"/>
            </clipPath>
<clipPath id="terminal-2208014391-line-1">
    <rect x="0" y="25.9" width="1122.4" height="24.65"/>
            </clipPath>
<clipPath id="terminal-2208014391-line-2">
    <rect x="0" y="50.3" width="1122.4" height="24.65"/>
            </clipPath>
<clipPath id="terminal-2208014391-line-3">
    <rect x="0" y="74.7" width="1122.4" height="24.65"/>
            </clipPath>
<clipPath id="terminal-2208014391-line-4">
    <rect x="0" y="99.1" width="1122.4" height="24.65"/>
            </clipPath>
<clipPath id="terminal-2208014391-line-5">
    <rect x="0" y="123.5" width="1122.4" height="24.65"/>
            </clipPath>
<clipPath id="terminal-2208014391-line-6">
    <rect x="0" y="147.9" width="1122.4" height="24.65"/>
            </clipPath>
<clipPath id="terminal-2208014391-line-7">
    <rect x="0" y="172.3" width="1122.4" height="24.65"/>
            </clipPath>
<clipPath id="terminal-2208014391-line-8">
    <rect x="0" y="196.7" width="1122.4" height="24.65"/>
            </clipPath>
<clipPath id="terminal-2208014391-line-9">
    <rect x="0" y="221.1" width="1122.4" height="24.65"/>
            </clipPath>
<clipPath id="terminal-2208014391-line-10">
    <rect x="0" y="245.5" width="1122.4" height="24.65"/>
            </clipPath>
<clipPath id="terminal-2208014391-line-11">
    <rect x="0" y="269.9" width="1122.4" height="24.65"/>
            </clipPath>
<clipPath id="terminal-2208014391-line-12">
    <rect x="0" y="294.3" width="1122.4" height="24.65"/>
            </clipPath>
<clipPath id="terminal-2208014391-line-13">
    <rect x="0" y="318.7" width="1122.4" height="24.65"/>
            </clipPath>
<clipPath id="terminal-2208014391-line-14">
    <rect x="0" y="343.1" width="1122.4" height="24.65"/>
            </clipPath>
    </defs>

    <rect fill="#292929" stroke="rgba(255,255,255,0.35)" stroke-width="1" x="1" y="1" width="1139" height="438.4" rx="8"/><text class="terminal-2208014391-title" fill="#c5c8c6" text-anchor="middle" x="569" y="27">warden</text>
            <g transform="translate(26,22)">
            <circle cx="0" cy="0" r="7" fill="#ff5f57"/>
            <circle cx="22" cy="0" r="7" fill="#febc2e"/>
            <circle cx="44" cy="0" r="7" fill="#28c840"/>
            </g>
        
    <g transform="translate(9, 41)" clip-path="url(#terminal-2208014391-clip-terminal)">
    <rect fill="#15090f" x="0" y="1.5" width="1122.4" height="24.65" shape-rendering="crispEdges"/><rect fill="#15090f" x="0" y="25.9" width="12.2" height="24.65" shape-rendering="crispEdges"/><rect fill="#15090f" x="12.2" y="25.9" width="12.2" height="24.65" shape-rendering="crispEdges"/><rect fill="#15090f" x="24.4" y="25.9" width="73.2" height="24.65" shape-rendering="crispEdges"/><rect fill="#15090f" x="97.6" y="25.9" width="12.2" height="24.65" shape-rendering="crispEdges"/><rect fill="#15090f" x="109.8" y="25.9" width="610" height="24.65" shape-rendering="crispEdges"/><rect fill="#15090f" x="719.8" y="25.9" width="170.8" height="24.65" shape-rendering="crispEdges"/><rect fill="#ffcc3d" x="890.6" y="25.9" width="207.4" height="24.65" shape-rendering="crispEdges"/><rect fill="#15090f" x="1098" y="25.9" width="12.2" height="24.65" shape-rendering="crispEdges"/><rect fill="#15090f" x="1110.2" y="25.9" width="12.2" height="24.65" shape-rendering="crispEdges"/><rect fill="#15090f" x="0" y="50.3" width="1122.4" height="24.65" shape-rendering="crispEdges"/><rect fill="#15090f" x="0" y="74.7" width="24.4" height="24.65" shape-rendering="crispEdges"/><rect fill="#15090f" x="24.4" y="74.7" width="134.2" height="24.65" shape-rendering="crispEdges"/><rect fill="#15090f" x="158.6" y="74.7" width="366" height="24.65" shape-rendering="crispEdges"/><rect fill="#15090f" x="524.6" y="74.7" width="24.4" height="24.65" shape-rendering="crispEdges"/><rect fill="#15090f" x="561.2" y="74.7" width="24.4" height="24.65" shape-rendering="crispEdges"/><rect fill="#15090f" x="585.6" y="74.7" width="109.8" height="24.65" shape-rendering="crispEdges"/><rect fill="#15090f" x="695.4" y="74.7" width="402.6" height="24.65" shape-rendering="crispEdges"/><rect fill="#15090f" x="1098" y="74.7" width="24.4" height="24.65" shape-rendering="crispEdges"/><rect fill="#15090f" x="0" y="99.1" width="12.2" height="24.65" shape-rendering="crispEdges"/><rect fill="#15090f" x="12.2" y="99.1" width="12.2" height="24.65" shape-rendering="crispEdges"/><rect fill="#15090f" x="24.4" y="99.1" width="36.6" height="24.65" shape-rendering="crispEdges"/><rect fill="#15090f" x="61" y="99.1" width="24.4" height="24.65" shape-rendering="crispEdges"/><rect fill="#15090f" x="85.4" y="99.1" width="170.8" height="24.65" shape-rendering="crispEdges"/><rect fill="#15090f" x="256.2" y="99.1" width="48.8" height="24.65" shape-rendering="crispEdges"/><rect fill="#15090f" x="305" y="99.1" width="97.6" height="24.65" shape-rendering="crispEdges"/><rect fill="#15090f" x="402.6" y="99.1" width="122" height="24.65" shape-rendering="crispEdges"/><rect fill="#15090f" x="524.6" y="99.1" width="12.2" height="24.65" shape-rendering="crispEdges"/><rect fill="#15090f" x="536.8" y="99.1" width="12.2" height="24.65" shape-rendering="crispEdges"/><rect fill="#15090f" x="561.2" y="99.1" width="12.2" height="24.65" shape-rendering="crispEdges"/><rect fill="#15090f" x="573.4" y="99.1" width="12.2" height="24.65" shape-rendering="crispEdges"/><rect fill="#15090f" x="585.6" y="99.1" width="85.4" height="24.65" shape-rendering="crispEdges"/><rect fill="#15090f" x="671" y="99.1" width="12.2" height="24.65" shape-rendering="crispEdges"/><rect fill="#15090f" x="683.2" y="99.1" width="24.4" height="24.65" shape-rendering="crispEdges"/><rect fill="#15090f" x="707.6" y="99.1" width="170.8" height="24.65" shape-rendering="crispEdges"/><rect fill="#15090f" x="878.4" y="99.1" width="85.4" height="24.65" shape-rendering="crispEdges"/><rect fill="#15090f" x="963.8" y="99.1" width="134.2" height="24.65" shape-rendering="crispEdges"/><rect fill="#15090f" x="1098" y="99.1" width="12.2" height="24.65" shape-rendering="crispEdges"/><rect fill="#15090f" x="1110.2" y="99.1" width="12.2" height="24.65" shape-rendering="crispEdges"/><rect fill="#15090f" x="0" y="123.5" width="12.2" height="24.65" shape-rendering="crispEdges"/><rect fill="#15090f" x="12.2" y="123.5" width="12.2" height="24.65" shape-rendering="crispEdges"/><rect fill="#15090f" x="24.4" y="123.5" width="73.2" height="24.65" shape-rendering="crispEdges"/><rect fill="#15090f" x="97.6" y="123.5" width="109.8" height="24.65" shape-rendering="crispEdges"/><rect fill="#15090f" x="207.4" y="123.5" width="109.8" height="24.65" shape-rendering="crispEdges"/><rect fill="#15090f" x="317.2" y="123.5" width="85.4" height="24.65" shape-rendering="crispEdges"/><rect fill="#15090f" x="402.6" y="123.5" width="122" height="24.65" shape-rendering="crispEdges"/><rect fill="#15090f" x="524.6" y="123.5" width="12.2" height="24.65" shape-rendering="crispEdges"/><rect fill="#15090f" x="536.8" y="123.5" width="12.2" height="24.65" shape-rendering="crispEdges"/><rect fill="#15090f" x="561.2" y="123.5" width="12.2" height="24.65" shape-rendering="crispEdges"/><rect fill="#15090f" x="573.4" y="123.5" width="12.2" height="24.65" shape-rendering="crispEdges"/><rect fill="#15090f" x="585.6" y="123.5" width="85.4" height="24.65" shape-rendering="crispEdges"/><rect fill="#15090f" x="671" y="123.5" width="12.2" height="24.65" shape-rendering="crispEdges"/><rect fill="#15090f" x="683.2" y="123.5" width="48.8" height="24.65" shape-rendering="crispEdges"/><rect fill="#15090f" x="732" y="123.5" width="146.4" height="24.65" shape-rendering="crispEdges"/><rect fill="#15090f" x="878.4" y="123.5" width="85.4" height="24.65" shape-rendering="crispEdges"/><rect fill="#15090f" x="963.8" y="123.5" width="134.2" height="24.65" shape-rendering="crispEdges"/><rect fill="#15090f" x="1098" y="123.5" width="12.2" height="24.65" shape-rendering="crispEdges"/><rect fill="#15090f" x="1110.2" y="123.5" width="12.2" height="24.65" shape-rendering="crispEdges"/><rect fill="#15090f" x="0" y="147.9" width="12.2" height="24.65" shape-rendering="crispEdges"/><rect fill="#15090f" x="12.2" y="147.9" width="12.2" height="24.65" shape-rendering="crispEdges"/><rect fill="#15090f" x="24.4" y="147.9" width="500.2" height="24.65" shape-rendering="crispEdges"/><rect fill="#15090f" x="524.6" y="147.9" width="12.2" height="24.65" shape-rendering="crispEdges"/><rect fill="#15090f" x="536.8" y="147.9" width="12.2" height="24.65" shape-rendering="crispEdges"/><rect fill="#15090f" x="561.2" y="147.9" width="12.2" height="24.65" shape-rendering="crispEdges"/><rect fill="#15090f" x="573.4" y="147.9" width="12.2" height="24.65" shape-rendering="crispEdges"/><rect fill="#15090f" x="585.6" y="147.9" width="85.4" height="24.65" shape-rendering="crispEdges"/><rect fill="#15090f" x="671" y="147.9" width="12.2" height="24.65" shape-rendering="crispEdges"/><rect fill="#15090f" x="683.2" y="147.9" width="195.2" height="24.65" shape-rendering="crispEdges"/><rect fill="#15090f" x="878.4" y="147.9" width="85.4" height="24.65" shape-rendering="crispEdges"/><rect fill="#15090f" x="963.8" y="147.9" width="134.2" height="24.65" shape-rendering="crispEdges"/><rect fill="#15090f" x="1098" y="147.9" width="12.2" height="24.65" shape-rendering="crispEdges"/><rect fill="#15090f" x="1110.2" y="147.9" width="12.2" height="24.65" shape-rendering="crispEdges"/><rect fill="#15090f" x="0" y="172.3" width="549" height="24.65" shape-rendering="crispEdges"/><rect fill="#15090f" x="561.2" y="172.3" width="12.2" height="24.65" shape-rendering="crispEdges"/><rect fill="#15090f" x="573.4" y="172.3" width="12.2" height="24.65" shape-rendering="crispEdges"/><rect fill="#15090f" x="585.6" y="172.3" width="85.4" height="24.65" shape-rendering="crispEdges"/><rect fill="#15090f" x="671" y="172.3" width="12.2" height="24.65" shape-rendering="crispEdges"/><rect fill="#15090f" x="683.2" y="172.3" width="195.2" height="24.65" shape-rendering="crispEdges"/><rect fill="#15090f" x="878.4" y="172.3" width="85.4" height="24.65" shape-rendering="crispEdges"/><rect fill="#15090f" x="963.8" y="172.3" width="134.2" height="24.65" shape-rendering="crispEdges"/><rect fill="#15090f" x="1098" y="172.3" width="12.2" height="24.65" shape-rendering="crispEdges"/><rect fill="#15090f" x="1110.2" y="172.3" width="12.2" height="24.65" shape-rendering="crispEdges"/><rect fill="#15090f" x="561.2" y="196.7" width="12.2" height="24.65" shape-rendering="crispEdges"/><rect fill="#15090f" x="573.4" y="196.7" width="12.2" height="24.65" shape-rendering="crispEdges"/><rect fill="#15090f" x="585.6" y="196.7" width="85.4" height="24.65" shape-rendering="crispEdges"/><rect fill="#15090f" x="671" y="196.7" width="12.2" height="24.65" shape-rendering="crispEdges"/><rect fill="#15090f" x="683.2" y="196.7" width="280.6" height="24.65" shape-rendering="crispEdges"/><rect fill="#15090f" x="963.8" y="196.7" width="134.2" height="24.65" shape-rendering="crispEdges"/><rect fill="#15090f" x="1098" y="196.7" width="12.2" height="24.65" shape-rendering="crispEdges"/><rect fill="#15090f" x="1110.2" y="196.7" width="12.2" height="24.65" shape-rendering="crispEdges"/><rect fill="#15090f" x="561.2" y="221.1" width="561.2" height="24.65" shape-rendering="crispEdges"/><rect fill="#15090f" x="0" y="245.5" width="24.4" height="24.65" shape-rendering="crispEdges"/><rect fill="#15090f" x="24.4" y="245.5" width="207.4" height="24.65" shape-rendering="crispEdges"/><rect fill="#15090f" x="231.8" y="245.5" width="866.2" height="24.65" shape-rendering="crispEdges"/><rect fill="#15090f" x="1098" y="245.5" width="24.4" height="24.65" shape-rendering="crispEdges"/><rect fill="#15090f" x="0" y="269.9" width="12.2" height="24.65" shape-rendering="crispEdges"/><rect fill="#15090f" x="12.2" y="269.9" width="12.2" height="24.65" shape-rendering="crispEdges"/><rect fill="#15090f" x="24.4" y="269.9" width="12.2" height="24.65" shape-rendering="crispEdges"/><rect fill="#15090f" x="36.6" y="269.9" width="12.2" height="24.65" shape-rendering="crispEdges"/><rect fill="#15090f" x="48.8" y="269.9" width="317.2" height="24.65" shape-rendering="crispEdges"/><rect fill="#15090f" x="366" y="269.9" width="12.2" height="24.65" shape-rendering="crispEdges"/><rect fill="#15090f" x="378.2" y="269.9" width="622.2" height="24.65" shape-rendering="crispEdges"/><rect fill="#15090f" x="1000.4" y="269.9" width="97.6" height="24.65" shape-rendering="crispEdges"/><rect fill="#15090f" x="1098" y="269.9" width="12.2" height="24.65" shape-rendering="crispEdges"/><rect fill="#15090f" x="1110.2" y="269.9" width="12.2" height="24.65" shape-rendering="crispEdges"/><rect fill="#15090f" x="0" y="294.3" width="12.2" height="24.65" shape-rendering="crispEdges"/><rect fill="#15090f" x="12.2" y="294.3" width="12.2" height="24.65" shape-rendering="crispEdges"/><rect fill="#15090f" x="24.4" y="294.3" width="12.2" height="24.65" shape-rendering="crispEdges"/><rect fill="#15090f" x="36.6" y="294.3" width="12.2" height="24.65" shape-rendering="crispEdges"/><rect fill="#15090f" x="48.8" y="294.3" width="317.2" height="24.65" shape-rendering="crispEdges"/><rect fill="#15090f" x="366" y="294.3" width="12.2" height="24.65" shape-rendering="crispEdges"/><rect fill="#15090f" x="378.2" y="294.3" width="622.2" height="24.65" shape-rendering="crispEdges"/><rect fill="#15090f" x="1000.4" y="294.3" width="97.6" height="24.65" shape-rendering="crispEdges"/><rect fill="#15090f" x="1098" y="294.3" width="12.2" height="24.65" shape-rendering="crispEdges"/><rect fill="#15090f" x="1110.2" y="294.3" width="12.2" height="24.65" shape-rendering="crispEdges"/><rect fill="#15090f" x="0" y="318.7" width="12.2" height="24.65" shape-rendering="crispEdges"/><rect fill="#15090f" x="12.2" y="318.7" width="12.2" height="24.65" shape-rendering="crispEdges"/><rect fill="#15090f" x="24.4" y="318.7" width="12.2" height="24.65" shape-rendering="crispEdges"/><rect fill="#15090f" x="36.6" y="318.7" width="12.2" height="24.65" shape-rendering="crispEdges"/><rect fill="#15090f" x="48.8" y="318.7" width="317.2" height="24.65" shape-rendering="crispEdges"/><rect fill="#15090f" x="366" y="318.7" width="12.2" height="24.65" shape-rendering="crispEdges"/><rect fill="#15090f" x="378.2" y="318.7" width="622.2" height="24.65" shape-rendering="crispEdges"/><rect fill="#15090f" x="1000.4" y="318.7" width="97.6" height="24.65" shape-rendering="crispEdges"/><rect fill="#15090f" x="1098" y="318.7" width="12.2" height="24.65" shape-rendering="crispEdges"/><rect fill="#15090f" x="1110.2" y="318.7" width="12.2" height="24.65" shape-rendering="crispEdges"/><rect fill="#15090f" x="0" y="343.1" width="12.2" height="24.65" shape-rendering="crispEdges"/><rect fill="#15090f" x="12.2" y="343.1" width="12.2" height="24.65" shape-rendering="crispEdges"/><rect fill="#15090f" x="24.4" y="343.1" width="12.2" height="24.65" shape-rendering="crispEdges"/><rect fill="#15090f" x="36.6" y="343.1" width="12.2" height="24.65" shape-rendering="crispEdges"/><rect fill="#15090f" x="48.8" y="343.1" width="317.2" height="24.65" shape-rendering="crispEdges"/><rect fill="#15090f" x="366" y="343.1" width="12.2" height="24.65" shape-rendering="crispEdges"/><rect fill="#15090f" x="378.2" y="343.1" width="622.2" height="24.65" shape-rendering="crispEdges"/><rect fill="#15090f" x="1000.4" y="343.1" width="97.6" height="24.65" shape-rendering="crispEdges"/><rect fill="#15090f" x="1098" y="343.1" width="12.2" height="24.65" shape-rendering="crispEdges"/><rect fill="#15090f" x="1110.2" y="343.1" width="12.2" height="24.65" shape-rendering="crispEdges"/><rect fill="#15090f" x="0" y="367.5" width="1122.4" height="24.65" shape-rendering="crispEdges"/>
    <g class="terminal-2208014391-matrix">
    <text class="terminal-2208014391-r1" x="0" y="20" textLength="1122.4" clip-path="url(#terminal-2208014391-line-0)">╭──────────────────────────────────────────────────────────────────────────────────────────╮</text><text class="terminal-2208014391-r2" x="1122.4" y="20" textLength="12.2" clip-path="url(#terminal-2208014391-line-0)">
</text><text class="terminal-2208014391-r1" x="0" y="44.4" textLength="12.2" clip-path="url(#terminal-2208014391-line-1)">│</text><text class="terminal-2208014391-r3" x="24.4" y="44.4" textLength="73.2" clip-path="url(#terminal-2208014391-line-1)">WARDEN</text><text class="terminal-2208014391-r4" x="97.6" y="44.4" textLength="12.2" clip-path="url(#terminal-2208014391-line-1)">_</text><text class="terminal-2208014391-r5" x="109.8" y="44.4" textLength="610" clip-path="url(#terminal-2208014391-line-1)">&#160;&#160;DESKTOP-L186KPC&#160;·&#160;Ubuntu&#160;24.04.4&#160;LTS&#160;·&#160;up&#160;3d&#160;46s</text><text class="terminal-2208014391-r6" x="890.6" y="44.4" textLength="207.4" clip-path="url(#terminal-2208014391-line-1)">&#160;&#160;SIN&#160;PRIVILEGIOS</text><text class="terminal-2208014391-r1" x="1110.2" y="44.4" textLength="12.2" clip-path="url(#terminal-2208014391-line-1)">│</text><text class="terminal-2208014391-r2" x="1122.4" y="44.4" textLength="12.2" clip-path="url(#terminal-2208014391-line-1)">
</text><text class="terminal-2208014391-r1" x="0" y="68.8" textLength="1122.4" clip-path="url(#terminal-2208014391-line-2)">╰──────────────────────────────────────────────────────────────────────────────────────────╯</text><text class="terminal-2208014391-r2" x="1122.4" y="68.8" textLength="12.2" clip-path="url(#terminal-2208014391-line-2)">
</text><text class="terminal-2208014391-r1" x="0" y="93.2" textLength="24.4" clip-path="url(#terminal-2208014391-line-3)">╭─</text><text class="terminal-2208014391-r3" x="24.4" y="93.2" textLength="134.2" clip-path="url(#terminal-2208014391-line-3)">&#160;Hardening&#160;</text><text class="terminal-2208014391-r1" x="158.6" y="93.2" textLength="366" clip-path="url(#terminal-2208014391-line-3)">──────────────────────────────</text><text class="terminal-2208014391-r1" x="524.6" y="93.2" textLength="24.4" clip-path="url(#terminal-2208014391-line-3)">─╮</text><text class="terminal-2208014391-r1" x="561.2" y="93.2" textLength="24.4" clip-path="url(#terminal-2208014391-line-3)">╭─</text><text class="terminal-2208014391-r3" x="585.6" y="93.2" textLength="109.8" clip-path="url(#terminal-2208014391-line-3)">&#160;Vitales&#160;</text><text class="terminal-2208014391-r1" x="695.4" y="93.2" textLength="402.6" clip-path="url(#terminal-2208014391-line-3)">─────────────────────────────────</text><text class="terminal-2208014391-r1" x="1098" y="93.2" textLength="24.4" clip-path="url(#terminal-2208014391-line-3)">─╮</text><text class="terminal-2208014391-r2" x="1122.4" y="93.2" textLength="12.2" clip-path="url(#terminal-2208014391-line-3)">
</text><text class="terminal-2208014391-r1" x="0" y="117.6" textLength="12.2" clip-path="url(#terminal-2208014391-line-4)">│</text><text class="terminal-2208014391-r2" x="24.4" y="117.6" textLength="36.6" clip-path="url(#terminal-2208014391-line-4)">&#160;C&#160;</text><text class="terminal-2208014391-r7" x="85.4" y="117.6" textLength="170.8" clip-path="url(#terminal-2208014391-line-4)">██████████████</text><text class="terminal-2208014391-r5" x="256.2" y="117.6" textLength="48.8" clip-path="url(#terminal-2208014391-line-4)">░░░░</text><text class="terminal-2208014391-r7" x="305" y="117.6" textLength="97.6" clip-path="url(#terminal-2208014391-line-4)">&#160;&#160;75/100</text><text class="terminal-2208014391-r1" x="536.8" y="117.6" textLength="12.2" clip-path="url(#terminal-2208014391-line-4)">│</text><text class="terminal-2208014391-r1" x="561.2" y="117.6" textLength="12.2" clip-path="url(#terminal-2208014391-line-4)">│</text><text class="terminal-2208014391-r5" x="585.6" y="117.6" textLength="85.4" clip-path="url(#terminal-2208014391-line-4)">&#160;&#160;&#160;&#160;cpu</text><text class="terminal-2208014391-r8" x="683.2" y="117.6" textLength="24.4" clip-path="url(#terminal-2208014391-line-4)">██</text><text class="terminal-2208014391-r5" x="707.6" y="117.6" textLength="170.8" clip-path="url(#terminal-2208014391-line-4)">░░░░░░░░░░░░░░</text><text class="terminal-2208014391-r8" x="878.4" y="117.6" textLength="85.4" clip-path="url(#terminal-2208014391-line-4)">&#160;&#160;10.8%</text><text class="terminal-2208014391-r1" x="1110.2" y="117.6" textLength="12.2" clip-path="url(#terminal-2208014391-line-4)">│</text><text class="terminal-2208014391-r2" x="1122.4" y="117.6" textLength="12.2" clip-path="url(#terminal-2208014391-line-4)">
</text><text class="terminal-2208014391-r1" x="0" y="142" textLength="12.2" clip-path="url(#terminal-2208014391-line-5)">│</text><text class="terminal-2208014391-r8" x="24.4" y="142" textLength="73.2" clip-path="url(#terminal-2208014391-line-5)">●&#160;2&#160;ok</text><text class="terminal-2208014391-r7" x="97.6" y="142" textLength="109.8" clip-path="url(#terminal-2208014391-line-5)">&#160;●&#160;4&#160;warn</text><text class="terminal-2208014391-r9" x="207.4" y="142" textLength="109.8" clip-path="url(#terminal-2208014391-line-5)">&#160;●&#160;0&#160;fail</text><text class="terminal-2208014391-r5" x="317.2" y="142" textLength="85.4" clip-path="url(#terminal-2208014391-line-5)">&#160;○&#160;2&#160;na</text><text class="terminal-2208014391-r1" x="536.8" y="142" textLength="12.2" clip-path="url(#terminal-2208014391-line-5)">│</text><text class="terminal-2208014391-r1" x="561.2" y="142" textLength="12.2" clip-path="url(#terminal-2208014391-line-5)">│</text><text class="terminal-2208014391-r5" x="585.6" y="142" textLength="85.4" clip-path="url(#terminal-2208014391-line-5)">&#160;&#160;&#160;&#160;ram</text><text class="terminal-2208014391-r8" x="683.2" y="142" textLength="48.8" clip-path="url(#terminal-2208014391-line-5)">████</text><text class="terminal-2208014391-r5" x="732" y="142" textLength="146.4" clip-path="url(#terminal-2208014391-line-5)">░░░░░░░░░░░░</text><text class="terminal-2208014391-r8" x="878.4" y="142" textLength="85.4" clip-path="url(#terminal-2208014391-line-5)">&#160;&#160;25.3%</text><text class="terminal-2208014391-r1" x="1110.2" y="142" textLength="12.2" clip-path="url(#terminal-2208014391-line-5)">│</text><text class="terminal-2208014391-r2" x="1122.4" y="142" textLength="12.2" clip-path="url(#terminal-2208014391-line-5)">
</text><text class="terminal-2208014391-r1" x="0" y="166.4" textLength="12.2" clip-path="url(#terminal-2208014391-line-6)">│</text><text class="terminal-2208014391-r5" x="24.4" y="166.4" textLength="500.2" clip-path="url(#terminal-2208014391-line-6)">cobertura&#160;parcial&#160;—&#160;sin&#160;root&#160;&#160;&#160;&#160;&#160;&#160;&#160;&#160;&#160;&#160;&#160;&#160;&#160;</text><text class="terminal-2208014391-r1" x="536.8" y="166.4" textLength="12.2" clip-path="url(#terminal-2208014391-line-6)">│</text><text class="terminal-2208014391-r1" x="561.2" y="166.4" textLength="12.2" clip-path="url(#terminal-2208014391-line-6)">│</text><text class="terminal-2208014391-r5" x="585.6" y="166.4" textLength="85.4" clip-path="url(#terminal-2208014391-line-6)">&#160;&#160;&#160;swap</text><text class="terminal-2208014391-r5" x="683.2" y="166.4" textLength="195.2" clip-path="url(#terminal-2208014391-line-6)">░░░░░░░░░░░░░░░░</text><text class="terminal-2208014391-r8" x="878.4" y="166.4" textLength="85.4" clip-path="url(#terminal-2208014391-line-6)">&#160;&#160;&#160;0.0%</text><text class="terminal-2208014391-r1" x="1110.2" y="166.4" textLength="12.2" clip-path="url(#terminal-2208014391-line-6)">│</text><text class="terminal-2208014391-r2" x="1122.4" y="166.4" textLength="12.2" clip-path="url(#terminal-2208014391-line-6)">
</text><text class="terminal-2208014391-r1" x="0" y="190.8" textLength="549" clip-path="url(#terminal-2208014391-line-7)">╰───────────────────────────────────────────╯</text><text class="terminal-2208014391-r1" x="561.2" y="190.8" textLength="12.2" clip-path="url(#terminal-2208014391-line-7)">│</text><text class="terminal-2208014391-r5" x="585.6" y="190.8" textLength="85.4" clip-path="url(#terminal-2208014391-line-7)">disco&#160;/</text><text class="terminal-2208014391-r5" x="683.2" y="190.8" textLength="195.2" clip-path="url(#terminal-2208014391-line-7)">░░░░░░░░░░░░░░░░</text><text class="terminal-2208014391-r8" x="878.4" y="190.8" textLength="85.4" clip-path="url(#terminal-2208014391-line-7)">&#160;&#160;&#160;1.6%</text><text class="terminal-2208014391-r1" x="1110.2" y="190.8" textLength="12.2" clip-path="url(#terminal-2208014391-line-7)">│</text><text class="terminal-2208014391-r2" x="1122.4" y="190.8" textLength="12.2" clip-path="url(#terminal-2208014391-line-7)">
</text><text class="terminal-2208014391-r1" x="561.2" y="215.2" textLength="12.2" clip-path="url(#terminal-2208014391-line-8)">│</text><text class="terminal-2208014391-r5" x="585.6" y="215.2" textLength="85.4" clip-path="url(#terminal-2208014391-line-8)">&#160;&#160;&#160;load</text><text class="terminal-2208014391-r10" x="683.2" y="215.2" textLength="280.6" clip-path="url(#terminal-2208014391-line-8)">2.05&#160;&#160;1.05&#160;&#160;0.46&#160;&#160;&#160;&#160;&#160;&#160;&#160;</text><text class="terminal-2208014391-r1" x="1110.2" y="215.2" textLength="12.2" clip-path="url(#terminal-2208014391-line-8)">│</text><text class="terminal-2208014391-r2" x="1122.4" y="215.2" textLength="12.2" clip-path="url(#terminal-2208014391-line-8)">
</text><text class="terminal-2208014391-r1" x="561.2" y="239.6" textLength="561.2" clip-path="url(#terminal-2208014391-line-9)">╰────────────────────────────────────────────╯</text><text class="terminal-2208014391-r2" x="1122.4" y="239.6" textLength="12.2" clip-path="url(#terminal-2208014391-line-9)">
</text><text class="terminal-2208014391-r1" x="0" y="264" textLength="24.4" clip-path="url(#terminal-2208014391-line-10)">╭─</text><text class="terminal-2208014391-r3" x="24.4" y="264" textLength="207.4" clip-path="url(#terminal-2208014391-line-10)">&#160;Incidencias&#160;(4)&#160;</text><text class="terminal-2208014391-r1" x="231.8" y="264" textLength="866.2" clip-path="url(#terminal-2208014391-line-10)">───────────────────────────────────────────────────────────────────────</text><text class="terminal-2208014391-r1" x="1098" y="264" textLength="24.4" clip-path="url(#terminal-2208014391-line-10)">─╮</text><text class="terminal-2208014391-r2" x="1122.4" y="264" textLength="12.2" clip-path="url(#terminal-2208014391-line-10)">
</text><text class="terminal-2208014391-r1" x="0" y="288.4" textLength="12.2" clip-path="url(#terminal-2208014391-line-11)">│</text><text class="terminal-2208014391-r7" x="24.4" y="288.4" textLength="12.2" clip-path="url(#terminal-2208014391-line-11)">●</text><text class="terminal-2208014391-r10" x="48.8" y="288.4" textLength="317.2" clip-path="url(#terminal-2208014391-line-11)">Cortafuegos&#160;&#160;&#160;&#160;&#160;&#160;&#160;&#160;&#160;&#160;&#160;&#160;&#160;&#160;&#160;</text><text class="terminal-2208014391-r5" x="378.2" y="288.4" textLength="622.2" clip-path="url(#terminal-2208014391-line-11)">Instala&#160;y&#160;activa&#160;ufw&#160;o&#160;firewalld.&#160;&#160;&#160;&#160;&#160;&#160;&#160;&#160;&#160;&#160;&#160;&#160;&#160;&#160;&#160;&#160;&#160;&#160;</text><text class="terminal-2208014391-r1" x="1110.2" y="288.4" textLength="12.2" clip-path="url(#terminal-2208014391-line-11)">│</text><text class="terminal-2208014391-r2" x="1122.4" y="288.4" textLength="12.2" clip-path="url(#terminal-2208014391-line-11)">
</text><text class="terminal-2208014391-r1" x="0" y="312.8" textLength="12.2" clip-path="url(#terminal-2208014391-line-12)">│</text><text class="terminal-2208014391-r7" x="24.4" y="312.8" textLength="12.2" clip-path="url(#terminal-2208014391-line-12)">●</text><text class="terminal-2208014391-r10" x="48.8" y="312.8" textLength="317.2" clip-path="url(#terminal-2208014391-line-12)">Actualizaciones&#160;pendientes</text><text class="terminal-2208014391-r5" x="378.2" y="312.8" textLength="622.2" clip-path="url(#terminal-2208014391-line-12)">Ejecuta&#160;apt&#160;upgrade.&#160;&#160;&#160;&#160;&#160;&#160;&#160;&#160;&#160;&#160;&#160;&#160;&#160;&#160;&#160;&#160;&#160;&#160;&#160;&#160;&#160;&#160;&#160;&#160;&#160;&#160;&#160;&#160;&#160;&#160;&#160;</text><text class="terminal-2208014391-r1" x="1110.2" y="312.8" textLength="12.2" clip-path="url(#terminal-2208014391-line-12)">│</text><text class="terminal-2208014391-r2" x="1122.4" y="312.8" textLength="12.2" clip-path="url(#terminal-2208014391-line-12)">
</text><text class="terminal-2208014391-r1" x="0" y="337.2" textLength="12.2" clip-path="url(#terminal-2208014391-line-13)">│</text><text class="terminal-2208014391-r7" x="24.4" y="337.2" textLength="12.2" clip-path="url(#terminal-2208014391-line-13)">●</text><text class="terminal-2208014391-r10" x="48.8" y="337.2" textLength="317.2" clip-path="url(#terminal-2208014391-line-13)">Cifrado&#160;de&#160;disco&#160;&#160;&#160;&#160;&#160;&#160;&#160;&#160;&#160;&#160;</text><text class="terminal-2208014391-r5" x="378.2" y="337.2" textLength="622.2" clip-path="url(#terminal-2208014391-line-13)">Considera&#160;LUKS&#160;para&#160;datos&#160;en&#160;reposo.&#160;&#160;&#160;&#160;&#160;&#160;&#160;&#160;&#160;&#160;&#160;&#160;&#160;&#160;&#160;</text><text class="terminal-2208014391-r1" x="1110.2" y="337.2" textLength="12.2" clip-path="url(#terminal-2208014391-line-13)">│</text><text class="terminal-2208014391-r2" x="1122.4" y="337.2" textLength="12.2" clip-path="url(#terminal-2208014391-line-13)">
</text><text class="terminal-2208014391-r1" x="0" y="361.6" textLength="12.2" clip-path="url(#terminal-2208014391-line-14)">│</text><text class="terminal-2208014391-r7" x="24.4" y="361.6" textLength="12.2" clip-path="url(#terminal-2208014391-line-14)">●</text><text class="terminal-2208014391-r10" x="48.8" y="361.6" textLength="317.2" clip-path="url(#terminal-2208014391-line-14)">Puertos&#160;a&#160;la&#160;escucha&#160;&#160;&#160;&#160;&#160;&#160;</text><text class="terminal-2208014391-r5" x="378.2" y="361.6" textLength="622.2" clip-path="url(#terminal-2208014391-line-14)">Limita&#160;binds&#160;a&#160;127.0.0.1&#160;o&#160;protege&#160;con&#160;cortafuegos.</text><text class="terminal-2208014391-r1" x="1110.2" y="361.6" textLength="12.2" clip-path="url(#terminal-2208014391-line-14)">│</text><text class="terminal-2208014391-r2" x="1122.4" y="361.6" textLength="12.2" clip-path="url(#terminal-2208014391-line-14)">
</text><text class="terminal-2208014391-r1" x="0" y="386" textLength="1122.4" clip-path="url(#terminal-2208014391-line-15)">╰──────────────────────────────────────────────────────────────────────────────────────────╯</text><text class="terminal-2208014391-r2" x="1122.4" y="386" textLength="12.2" clip-path="url(#terminal-2208014391-line-15)">
</text>
    </g>
    </g>
</svg>
