<svg xmlns="http://www.w3.org/2000/svg" class="rich-terminal" viewBox="0 0 1141 440.4"><style>@font-face{font-family:&quot;Fira Code&quot;;src:local(&quot;FiraCode-Regular&quot;),url(https://cdnjs.cloudflare.com/ajax/libs/firacode/6.2.0/woff2/FiraCode-Regular.woff2) format(&quot;woff2&quot;),url(https://cdnjs.cloudflare.com/ajax/libs/firacode/6.2.0/woff/FiraCode-Regular.woff) format(&quot;woff&quot;);font-style:normal;font-weight:400}@font-face{font-family:&quot;Fira Code&quot;;src:local(&quot;FiraCode-Bold&quot;),url(https://cdnjs.cloudflare.com/ajax/libs/firacode/6.2.0/woff2/FiraCode-Bold.woff2) format(&quot;woff2&quot;),url(https://cdnjs.cloudflare.com/ajax/libs/firacode/6.2.0/woff/FiraCode-Bold.woff) format(&quot;woff&quot;);font-style:bold;font-weight:700}.terminal-2208014391-matrix{font-family:Fira Code,monospace;font-size:20px;line-height:24.4px;font-variant-east-asian:full-width}.terminal-2208014391-title{font-size:18px;font-weight:700;font-family:arial}.terminal-2208014391-r1{fill:#ff3d94}.terminal-2208014391-r2{fill:#c5c8c6}.terminal-2208014391-r3{fill:#ff3d94;font-weight:700}.terminal-2208014391-r4{fill:#3dffd1}.terminal-2208014391-r5{fill:#6b6b7b}.terminal-2208014391-r6{fill:#0d0d12;font-weight:700}.terminal-2208014391-r7{fill:#ffcc3d}.terminal-2208014391-r8{fill:#3dff94}.terminal-2208014391-r9{fill:#ff3d3d}.terminal-2208014391-r10{fill:#3dffd1;font-weight:700}</style><defs><clipPath id="terminal-2208014391-clip-terminal"><rect width="1121.4" height="389.4" x="0" y="0"/></clipPath><clipPath id="terminal-2208014391-line-0"><rect width="1122.4" height="24.65" x="0" y="1.5"/></clipPath><clipPath id="terminal-2208014391-line-1"><rect width="1122.4" height="24.65" x="0" y="25.9"/></clipPath><clipPath id="terminal-2208014391-line-2"><rect width="1122.4" height="24.65" x="0" y="50.3"/></clipPath><clipPath id="terminal-2208014391-line-3"><rect width="1122.4" height="24.65" x="0" y="74.7"/></clipPath><clipPath id="terminal-2208014391-line-4"><rect width="1122.4" height="24.65" x="0" y="99.1"/></clipPath><clipPath id="terminal-2208014391-line-5"><rect width="1122.4" height="24.65" x="0" y="123.5"/></clipPath><clipPath id="terminal-2208014391-line-6"><rect width="1122.4" height="24.65" x="0" y="147.9"/></clipPath><clipPath id="terminal-2208014391-line-7"><rect width="1122.4" height="24.65" x="0" y="172.3"/></clipPath><clipPath id="terminal-2208014391-line-8"><rect width="1122.4" height="24.65" x="0" y="196.7"/></clipPath><clipPath id="terminal-2208014391-line-9"><rect width="1122.4" height="24.65" x="0" y="221.1"/></clipPath><clipPath id="terminal-2208014391-line-10"><rect width="1122.4" height="24.65" x="0" y="245.5"/></clipPath><clipPath id="terminal-2208014391-line-11"><rect width="1122.4" height="24.65" x="0" y="269.9"/></clipPath><clipPath id="terminal-2208014391-line-12"><rect width="1122.4" height="24.65" x="0" y="294.3"/></clipPath><clipPath id="terminal-2208014391-line-13"><rect width="1122.4" height="24.65" x="0" y="318.7"/></clipPath><clipPath id="terminal-2208014391-line-14"><rect width="1122.4" height="24.65" x="0" y="343.1"/></clipPath></defs><rect width="1139" height="438.4" x="1" y="1" fill="#292929" stroke="rgba(255,255,255,0.35)" stroke-width="1" rx="8"/><text x="569" y="27" fill="#c5c8c6" class="terminal-2208014391-title" text-anchor="middle">warden</text><g transform="translate(26,22)"><circle cx="0" cy="0" r="7" fill="#ff5f57"/><circle cx="22" cy="0" r="7" fill="#febc2e"/><circle cx="44" cy="0" r="7" fill="#28c840"/></g><g clip-path="url(#terminal-2208014391-clip-terminal)" transform="translate(9, 41)"><rect width="1122.4" height="24.65" x="0" y="1.5" fill="#15090f" shape-rendering="crispEdges"/><rect width="12.2" height="24.65" x="0" y="25.9" fill="#15090f" shape-rendering="crispEdges"/><rect width="12.2" height="24.65" x="12.2" y="25.9" fill="#15090f" shape-rendering="crispEdges"/><rect width="73.2" height="24.65" x="24.4" y="25.9" fill="#15090f" shape-rendering="crispEdges"/><rect width="12.2" height="24.65" x="97.6" y="25.9" fill="#15090f" shape-rendering="crispEdges"/><rect width="610" height="24.65" x="109.8" y="25.9" fill="#15090f" shape-rendering="crispEdges"/><rect width="170.8" height="24.65" x="719.8" y="25.9" fill="#15090f" shape-rendering="crispEdges"/><rect width="207.4" height="24.65" x="890.6" y="25.9" fill="#ffcc3d" shape-rendering="crispEdges"/><rect width="12.2" height="24.65" x="1098" y="25.9" fill="#15090f" shape-rendering="crispEdges"/><rect width="12.2" height="24.65" x="1110.2" y="25.9" fill="#15090f" shape-rendering="crispEdges"/><rect width="1122.4" height="24.65" x="0" y="50.3" fill="#15090f" shape-rendering="crispEdges"/><rect width="24.4" height="24.65" x="0" y="74.7" fill="#15090f" shape-rendering="crispEdges"/><rect width="134.2" height="24.65" x="24.4" y="74.7" fill="#15090f" shape-rendering="crispEdges"/><rect width="366" height="24.65" x="158.6" y="74.7" fill="#15090f" shape-rendering="crispEdges"/><rect width="24.4" height="24.65" x="524.6" y="74.7" fill="#15090f" shape-rendering="crispEdges"/><rect width="24.4" height="24.65" x="561.2" y="74.7" fill="#15090f" shape-rendering="crispEdges"/><rect width="109.8" height="24.65" x="585.6" y="74.7" fill="#15090f" shape-rendering="crispEdges"/><rect width="402.6" height="24.65" x="695.4" y="74.7" fill="#15090f" shape-rendering="crispEdges"/><rect width="24.4" height="24.65" x="1098" y="74.7" fill="#15090f" shape-rendering="crispEdges"/><rect width="12.2" height="24.65" x="0" y="99.1" fill="#15090f" shape-rendering="crispEdges"/><rect width="12.2" height="24.65" x="12.2" y="99.1" fill="#15090f" shape-rendering="crispEdges"/><rect width="36.6" height="24.65" x="24.4" y="99.1" fill="#15090f" shape-rendering="crispEdges"/><rect width="24.4" height="24.65" x="61" y="99.1" fill="#15090f" shape-rendering="crispEdges"/><rect width="170.8" height="24.65" x="85.4" y="99.1" fill="#15090f" shape-rendering="crispEdges"/><rect width="48.8" height="24.65" x="256.2" y="99.1" fill="#15090f" shape-rendering="crispEdges"/><rect width="97.6" height="24.65" x="305" y="99.1" fill="#15090f" shape-rendering="crispEdges"/><rect width="122" height="24.65" x="402.6" y="99.1" fill="#15090f" shape-rendering="crispEdges"/><rect width="12.2" height="24.65" x="524.6" y="99.1" fill="#15090f" shape-rendering="crispEdges"/><rect width="12.2" height="24.65" x="536.8" y="99.1" fill="#15090f" shape-rendering="crispEdges"/><rect width="12.2" height="24.65" x="561.2" y="99.1" fill="#15090f" shape-rendering="crispEdges"/><rect width="12.2" height="24.65" x="573.4" y="99.1" fill="#15090f" shape-rendering="crispEdges"/><rect width="85.4" height="24.65" x="585.6" y="99.1" fill="#15090f" shape-rendering="crispEdges"/><rect width="12.2" height="24.65" x="671" y="99.1" fill="#15090f" shape-rendering="crispEdges"/><rect width="24.4" height="24.65" x="683.2" y="99.1" fill="#15090f" shape-rendering="crispEdges"/><rect width="170.8" height="24.65" x="707.6" y="99.1" fill="#15090f" shape-rendering="crispEdges"/><rect width="85.4" height="24.65" x="878.4" y="99.1" fill="#15090f" shape-rendering="crispEdges"/><rect width="134.2" height="24.65" x="963.8" y="99.1" fill="#15090f" shape-rendering="crispEdges"/><rect width="12.2" height="24.65" x="1098" y="99.1" fill="#15090f" shape-rendering="crispEdges"/><rect width="12.2" height="24.65" x="1110.2" y="99.1" fill="#15090f" shape-rendering="crispEdges"/><rect width="12.2" height="24.65" x="0" y="123.5" fill="#15090f" shape-rendering="crispEdges"/><rect width="12.2" height="24.65" x="12.2" y="123.5" fill="#15090f" shape-rendering="crispEdges"/><rect width="73.2" height="24.65" x="24.4" y="123.5" fill="#15090f" shape-rendering="crispEdges"/><rect width="109.8" height="24.65" x="97.6" y="123.5" fill="#15090f" shape-rendering="crispEdges"/><rect width="109.8" height="24.65" x="207.4" y="123.5" fill="#15090f" shape-rendering="crispEdges"/><rect width="85.4" height="24.65" x="317.2" y="123.5" fill="#15090f" shape-rendering="crispEdges"/><rect width="122" height="24.65" x="402.6" y="123.5" fill="#15090f" shape-rendering="crispEdges"/><rect width="12.2" height="24.65" x="524.6" y="123.5" fill="#15090f" shape-rendering="crispEdges"/><rect width="12.2" height="24.65" x="536.8" y="123.5" fill="#15090f" shape-rendering="crispEdges"/><rect width="12.2" height="24.65" x="561.2" y="123.5" fill="#15090f" shape-rendering="crispEdges"/><rect width="12.2" height="24.65" x="573.4" y="123.5" fill="#15090f" shape-rendering="crispEdges"/><rect width="85.4" height="24.65" x="585.6" y="123.5" fill="#15090f" shape-rendering="crispEdges"/><rect width="12.2" height="24.65" x="671" y="123.5" fill="#15090f" shape-rendering="crispEdges"/><rect width="48.8" height="24.65" x="683.2" y="123.5" fill="#15090f" shape-rendering="crispEdges"/><rect width="146.4" height="24.65" x="732" y="123.5" fill="#15090f" shape-rendering="crispEdges"/><rect width="85.4" height="24.65" x="878.4" y="123.5" fill="#15090f" shape-rendering="crispEdges"/><rect width="134.2" height="24.65" x="963.8" y="123.5" fill="#15090f" shape-rendering="crispEdges"/><rect width="12.2" height="24.65" x="1098" y="123.5" fill="#15090f" shape-rendering="crispEdges"/><rect width="12.2" height="24.65" x="1110.2" y="123.5" fill="#15090f" shape-rendering="crispEdges"/><rect width="12.2" height="24.65" x="0" y="147.9" fill="#15090f" shape-rendering="crispEdges"/><rect width="12.2" height="24.65" x="12.2" y="147.9" fill="#15090f" shape-rendering="crispEdges"/><rect width="500.2" height="24.65" x="24.4" y="147.9" fill="#15090f" shape-rendering="crispEdges"/><rect width="12.2" height="24.65" x="524.6" y="147.9" fill="#15090f" shape-rendering="crispEdges"/><rect width="12.2" height="24.65" x="536.8" y="147.9" fill="#15090f" shape-rendering="crispEdges"/><rect width="12.2" height="24.65" x="561.2" y="147.9" fill="#15090f" shape-rendering="crispEdges"/><rect width="12.2" height="24.65" x="573.4" y="147.9" fill="#15090f" shape-rendering="crispEdges"/><rect width="85.4" height="24.65" x="585.6" y="147.9" fill="#15090f" shape-rendering="crispEdges"/><rect width="12.2" height="24.65" x="671" y="147.9" fill="#15090f" shape-rendering="crispEdges"/><rect width="195.2" height="24.65" x="683.2" y="147.9" fill="#15090f" shape-rendering="crispEdges"/><rect width="85.4" height="24.65" x="878.4" y="147.9" fill="#15090f" shape-rendering="crispEdges"/><rect width="134.2" height="24.65" x="963.8" y="147.9" fill="#15090f" shape-rendering="crispEdges"/><rect width="12.2" height="24.65" x="1098" y="147.9" fill="#15090f" shape-rendering="crispEdges"/><rect width="12.2" height="24.65" x="1110.2" y="147.9" fill="#15090f" shape-rendering="crispEdges"/><rect width="549" height="24.65" x="0" y="172.3" fill="#15090f" shape-rendering="crispEdges"/><rect width="12.2" height="24.65" x="561.2" y="172.3" fill="#15090f" shape-rendering="crispEdges"/><rect width="12.2" height="24.65" x="573.4" y="172.3" fill="#15090f" shape-rendering="crispEdges"/><rect width="85.4" height="24.65" x="585.6" y="172.3" fill="#15090f" shape-rendering="crispEdges"/><rect width="12.2" height="24.65" x="671" y="172.3" fill="#15090f" shape-rendering="crispEdges"/><rect width="195.2" height="24.65" x="683.2" y="172.3" fill="#15090f" shape-rendering="crispEdges"/><rect width="85.4" height="24.65" x="878.4" y="172.3" fill="#15090f" shape-rendering="crispEdges"/><rect width="134.2" height="24.65" x="963.8" y="172.3" fill="#15090f" shape-rendering="crispEdges"/><rect width="12.2" height="24.65" x="1098" y="172.3" fill="#15090f" shape-rendering="crispEdges"/><rect width="12.2" height="24.65" x="1110.2" y="172.3" fill="#15090f" shape-rendering="crispEdges"/><rect width="12.2" height="24.65" x="561.2" y="196.7" fill="#15090f" shape-rendering="crispEdges"/><rect width="12.2" height="24.65" x="573.4" y="196.7" fill="#15090f" shape-rendering="crispEdges"/><rect width="85.4" height="24.65" x="585.6" y="196.7" fill="#15090f" shape-rendering="crispEdges"/><rect width="12.2" height="24.65" x="671" y="196.7" fill="#15090f" shape-rendering="crispEdges"/><rect width="280.6" height="24.65" x="683.2" y="196.7" fill="#15090f" shape-rendering="crispEdges"/><rect width="134.2" height="24.65" x="963.8" y="196.7" fill="#15090f" shape-rendering="crispEdges"/><rect width="12.2" height="24.65" x="1098" y="196.7" fill="#15090f" shape-rendering="crispEdges"/><rect width="12.2" height="24.65" x="1110.2" y="196.7" fill="#15090f" shape-rendering="crispEdges"/><rect width="561.2" height="24.65" x="561.2" y="221.1" fill="#15090f" shape-rendering="crispEdges"/><rect width="24.4" height="24.65" x="0" y="245.5" fill="#15090f" shape-rendering="crispEdges"/><rect width="207.4" height="24.65" x="24.4" y="245.5" fill="#15090f" shape-rendering="crispEdges"/><rect width="866.2" height="24.65" x="231.8" y="245.5" fill="#15090f" shape-rendering="crispEdges"/><rect width="24.4" height="24.65" x="1098" y="245.5" fill="#15090f" shape-rendering="crispEdges"/><rect width="12.2" height="24.65" x="0" y="269.9" fill="#15090f" shape-rendering="crispEdges"/><rect width="12.2" height="24.65" x="12.2" y="269.9" fill="#15090f" shape-rendering="crispEdges"/><rect width="12.2" height="24.65" x="24.4" y="269.9" fill="#15090f" shape-rendering="crispEdges"/><rect width="12.2" height="24.65" x="36.6" y="269.9" fill="#15090f" shape-rendering="crispEdges"/><rect width="317.2" height="24.65" x="48.8" y="269.9" fill="#15090f" shape-rendering="crispEdges"/><rect width="12.2" height="24.65" x="366" y="269.9" fill="#15090f" shape-rendering="crispEdges"/><rect width="622.2" height="24.65" x="378.2" y="269.9" fill="#15090f" shape-rendering="crispEdges"/><rect width="97.6" height="24.65" x="1000.4" y="269.9" fill="#15090f" shape-rendering="crispEdges"/><rect width="12.2" height="24.65" x="1098" y="269.9" fill="#15090f" shape-rendering="crispEdges"/><rect width="12.2" height="24.65" x="1110.2" y="269.9" fill="#15090f" shape-rendering="crispEdges"/><rect width="12.2" height="24.65" x="0" y="294.3" fill="#15090f" shape-rendering="crispEdges"/><rect width="12.2" height="24.65" x="12.2" y="294.3" fill="#15090f" shape-rendering="crispEdges"/><rect width="12.2" height="24.65" x="24.4" y="294.3" fill="#15090f" shape-rendering="crispEdges"/><rect width="12.2" height="24.65" x="36.6" y="294.3" fill="#15090f" shape-rendering="crispEdges"/><rect width="317.2" height="24.65" x="48.8" y="294.3" fill="#15090f" shape-rendering="crispEdges"/><rect width="12.2" height="24.65" x="366" y="294.3" fill="#15090f" shape-rendering="crispEdges"/><rect width="622.2" height="24.65" x="378.2" y="294.3" fill="#15090f" shape-rendering="crispEdges"/><rect width="97.6" height="24.65" x="1000.4" y="294.3" fill="#15090f" shape-rendering="crispEdges"/><rect width="12.2" height="24.65" x="1098" y="294.3" fill="#15090f" shape-rendering="crispEdges"/><rect width="12.2" height="24.65" x="1110.2" y="294.3" fill="#15090f" shape-rendering="crispEdges"/><rect width="12.2" height="24.65" x="0" y="318.7" fill="#15090f" shape-rendering="crispEdges"/><rect width="12.2" height="24.65" x="12.2" y="318.7" fill="#15090f" shape-rendering="crispEdges"/><rect width="12.2" height="24.65" x="24.4" y="318.7" fill="#15090f" shape-rendering="crispEdges"/><rect width="12.2" height="24.65" x="36.6" y="318.7" fill="#15090f" shape-rendering="crispEdges"/><rect width="317.2" height="24.65" x="48.8" y="318.7" fill="#15090f" shape-rendering="crispEdges"/><rect width="12.2" height="24.65" x="366" y="318.7" fill="#15090f" shape-rendering="crispEdges"/><rect width="622.2" height="24.65" x="378.2" y="318.7" fill="#15090f" shape-rendering="crispEdges"/><rect width="97.6" height="24.65" x="1000.4" y="318.7" fill="#15090f" shape-rendering="crispEdges"/><rect width="12.2" height="24.65" x="1098" y="318.7" fill="#15090f" shape-rendering="crispEdges"/><rect width="12.2" height="24.65" x="1110.2" y="318.7" fill="#15090f" shape-rendering="crispEdges"/><rect width="12.2" height="24.65" x="0" y="343.1" fill="#15090f" shape-rendering="crispEdges"/><rect width="12.2" height="24.65" x="12.2" y="343.1" fill="#15090f" shape-rendering="crispEdges"/><rect width="12.2" height="24.65" x="24.4" y="343.1" fill="#15090f" shape-rendering="crispEdges"/><rect width="12.2" height="24.65" x="36.6" y="343.1" fill="#15090f" shape-rendering="crispEdges"/><rect width="317.2" height="24.65" x="48.8" y="343.1" fill="#15090f" shape-rendering="crispEdges"/><rect width="12.2" height="24.65" x="366" y="343.1" fill="#15090f" shape-rendering="crispEdges"/><rect width="622.2" height="24.65" x="378.2" y="343.1" fill="#15090f" shape-rendering="crispEdges"/><rect width="97.6" height="24.65" x="1000.4" y="343.1" fill="#15090f" shape-rendering="crispEdges"/><rect width="12.2" height="24.65" x="1098" y="343.1" fill="#15090f" shape-rendering="crispEdges"/><rect width="12.2" height="24.65" x="1110.2" y="343.1" fill="#15090f" shape-rendering="crispEdges"/><rect width="1122.4" height="24.65" x="0" y="367.5" fill="#15090f" shape-rendering="crispEdges"/><g class="terminal-2208014391-matrix"><text x="0" y="20" class="terminal-2208014391-r1" clip-path="url(#terminal-2208014391-line-0)" textLength="1122.4">╭──────────────────────────────────────────────────────────────────────────────────────────╮</text><text x="0" y="44.4" class="terminal-2208014391-r1" clip-path="url(#terminal-2208014391-line-1)" textLength="12.2">│</text><text x="24.4" y="44.4" class="terminal-2208014391-r3" clip-path="url(#terminal-2208014391-line-1)" textLength="73.2">WARDEN</text><text x="97.6" y="44.4" class="terminal-2208014391-r4" clip-path="url(#terminal-2208014391-line-1)" textLength="12.2">_</text><text x="109.8" y="44.4" class="terminal-2208014391-r5" clip-path="url(#terminal-2208014391-line-1)" textLength="610">DESKTOP-L186KPC · Ubuntu 24.04.4 LTS · up 3d 46s</text><text x="890.6" y="44.4" class="terminal-2208014391-r6" clip-path="url(#terminal-2208014391-line-1)" textLength="207.4">SIN PRIVILEGIOS</text><text x="1110.2" y="44.4" class="terminal-2208014391-r1" clip-path="url(#terminal-2208014391-line-1)" textLength="12.2">│</text><text x="0" y="68.8" class="terminal-2208014391-r1" clip-path="url(#terminal-2208014391-line-2)" textLength="1122.4">╰──────────────────────────────────────────────────────────────────────────────────────────╯</text><text x="0" y="93.2" class="terminal-2208014391-r1" clip-path="url(#terminal-2208014391-line-3)" textLength="24.4">╭─</text><text x="24.4" y="93.2" class="terminal-2208014391-r3" clip-path="url(#terminal-2208014391-line-3)" textLength="134.2">Hardening</text><text x="158.6" y="93.2" class="terminal-2208014391-r1" clip-path="url(#terminal-2208014391-line-3)" textLength="366">──────────────────────────────</text><text x="524.6" y="93.2" class="terminal-2208014391-r1" clip-path="url(#terminal-2208014391-line-3)" textLength="24.4">─╮</text><text x="561.2" y="93.2" class="terminal-2208014391-r1" clip-path="url(#terminal-2208014391-line-3)" textLength="24.4">╭─</text><text x="585.6" y="93.2" class="terminal-2208014391-r3" clip-path="url(#terminal-2208014391-line-3)" textLength="109.8">Vitales</text><text x="695.4" y="93.2" class="terminal-2208014391-r1" clip-path="url(#terminal-2208014391-line-3)" textLength="402.6">─────────────────────────────────</text><text x="1098" y="93.2" class="terminal-2208014391-r1" clip-path="url(#terminal-2208014391-line-3)" textLength="24.4">─╮</text><text x="0" y="117.6" class="terminal-2208014391-r1" clip-path="url(#terminal-2208014391-line-4)" textLength="12.2">│</text><text x="24.4" y="117.6" class="terminal-2208014391-r2" clip-path="url(#terminal-2208014391-line-4)" textLength="36.6">C</text><text x="85.4" y="117.6" class="terminal-2208014391-r7" clip-path="url(#terminal-2208014391-line-4)" textLength="170.8">██████████████</text><text x="256.2" y="117.6" class="terminal-2208014391-r5" clip-path="url(#terminal-2208014391-line-4)" textLength="48.8">░░░░</text><text x="305" y="117.6" class="terminal-2208014391-r7" clip-path="url(#terminal-2208014391-line-4)" textLength="97.6">75/100</text><text x="536.8" y="117.6" class="terminal-2208014391-r1" clip-path="url(#terminal-2208014391-line-4)" textLength="12.2">│</text><text x="561.2" y="117.6" class="terminal-2208014391-r1" clip-path="url(#terminal-2208014391-line-4)" textLength="12.2">│</text><text x="585.6" y="117.6" class="terminal-2208014391-r5" clip-path="url(#terminal-2208014391-line-4)" textLength="85.4">cpu</text><text x="683.2" y="117.6" class="terminal-2208014391-r8" clip-path="url(#terminal-2208014391-line-4)" textLength="24.4">██</text><text x="707.6" y="117.6" class="terminal-2208014391-r5" clip-path="url(#terminal-2208014391-line-4)" textLength="170.8">░░░░░░░░░░░░░░</text><text x="878.4" y="117.6" class="terminal-2208014391-r8" clip-path="url(#terminal-2208014391-line-4)" textLength="85.4">10.8%</text><text x="1110.2" y="117.6" class="terminal-2208014391-r1" clip-path="url(#terminal-2208014391-line-4)" textLength="12.2">│</text><text x="0" y="142" class="terminal-2208014391-r1" clip-path="url(#terminal-2208014391-line-5)" textLength="12.2">│</text><text x="24.4" y="142" class="terminal-2208014391-r8" clip-path="url(#terminal-2208014391-line-5)" textLength="73.2">● 2 ok</text><text x="97.6" y="142" class="terminal-2208014391-r7" clip-path="url(#terminal-2208014391-line-5)" textLength="109.8">● 4 warn</text><text x="207.4" y="142" class="terminal-2208014391-r9" clip-path="url(#terminal-2208014391-line-5)" textLength="109.8">● 0 fail</text><text x="317.2" y="142" class="terminal-2208014391-r5" clip-path="url(#terminal-2208014391-line-5)" textLength="85.4">○ 2 na</text><text x="536.8" y="142" class="terminal-2208014391-r1" clip-path="url(#terminal-2208014391-line-5)" textLength="12.2">│</text><text x="561.2" y="142" class="terminal-2208014391-r1" clip-path="url(#terminal-2208014391-line-5)" textLength="12.2">│</text><text x="585.6" y="142" class="terminal-2208014391-r5" clip-path="url(#terminal-2208014391-line-5)" textLength="85.4">ram</text><text x="683.2" y="142" class="terminal-2208014391-r8" clip-path="url(#terminal-2208014391-line-5)" textLength="48.8">████</text><text x="732" y="142" class="terminal-2208014391-r5" clip-path="url(#terminal-2208014391-line-5)" textLength="146.4">░░░░░░░░░░░░</text><text x="878.4" y="142" class="terminal-2208014391-r8" clip-path="url(#terminal-2208014391-line-5)" textLength="85.4">25.3%</text><text x="1110.2" y="142" class="terminal-2208014391-r1" clip-path="url(#terminal-2208014391-line-5)" textLength="12.2">│</text><text x="0" y="166.4" class="terminal-2208014391-r1" clip-path="url(#terminal-2208014391-line-6)" textLength="12.2">│</text><text x="24.4" y="166.4" class="terminal-2208014391-r5" clip-path="url(#terminal-2208014391-line-6)" textLength="500.2">cobertura parcial — sin root</text><text x="536.8" y="166.4" class="terminal-2208014391-r1" clip-path="url(#terminal-2208014391-line-6)" textLength="12.2">│</text><text x="561.2" y="166.4" class="terminal-2208014391-r1" clip-path="url(#terminal-2208014391-line-6)" textLength="12.2">│</text><text x="585.6" y="166.4" class="terminal-2208014391-r5" clip-path="url(#terminal-2208014391-line-6)" textLength="85.4">swap</text><text x="683.2" y="166.4" class="terminal-2208014391-r5" clip-path="url(#terminal-2208014391-line-6)" textLength="195.2">░░░░░░░░░░░░░░░░</text><text x="878.4" y="166.4" class="terminal-2208014391-r8" clip-path="url(#terminal-2208014391-line-6)" textLength="85.4">0.0%</text><text x="1110.2" y="166.4" class="terminal-2208014391-r1" clip-path="url(#terminal-2208014391-line-6)" textLength="12.2">│</text><text x="0" y="190.8" class="terminal-2208014391-r1" clip-path="url(#terminal-2208014391-line-7)" textLength="549">╰───────────────────────────────────────────╯</text><text x="561.2" y="190.8" class="terminal-2208014391-r1" clip-path="url(#terminal-2208014391-line-7)" textLength="12.2">│</text><text x="585.6" y="190.8" class="terminal-2208014391-r5" clip-path="url(#terminal-2208014391-line-7)" textLength="85.4">disco /</text><text x="683.2" y="190.8" class="terminal-2208014391-r5" clip-path="url(#terminal-2208014391-line-7)" textLength="195.2">░░░░░░░░░░░░░░░░</text><text x="878.4" y="190.8" class="terminal-2208014391-r8" clip-path="url(#terminal-2208014391-line-7)" textLength="85.4">1.6%</text><text x="1110.2" y="190.8" class="terminal-2208014391-r1" clip-path="url(#terminal-2208014391-line-7)" textLength="12.2">│</text><text x="561.2" y="215.2" class="terminal-2208014391-r1" clip-path="url(#terminal-2208014391-line-8)" textLength="12.2">│</text><text x="585.6" y="215.2" class="terminal-2208014391-r5" clip-path="url(#terminal-2208014391-line-8)" textLength="85.4">load</text><text x="683.2" y="215.2" class="terminal-2208014391-r10" clip-path="url(#terminal-2208014391-line-8)" textLength="280.6">2.05 1.05 0.46</text><text x="1110.2" y="215.2" class="terminal-2208014391-r1" clip-path="url(#terminal-2208014391-line-8)" textLength="12.2">│</text><text x="561.2" y="239.6" class="terminal-2208014391-r1" clip-path="url(#terminal-2208014391-line-9)" textLength="561.2">╰────────────────────────────────────────────╯</text><text x="0" y="264" class="terminal-2208014391-r1" clip-path="url(#terminal-2208014391-line-10)" textLength="24.4">╭─</text><text x="24.4" y="264" class="terminal-2208014391-r3" clip-path="url(#terminal-2208014391-line-10)" textLength="207.4">Incidencias (4)</text><text x="231.8" y="264" class="terminal-2208014391-r1" clip-path="url(#terminal-2208014391-line-10)" textLength="866.2">───────────────────────────────────────────────────────────────────────</text><text x="1098" y="264" class="terminal-2208014391-r1" clip-path="url(#terminal-2208014391-line-10)" textLength="24.4">─╮</text><text x="0" y="288.4" class="terminal-2208014391-r1" clip-path="url(#terminal-2208014391-line-11)" textLength="12.2">│</text><text x="24.4" y="288.4" class="terminal-2208014391-r7" clip-path="url(#terminal-2208014391-line-11)" textLength="12.2">●</text><text x="48.8" y="288.4" class="terminal-2208014391-r10" clip-path="url(#terminal-2208014391-line-11)" textLength="317.2">Cortafuegos</text><text x="378.2" y="288.4" class="terminal-2208014391-r5" clip-path="url(#terminal-2208014391-line-11)" textLength="622.2">Instala y activa ufw o firewalld.</text><text x="1110.2" y="288.4" class="terminal-2208014391-r1" clip-path="url(#terminal-2208014391-line-11)" textLength="12.2">│</text><text x="0" y="312.8" class="terminal-2208014391-r1" clip-path="url(#terminal-2208014391-line-12)" textLength="12.2">│</text><text x="24.4" y="312.8" class="terminal-2208014391-r7" clip-path="url(#terminal-2208014391-line-12)" textLength="12.2">●</text><text x="48.8" y="312.8" class="terminal-2208014391-r10" clip-path="url(#terminal-2208014391-line-12)" textLength="317.2">Actualizaciones pendientes</text><text x="378.2" y="312.8" class="terminal-2208014391-r5" clip-path="url(#terminal-2208014391-line-12)" textLength="622.2">Ejecuta apt upgrade.</text><text x="1110.2" y="312.8" class="terminal-2208014391-r1" clip-path="url(#terminal-2208014391-line-12)" textLength="12.2">│</text><text x="0" y="337.2" class="terminal-2208014391-r1" clip-path="url(#terminal-2208014391-line-13)" textLength="12.2">│</text><text x="24.4" y="337.2" class="terminal-2208014391-r7" clip-path="url(#terminal-2208014391-line-13)" textLength="12.2">●</text><text x="48.8" y="337.2" class="terminal-2208014391-r10" clip-path="url(#terminal-2208014391-line-13)" textLength="317.2">Cifrado de disco</text><text x="378.2" y="337.2" class="terminal-2208014391-r5" clip-path="url(#terminal-2208014391-line-13)" textLength="622.2">Considera LUKS para datos en reposo.</text><text x="1110.2" y="337.2" class="terminal-2208014391-r1" clip-path="url(#terminal-2208014391-line-13)" textLength="12.2">│</text><text x="0" y="361.6" class="terminal-2208014391-r1" clip-path="url(#terminal-2208014391-line-14)" textLength="12.2">│</text><text x="24.4" y="361.6" class="terminal-2208014391-r7" clip-path="url(#terminal-2208014391-line-14)" textLength="12.2">●</text><text x="48.8" y="361.6" class="terminal-2208014391-r10" clip-path="url(#terminal-2208014391-line-14)" textLength="317.2">Puertos a la escucha</text><text x="378.2" y="361.6" class="terminal-2208014391-r5" clip-path="url(#terminal-2208014391-line-14)" textLength="622.2">Limita binds a 127.0.0.1 o protege con cortafuegos.</text><text x="1110.2" y="361.6" class="terminal-2208014391-r1" clip-path="url(#terminal-2208014391-line-14)" textLength="12.2">│</text><text x="0" y="386" class="terminal-2208014391-r1" clip-path="url(#terminal-2208014391-line-15)" textLength="1122.4">╰──────────────────────────────────────────────────────────────────────────────────────────╯</text></g></g></svg>