<svg xmlns="http://www.w3.org/2000/svg" class="rich-terminal" viewBox="0 0 1141 464.8"><style>@font-face{font-family:&quot;Fira Code&quot;;src:local(&quot;FiraCode-Regular&quot;),url(https://cdnjs.cloudflare.com/ajax/libs/firacode/6.2.0/woff2/FiraCode-Regular.woff2) format(&quot;woff2&quot;),url(https://cdnjs.cloudflare.com/ajax/libs/firacode/6.2.0/woff/FiraCode-Regular.woff) format(&quot;woff&quot;);font-style:normal;font-weight:400}@font-face{font-family:&quot;Fira Code&quot;;src:local(&quot;FiraCode-Bold&quot;),url(https://cdnjs.cloudflare.com/ajax/libs/firacode/6.2.0/woff2/FiraCode-Bold.woff2) format(&quot;woff2&quot;),url(https://cdnjs.cloudflare.com/ajax/libs/firacode/6.2.0/woff/FiraCode-Bold.woff) format(&quot;woff&quot;);font-style:bold;font-weight:700}.terminal-2452642550-matrix{font-family:Fira Code,monospace;font-size:20px;line-height:24.4px;font-variant-east-asian:full-width}.terminal-2452642550-title{font-size:18px;font-weight:700;font-family:arial}.terminal-2452642550-r1{fill:#ff3d94}.terminal-2452642550-r2{fill:#ff3d94;font-weight:700}.terminal-2452642550-r4{fill:#6b6b7b}.terminal-2452642550-r5{fill:#3dffd1;font-weight:700}.terminal-2452642550-r6{fill:#3dff94}.terminal-2452642550-r7{fill:#3dffd1}.terminal-2452642550-r8{fill:#ff3d3d}.terminal-2452642550-r9{fill:#ffcc3d}</style><defs><clipPath id="terminal-2452642550-clip-terminal"><rect width="1121.4" height="413.8" x="0" y="0"/></clipPath><clipPath id="terminal-2452642550-line-0"><rect width="1122.4" height="24.65" x="0" y="1.5"/></clipPath><clipPath id="terminal-2452642550-line-1"><rect width="1122.4" height="24.65" x="0" y="25.9"/></clipPath><clipPath id="terminal-2452642550-line-2"><rect width="1122.4" height="24.65" x="0" y="50.3"/></clipPath><clipPath id="terminal-2452642550-line-3"><rect width="1122.4" height="24.65" x="0" y="74.7"/></clipPath><clipPath id="terminal-2452642550-line-4"><rect width="1122.4" height="24.65" x="0" y="99.1"/></clipPath><clipPath id="terminal-2452642550-line-5"><rect width="1122.4" height="24.65" x="0" y="123.5"/></clipPath><clipPath id="terminal-2452642550-line-6"><rect width="1122.4" height="24.65" x="0" y="147.9"/></clipPath><clipPath id="terminal-2452642550-line-7"><rect width="1122.4" height="24.65" x="0" y="172.3"/></clipPath><clipPath id="terminal-2452642550-line-8"><rect width="1122.4" height="24.65" x="0" y="196.7"/></clipPath><clipPath id="terminal-2452642550-line-9"><rect width="1122.4" height="24.65" x="0" y="221.1"/></clipPath><clipPath id="terminal-2452642550-line-10"><rect width="1122.4" height="24.65" x="0" y="245.5"/></clipPath><clipPath id="terminal-2452642550-line-11"><rect width="1122.4" height="24.65" x="0" y="269.9"/></clipPath><clipPath id="terminal-2452642550-line-12"><rect width="1122.4" height="24.65" x="0" y="294.3"/></clipPath><clipPath id="terminal-2452642550-line-13"><rect width="1122.4" height="24.65" x="0" y="318.7"/></clipPath><clipPath id="terminal-2452642550-line-14"><rect width="1122.4" height="24.65" x="0" y="343.1"/></clipPath><clipPath id="terminal-2452642550-line-15"><rect width="1122.4" height="24.65" x="0" y="367.5"/></clipPath></defs><rect width="1139" height="462.8" x="1" y="1" fill="#292929" stroke="rgba(255,255,255,0.35)" stroke-width="1" rx="8"/><text x="569" y="27" fill="#c5c8c6" class="terminal-2452642550-title" text-anchor="middle">warden history</text><g transform="translate(26,22)"><circle cx="0" cy="0" r="7" fill="#ff5f57"/><circle cx="22" cy="0" r="7" fill="#febc2e"/><circle cx="44" cy="0" r="7" fill="#28c840"/></g><g clip-path="url(#terminal-2452642550-clip-terminal)" transform="translate(9, 41)"><rect width="24.4" height="24.65" x="0" y="1.5" fill="#15090f" shape-rendering="crispEdges"/><rect width="195.2" height="24.65" x="24.4" y="1.5" fill="#15090f" shape-rendering="crispEdges"/><rect width="878.4" height="24.65" x="219.6" y="1.5" fill="#15090f" shape-rendering="crispEdges"/><rect width="24.4" height="24.65" x="1098" y="1.5" fill="#15090f" shape-rendering="crispEdges"/><rect width="12.2" height="24.65" x="0" y="25.9" fill="#15090f" shape-rendering="crispEdges"/><rect width="12.2" height="24.65" x="12.2" y="25.9" fill="#15090f" shape-rendering="crispEdges"/><rect width="61" height="24.65" x="24.4" y="25.9" fill="#15090f" shape-rendering="crispEdges"/><rect width="12.2" height="24.65" x="85.4" y="25.9" fill="#15090f" shape-rendering="crispEdges"/><rect width="134.2" height="24.65" x="97.6" y="25.9" fill="#15090f" shape-rendering="crispEdges"/><rect width="12.2" height="24.65" x="231.8" y="25.9" fill="#15090f" shape-rendering="crispEdges"/><rect width="24.4" height="24.65" x="244" y="25.9" fill="#15090f" shape-rendering="crispEdges"/><rect width="12.2" height="24.65" x="268.4" y="25.9" fill="#15090f" shape-rendering="crispEdges"/><rect width="36.6" height="24.65" x="280.6" y="25.9" fill="#15090f" shape-rendering="crispEdges"/><rect width="780.8" height="24.65" x="317.2" y="25.9" fill="#15090f" shape-rendering="crispEdges"/><rect width="12.2" height="24.65" x="1098" y="25.9" fill="#15090f" shape-rendering="crispEdges"/><rect width="12.2" height="24.65" x="1110.2" y="25.9" fill="#15090f" shape-rendering="crispEdges"/><rect width="12.2" height="24.65" x="0" y="50.3" fill="#15090f" shape-rendering="crispEdges"/><rect width="12.2" height="24.65" x="12.2" y="50.3" fill="#15090f" shape-rendering="crispEdges"/><rect width="61" height="24.65" x="24.4" y="50.3" fill="#15090f" shape-rendering="crispEdges"/><rect width="12.2" height="24.65" x="85.4" y="50.3" fill="#15090f" shape-rendering="crispEdges"/><rect width="134.2" height="24.65" x="97.6" y="50.3" fill="#15090f" shape-rendering="crispEdges"/><rect width="12.2" height="24.65" x="231.8" y="50.3" fill="#15090f" shape-rendering="crispEdges"/><rect width="24.4" height="24.65" x="244" y="50.3" fill="#15090f" shape-rendering="crispEdges"/><rect width="12.2" height="24.65" x="268.4" y="50.3" fill="#15090f" shape-rendering="crispEdges"/><rect width="36.6" height="24.65" x="280.6" y="50.3" fill="#15090f" shape-rendering="crispEdges"/><rect width="780.8" height="24.65" x="317.2" y="50.3" fill="#15090f" shape-rendering="crispEdges"/><rect width="12.2" height="24.65" x="1098" y="50.3" fill="#15090f" shape-rendering="crispEdges"/><rect width="12.2" height="24.65" x="1110.2" y="50.3" fill="#15090f" shape-rendering="crispEdges"/><rect width="12.2" height="24.65" x="0" y="74.7" fill="#15090f" shape-rendering="crispEdges"/><rect width="12.2" height="24.65" x="12.2" y="74.7" fill="#15090f" shape-rendering="crispEdges"/><rect width="61" height="24.65" x="24.4" y="74.7" fill="#15090f" shape-rendering="crispEdges"/><rect width="12.2" height="24.65" x="85.4" y="74.7" fill="#15090f" shape-rendering="crispEdges"/><rect width="134.2" height="24.65" x="97.6" y="74.7" fill="#15090f" shape-rendering="crispEdges"/><rect width="12.2" height="24.65" x="231.8" y="74.7" fill="#15090f" shape-rendering="crispEdges"/><rect width="24.4" height="24.65" x="244" y="74.7" fill="#15090f" shape-rendering="crispEdges"/><rect width="12.2" height="24.65" x="268.4" y="74.7" fill="#15090f" shape-rendering="crispEdges"/><rect width="36.6" height="24.65" x="280.6" y="74.7" fill="#15090f" shape-rendering="crispEdges"/><rect width="780.8" height="24.65" x="317.2" y="74.7" fill="#15090f" shape-rendering="crispEdges"/><rect width="12.2" height="24.65" x="1098" y="74.7" fill="#15090f" shape-rendering="crispEdges"/><rect width="12.2" height="24.65" x="1110.2" y="74.7" fill="#15090f" shape-rendering="crispEdges"/><rect width="12.2" height="24.65" x="0" y="99.1" fill="#15090f" shape-rendering="crispEdges"/><rect width="12.2" height="24.65" x="12.2" y="99.1" fill="#15090f" shape-rendering="crispEdges"/><rect width="61" height="24.65" x="24.4" y="99.1" fill="#15090f" shape-rendering="crispEdges"/><rect width="12.2" height="24.65" x="85.4" y="99.1" fill="#15090f" shape-rendering="crispEdges"/><rect width="134.2" height="24.65" x="97.6" y="99.1" fill="#15090f" shape-rendering="crispEdges"/><rect width="12.2" height="24.65" x="231.8" y="99.1" fill="#15090f" shape-rendering="crispEdges"/><rect width="24.4" height="24.65" x="244" y="99.1" fill="#15090f" shape-rendering="crispEdges"/><rect width="12.2" height="24.65" x="268.4" y="99.1" fill="#15090f" shape-rendering="crispEdges"/><rect width="36.6" height="24.65" x="280.6" y="99.1" fill="#15090f" shape-rendering="crispEdges"/><rect width="780.8" height="24.65" x="317.2" y="99.1" fill="#15090f" shape-rendering="crispEdges"/><rect width="12.2" height="24.65" x="1098" y="99.1" fill="#15090f" shape-rendering="crispEdges"/><rect width="12.2" height="24.65" x="1110.2" y="99.1" fill="#15090f" shape-rendering="crispEdges"/><rect width="12.2" height="24.65" x="0" y="123.5" fill="#15090f" shape-rendering="crispEdges"/><rect width="12.2" height="24.65" x="12.2" y="123.5" fill="#15090f" shape-rendering="crispEdges"/><rect width="0" height="24.65" x="24.4" y="123.5" fill="#15090f" shape-rendering="crispEdges"/><rect width="1073.6" height="24.65" x="24.4" y="123.5" fill="#15090f" shape-rendering="crispEdges"/><rect width="12.2" height="24.65" x="1098" y="123.5" fill="#15090f" shape-rendering="crispEdges"/><rect width="12.2" height="24.65" x="1110.2" y="123.5" fill="#15090f" shape-rendering="crispEdges"/><rect width="12.2" height="24.65" x="0" y="147.9" fill="#15090f" shape-rendering="crispEdges"/><rect width="12.2" height="24.65" x="12.2" y="147.9" fill="#15090f" shape-rendering="crispEdges"/><rect width="256.2" height="24.65" x="24.4" y="147.9" fill="#15090f" shape-rendering="crispEdges"/><rect width="12.2" height="24.65" x="280.6" y="147.9" fill="#15090f" shape-rendering="crispEdges"/><rect width="12.2" height="24.65" x="292.8" y="147.9" fill="#15090f" shape-rendering="crispEdges"/><rect width="134.2" height="24.65" x="305" y="147.9" fill="#15090f" shape-rendering="crispEdges"/><rect width="12.2" height="24.65" x="439.2" y="147.9" fill="#15090f" shape-rendering="crispEdges"/><rect width="12.2" height="24.65" x="451.4" y="147.9" fill="#15090f" shape-rendering="crispEdges"/><rect width="134.2" height="24.65" x="463.6" y="147.9" fill="#15090f" shape-rendering="crispEdges"/><rect width="12.2" height="24.65" x="597.8" y="147.9" fill="#15090f" shape-rendering="crispEdges"/><rect width="12.2" height="24.65" x="610" y="147.9" fill="#15090f" shape-rendering="crispEdges"/><rect width="97.6" height="24.65" x="622.2" y="147.9" fill="#15090f" shape-rendering="crispEdges"/><rect width="12.2" height="24.65" x="719.8" y="147.9" fill="#15090f" shape-rendering="crispEdges"/><rect width="12.2" height="24.65" x="732" y="147.9" fill="#15090f" shape-rendering="crispEdges"/><rect width="85.4" height="24.65" x="744.2" y="147.9" fill="#15090f" shape-rendering="crispEdges"/><rect width="12.2" height="24.65" x="829.6" y="147.9" fill="#15090f" shape-rendering="crispEdges"/><rect width="12.2" height="24.65" x="841.8" y="147.9" fill="#15090f" shape-rendering="crispEdges"/><rect width="109.8" height="24.65" x="854" y="147.9" fill="#15090f" shape-rendering="crispEdges"/><rect width="12.2" height="24.65" x="963.8" y="147.9" fill="#15090f" shape-rendering="crispEdges"/><rect width="12.2" height="24.65" x="976" y="147.9" fill="#15090f" shape-rendering="crispEdges"/><rect width="109.8" height="24.65" x="988.2" y="147.9" fill="#15090f" shape-rendering="crispEdges"/><rect width="12.2" height="24.65" x="1098" y="147.9" fill="#15090f" shape-rendering="crispEdges"/><rect width="12.2" height="24.65" x="1110.2" y="147.9" fill="#15090f" shape-rendering="crispEdges"/><rect width="12.2" height="24.65" x="0" y="172.3" fill="#15090f" shape-rendering="crispEdges"/><rect width="12.2" height="24.65" x="12.2" y="172.3" fill="#15090f" shape-rendering="crispEdges"/><rect width="256.2" height="24.65" x="24.4" y="172.3" fill="#15090f" shape-rendering="crispEdges"/><rect width="12.2" height="24.65" x="280.6" y="172.3" fill="#15090f" shape-rendering="crispEdges"/><rect width="12.2" height="24.65" x="292.8" y="172.3" fill="#15090f" shape-rendering="crispEdges"/><rect width="134.2" height="24.65" x="305" y="172.3" fill="#15090f" shape-rendering="crispEdges"/><rect width="12.2" height="24.65" x="439.2" y="172.3" fill="#15090f" shape-rendering="crispEdges"/><rect width="12.2" height="24.65" x="451.4" y="172.3" fill="#15090f" shape-rendering="crispEdges"/><rect width="134.2" height="24.65" x="463.6" y="172.3" fill="#15090f" shape-rendering="crispEdges"/><rect width="12.2" height="24.65" x="597.8" y="172.3" fill="#15090f" shape-rendering="crispEdges"/><rect width="12.2" height="24.65" x="610" y="172.3" fill="#15090f" shape-rendering="crispEdges"/><rect width="97.6" height="24.65" x="622.2" y="172.3" fill="#15090f" shape-rendering="crispEdges"/><rect width="12.2" height="24.65" x="719.8" y="172.3" fill="#15090f" shape-rendering="crispEdges"/><rect width="12.2" height="24.65" x="732" y="172.3" fill="#15090f" shape-rendering="crispEdges"/><rect width="85.4" height="24.65" x="744.2" y="172.3" fill="#15090f" shape-rendering="crispEdges"/><rect width="12.2" height="24.65" x="829.6" y="172.3" fill="#15090f" shape-rendering="crispEdges"/><rect width="12.2" height="24.65" x="841.8" y="172.3" fill="#15090f" shape-rendering="crispEdges"/><rect width="109.8" height="24.65" x="854" y="172.3" fill="#15090f" shape-rendering="crispEdges"/><rect width="12.2" height="24.65" x="963.8" y="172.3" fill="#15090f" shape-rendering="crispEdges"/><rect width="12.2" height="24.65" x="976" y="172.3" fill="#15090f" shape-rendering="crispEdges"/><rect width="109.8" height="24.65" x="988.2" y="172.3" fill="#15090f" shape-rendering="crispEdges"/><rect width="12.2" height="24.65" x="1098" y="172.3" fill="#15090f" shape-rendering="crispEdges"/><rect width="12.2" height="24.65" x="1110.2" y="172.3" fill="#15090f" shape-rendering="crispEdges"/><rect width="12.2" height="24.65" x="0" y="196.7" fill="#15090f" shape-rendering="crispEdges"/><rect width="12.2" height="24.65" x="12.2" y="196.7" fill="#15090f" shape-rendering="crispEdges"/><rect width="256.2" height="24.65" x="24.4" y="196.7" fill="#15090f" shape-rendering="crispEdges"/><rect width="12.2" height="24.65" x="280.6" y="196.7" fill="#15090f" shape-rendering="crispEdges"/><rect width="12.2" height="24.65" x="292.8" y="196.7" fill="#15090f" shape-rendering="crispEdges"/><rect width="134.2" height="24.65" x="305" y="196.7" fill="#15090f" shape-rendering="crispEdges"/><rect width="12.2" height="24.65" x="439.2" y="196.7" fill="#15090f" shape-rendering="crispEdges"/><rect width="12.2" height="24.65" x="451.4" y="196.7" fill="#15090f" shape-rendering="crispEdges"/><rect width="134.2" height="24.65" x="463.6" y="196.7" fill="#15090f" shape-rendering="crispEdges"/><rect width="12.2" height="24.65" x="597.8" y="196.7" fill="#15090f" shape-rendering="crispEdges"/><rect width="12.2" height="24.65" x="610" y="196.7" fill="#15090f" shape-rendering="crispEdges"/><rect width="97.6" height="24.65" x="622.2" y="196.7" fill="#15090f" shape-rendering="crispEdges"/><rect width="12.2" height="24.65" x="719.8" y="196.7" fill="#15090f" shape-rendering="crispEdges"/><rect width="12.2" height="24.65" x="732" y="196.7" fill="#15090f" shape-rendering="crispEdges"/><rect width="85.4" height="24.65" x="744.2" y="196.7" fill="#15090f" shape-rendering="crispEdges"/><rect width="12.2" height="24.65" x="829.6" y="196.7" fill="#15090f" shape-rendering="crispEdges"/><rect width="12.2" height="24.65" x="841.8" y="196.7" fill="#15090f" shape-rendering="crispEdges"/><rect width="109.8" height="24.65" x="854" y="196.7" fill="#15090f" shape-rendering="crispEdges"/><rect width="12.2" height="24.65" x="963.8" y="196.7" fill="#15090f" shape-rendering="crispEdges"/><rect width="12.2" height="24.65" x="976" y="196.7" fill="#15090f" shape-rendering="crispEdges"/><rect width="109.8" height="24.65" x="988.2" y="196.7" fill="#15090f" shape-rendering="crispEdges"/><rect width="12.2" height="24.65" x="1098" y="196.7" fill="#15090f" shape-rendering="crispEdges"/><rect width="12.2" height="24.65" x="1110.2" y="196.7" fill="#15090f" shape-rendering="crispEdges"/><rect width="12.2" height="24.65" x="0" y="221.1" fill="#15090f" shape-rendering="crispEdges"/><rect width="12.2" height="24.65" x="12.2" y="221.1" fill="#15090f" shape-rendering="crispEdges"/><rect width="256.2" height="24.65" x="24.4" y="221.1" fill="#15090f" shape-rendering="crispEdges"/><rect width="12.2" height="24.65" x="280.6" y="221.1" fill="#15090f" shape-rendering="crispEdges"/><rect width="12.2" height="24.65" x="292.8" y="221.1" fill="#15090f" shape-rendering="crispEdges"/><rect width="134.2" height="24.65" x="305" y="221.1" fill="#15090f" shape-rendering="crispEdges"/><rect width="12.2" height="24.65" x="439.2" y="221.1" fill="#15090f" shape-rendering="crispEdges"/><rect width="12.2" height="24.65" x="451.4" y="221.1" fill="#15090f" shape-rendering="crispEdges"/><rect width="134.2" height="24.65" x="463.6" y="221.1" fill="#15090f" shape-rendering="crispEdges"/><rect width="12.2" height="24.65" x="597.8" y="221.1" fill="#15090f" shape-rendering="crispEdges"/><rect width="12.2" height="24.65" x="610" y="221.1" fill="#15090f" shape-rendering="crispEdges"/><rect width="97.6" height="24.65" x="622.2" y="221.1" fill="#15090f" shape-rendering="crispEdges"/><rect width="12.2" height="24.65" x="719.8" y="221.1" fill="#15090f" shape-rendering="crispEdges"/><rect width="12.2" height="24.65" x="732" y="221.1" fill="#15090f" shape-rendering="crispEdges"/><rect width="85.4" height="24.65" x="744.2" y="221.1" fill="#15090f" shape-rendering="crispEdges"/><rect width="12.2" height="24.65" x="829.6" y="221.1" fill="#15090f" shape-rendering="crispEdges"/><rect width="12.2" height="24.65" x="841.8" y="221.1" fill="#15090f" shape-rendering="crispEdges"/><rect width="109.8" height="24.65" x="854" y="221.1" fill="#15090f" shape-rendering="crispEdges"/><rect width="12.2" height="24.65" x="963.8" y="221.1" fill="#15090f" shape-rendering="crispEdges"/><rect width="12.2" height="24.65" x="976" y="221.1" fill="#15090f" shape-rendering="crispEdges"/><rect width="109.8" height="24.65" x="988.2" y="221.1" fill="#15090f" shape-rendering="crispEdges"/><rect width="12.2" height="24.65" x="1098" y="221.1" fill="#15090f" shape-rendering="crispEdges"/><rect width="12.2" height="24.65" x="1110.2" y="221.1" fill="#15090f" shape-rendering="crispEdges"/><rect width="12.2" height="24.65" x="0" y="245.5" fill="#15090f" shape-rendering="crispEdges"/><rect width="12.2" height="24.65" x="12.2" y="245.5" fill="#15090f" shape-rendering="crispEdges"/><rect width="256.2" height="24.65" x="24.4" y="245.5" fill="#15090f" shape-rendering="crispEdges"/><rect width="12.2" height="24.65" x="280.6" y="245.5" fill="#15090f" shape-rendering="crispEdges"/><rect width="12.2" height="24.65" x="292.8" y="245.5" fill="#15090f" shape-rendering="crispEdges"/><rect width="134.2" height="24.65" x="305" y="245.5" fill="#15090f" shape-rendering="crispEdges"/><rect width="12.2" height="24.65" x="439.2" y="245.5" fill="#15090f" shape-rendering="crispEdges"/><rect width="12.2" height="24.65" x="451.4" y="245.5" fill="#15090f" shape-rendering="crispEdges"/><rect width="134.2" height="24.65" x="463.6" y="245.5" fill="#15090f" shape-rendering="crispEdges"/><rect width="12.2" height="24.65" x="597.8" y="245.5" fill="#15090f" shape-rendering="crispEdges"/><rect width="12.2" height="24.65" x="610" y="245.5" fill="#15090f" shape-rendering="crispEdges"/><rect width="97.6" height="24.65" x="622.2" y="245.5" fill="#15090f" shape-rendering="crispEdges"/><rect width="12.2" height="24.65" x="719.8" y="245.5" fill="#15090f" shape-rendering="crispEdges"/><rect width="12.2" height="24.65" x="732" y="245.5" fill="#15090f" shape-rendering="crispEdges"/><rect width="85.4" height="24.65" x="744.2" y="245.5" fill="#15090f" shape-rendering="crispEdges"/><rect width="12.2" height="24.65" x="829.6" y="245.5" fill="#15090f" shape-rendering="crispEdges"/><rect width="12.2" height="24.65" x="841.8" y="245.5" fill="#15090f" shape-rendering="crispEdges"/><rect width="109.8" height="24.65" x="854" y="245.5" fill="#15090f" shape-rendering="crispEdges"/><rect width="12.2" height="24.65" x="963.8" y="245.5" fill="#15090f" shape-rendering="crispEdges"/><rect width="12.2" height="24.65" x="976" y="245.5" fill="#15090f" shape-rendering="crispEdges"/><rect width="109.8" height="24.65" x="988.2" y="245.5" fill="#15090f" shape-rendering="crispEdges"/><rect width="12.2" height="24.65" x="1098" y="245.5" fill="#15090f" shape-rendering="crispEdges"/><rect width="12.2" height="24.65" x="1110.2" y="245.5" fill="#15090f" shape-rendering="crispEdges"/><rect width="12.2" height="24.65" x="0" y="269.9" fill="#15090f" shape-rendering="crispEdges"/><rect width="12.2" height="24.65" x="12.2" y="269.9" fill="#15090f" shape-rendering="crispEdges"/><rect width="256.2" height="24.65" x="24.4" y="269.9" fill="#15090f" shape-rendering="crispEdges"/><rect width="12.2" height="24.65" x="280.6" y="269.9" fill="#15090f" shape-rendering="crispEdges"/><rect width="12.2" height="24.65" x="292.8" y="269.9" fill="#15090f" shape-rendering="crispEdges"/><rect width="134.2" height="24.65" x="305" y="269.9" fill="#15090f" shape-rendering="crispEdges"/><rect width="12.2" height="24.65" x="439.2" y="269.9" fill="#15090f" shape-rendering="crispEdges"/><rect width="12.2" height="24.65" x="451.4" y="269.9" fill="#15090f" shape-rendering="crispEdges"/><rect width="134.2" height="24.65" x="463.6" y="269.9" fill="#15090f" shape-rendering="crispEdges"/><rect width="12.2" height="24.65" x="597.8" y="269.9" fill="#15090f" shape-rendering="crispEdges"/><rect width="12.2" height="24.65" x="610" y="269.9" fill="#15090f" shape-rendering="crispEdges"/><rect width="97.6" height="24.65" x="622.2" y="269.9" fill="#15090f" shape-rendering="crispEdges"/><rect width="12.2" height="24.65" x="719.8" y="269.9" fill="#15090f" shape-rendering="crispEdges"/><rect width="12.2" height="24.65" x="732" y="269.9" fill="#15090f" shape-rendering="crispEdges"/><rect width="85.4" height="24.65" x="744.2" y="269.9" fill="#15090f" shape-rendering="crispEdges"/><rect width="12.2" height="24.65" x="829.6" y="269.9" fill="#15090f" shape-rendering="crispEdges"/><rect width="12.2" height="24.65" x="841.8" y="269.9" fill="#15090f" shape-rendering="crispEdges"/><rect width="109.8" height="24.65" x="854" y="269.9" fill="#15090f" shape-rendering="crispEdges"/><rect width="12.2" height="24.65" x="963.8" y="269.9" fill="#15090f" shape-rendering="crispEdges"/><rect width="12.2" height="24.65" x="976" y="269.9" fill="#15090f" shape-rendering="crispEdges"/><rect width="109.8" height="24.65" x="988.2" y="269.9" fill="#15090f" shape-rendering="crispEdges"/><rect width="12.2" height="24.65" x="1098" y="269.9" fill="#15090f" shape-rendering="crispEdges"/><rect width="12.2" height="24.65" x="1110.2" y="269.9" fill="#15090f" shape-rendering="crispEdges"/><rect width="12.2" height="24.65" x="0" y="294.3" fill="#15090f" shape-rendering="crispEdges"/><rect width="12.2" height="24.65" x="12.2" y="294.3" fill="#15090f" shape-rendering="crispEdges"/><rect width="256.2" height="24.65" x="24.4" y="294.3" fill="#15090f" shape-rendering="crispEdges"/><rect width="12.2" height="24.65" x="280.6" y="294.3" fill="#15090f" shape-rendering="crispEdges"/><rect width="12.2" height="24.65" x="292.8" y="294.3" fill="#15090f" shape-rendering="crispEdges"/><rect width="134.2" height="24.65" x="305" y="294.3" fill="#15090f" shape-rendering="crispEdges"/><rect width="12.2" height="24.65" x="439.2" y="294.3" fill="#15090f" shape-rendering="crispEdges"/><rect width="12.2" height="24.65" x="451.4" y="294.3" fill="#15090f" shape-rendering="crispEdges"/><rect width="134.2" height="24.65" x="463.6" y="294.3" fill="#15090f" shape-rendering="crispEdges"/><rect width="12.2" height="24.65" x="597.8" y="294.3" fill="#15090f" shape-rendering="crispEdges"/><rect width="12.2" height="24.65" x="610" y="294.3" fill="#15090f" shape-rendering="crispEdges"/><rect width="97.6" height="24.65" x="622.2" y="294.3" fill="#15090f" shape-rendering="crispEdges"/><rect width="12.2" height="24.65" x="719.8" y="294.3" fill="#15090f" shape-rendering="crispEdges"/><rect width="12.2" height="24.65" x="732" y="294.3" fill="#15090f" shape-rendering="crispEdges"/><rect width="85.4" height="24.65" x="744.2" y="294.3" fill="#15090f" shape-rendering="crispEdges"/><rect width="12.2" height="24.65" x="829.6" y="294.3" fill="#15090f" shape-rendering="crispEdges"/><rect width="12.2" height="24.65" x="841.8" y="294.3" fill="#15090f" shape-rendering="crispEdges"/><rect width="109.8" height="24.65" x="854" y="294.3" fill="#15090f" shape-rendering="crispEdges"/><rect width="12.2" height="24.65" x="963.8" y="294.3" fill="#15090f" shape-rendering="crispEdges"/><rect width="12.2" height="24.65" x="976" y="294.3" fill="#15090f" shape-rendering="crispEdges"/><rect width="109.8" height="24.65" x="988.2" y="294.3" fill="#15090f" shape-rendering="crispEdges"/><rect width="12.2" height="24.65" x="1098" y="294.3" fill="#15090f" shape-rendering="crispEdges"/><rect width="12.2" height="24.65" x="1110.2" y="294.3" fill="#15090f" shape-rendering="crispEdges"/><rect width="12.2" height="24.65" x="0" y="318.7" fill="#15090f" shape-rendering="crispEdges"/><rect width="12.2" height="24.65" x="12.2" y="318.7" fill="#15090f" shape-rendering="crispEdges"/><rect width="256.2" height="24.65" x="24.4" y="318.7" fill="#15090f" shape-rendering="crispEdges"/><rect width="12.2" height="24.65" x="280.6" y="318.7" fill="#15090f" shape-rendering="crispEdges"/><rect width="12.2" height="24.65" x="292.8" y="318.7" fill="#15090f" shape-rendering="crispEdges"/><rect width="134.2" height="24.65" x="305" y="318.7" fill="#15090f" shape-rendering="crispEdges"/><rect width="12.2" height="24.65" x="439.2" y="318.7" fill="#15090f" shape-rendering="crispEdges"/><rect width="12.2" height="24.65" x="451.4" y="318.7" fill="#15090f" shape-rendering="crispEdges"/><rect width="134.2" height="24.65" x="463.6" y="318.7" fill="#15090f" shape-rendering="crispEdges"/><rect width="12.2" height="24.65" x="597.8" y="318.7" fill="#15090f" shape-rendering="crispEdges"/><rect width="12.2" height="24.65" x="610" y="318.7" fill="#15090f" shape-rendering="crispEdges"/><rect width="97.6" height="24.65" x="622.2" y="318.7" fill="#15090f" shape-rendering="crispEdges"/><rect width="12.2" height="24.65" x="719.8" y="318.7" fill="#15090f" shape-rendering="crispEdges"/><rect width="12.2" height="24.65" x="732" y="318.7" fill="#15090f" shape-rendering="crispEdges"/><rect width="85.4" height="24.65" x="744.2" y="318.7" fill="#15090f" shape-rendering="crispEdges"/><rect width="12.2" height="24.65" x="829.6" y="318.7" fill="#15090f" shape-rendering="crispEdges"/><rect width="12.2" height="24.65" x="841.8" y="318.7" fill="#15090f" shape-rendering="crispEdges"/><rect width="109.8" height="24.65" x="854" y="318.7" fill="#15090f" shape-rendering="crispEdges"/><rect width="12.2" height="24.65" x="963.8" y="318.7" fill="#15090f" shape-rendering="crispEdges"/><rect width="12.2" height="24.65" x="976" y="318.7" fill="#15090f" shape-rendering="crispEdges"/><rect width="109.8" height="24.65" x="988.2" y="318.7" fill="#15090f" shape-rendering="crispEdges"/><rect width="12.2" height="24.65" x="1098" y="318.7" fill="#15090f" shape-rendering="crispEdges"/><rect width="12.2" height="24.65" x="1110.2" y="318.7" fill="#15090f" shape-rendering="crispEdges"/><rect width="12.2" height="24.65" x="0" y="343.1" fill="#15090f" shape-rendering="crispEdges"/><rect width="12.2" height="24.65" x="12.2" y="343.1" fill="#15090f" shape-rendering="crispEdges"/><rect width="256.2" height="24.65" x="24.4" y="343.1" fill="#15090f" shape-rendering="crispEdges"/><rect width="12.2" height="24.65" x="280.6" y="343.1" fill="#15090f" shape-rendering="crispEdges"/><rect width="12.2" height="24.65" x="292.8" y="343.1" fill="#15090f" shape-rendering="crispEdges"/><rect width="134.2" height="24.65" x="305" y="343.1" fill="#15090f" shape-rendering="crispEdges"/><rect width="12.2" height="24.65" x="439.2" y="343.1" fill="#15090f" shape-rendering="crispEdges"/><rect width="12.2" height="24.65" x="451.4" y="343.1" fill="#15090f" shape-rendering="crispEdges"/><rect width="134.2" height="24.65" x="463.6" y="343.1" fill="#15090f" shape-rendering="crispEdges"/><rect width="12.2" height="24.65" x="597.8" y="343.1" fill="#15090f" shape-rendering="crispEdges"/><rect width="12.2" height="24.65" x="610" y="343.1" fill="#15090f" shape-rendering="crispEdges"/><rect width="97.6" height="24.65" x="622.2" y="343.1" fill="#15090f" shape-rendering="crispEdges"/><rect width="12.2" height="24.65" x="719.8" y="343.1" fill="#15090f" shape-rendering="crispEdges"/><rect width="12.2" height="24.65" x="732" y="343.1" fill="#15090f" shape-rendering="crispEdges"/><rect width="85.4" height="24.65" x="744.2" y="343.1" fill="#15090f" shape-rendering="crispEdges"/><rect width="12.2" height="24.65" x="829.6" y="343.1" fill="#15090f" shape-rendering="crispEdges"/><rect width="12.2" height="24.65" x="841.8" y="343.1" fill="#15090f" shape-rendering="crispEdges"/><rect width="109.8" height="24.65" x="854" y="343.1" fill="#15090f" shape-rendering="crispEdges"/><rect width="12.2" height="24.65" x="963.8" y="343.1" fill="#15090f" shape-rendering="crispEdges"/><rect width="12.2" height="24.65" x="976" y="343.1" fill="#15090f" shape-rendering="crispEdges"/><rect width="109.8" height="24.65" x="988.2" y="343.1" fill="#15090f" shape-rendering="crispEdges"/><rect width="12.2" height="24.65" x="1098" y="343.1" fill="#15090f" shape-rendering="crispEdges"/><rect width="12.2" height="24.65" x="1110.2" y="343.1" fill="#15090f" shape-rendering="crispEdges"/><rect width="12.2" height="24.65" x="0" y="367.5" fill="#15090f" shape-rendering="crispEdges"/><rect width="12.2" height="24.65" x="12.2" y="367.5" fill="#15090f" shape-rendering="crispEdges"/><rect width="488" height="24.65" x="24.4" y="367.5" fill="#15090f" shape-rendering="crispEdges"/><rect width="585.6" height="24.65" x="512.4" y="367.5" fill="#15090f" shape-rendering="crispEdges"/><rect width="12.2" height="24.65" x="1098" y="367.5" fill="#15090f" shape-rendering="crispEdges"/><rect width="12.2" height="24.65" x="1110.2" y="367.5" fill="#15090f" shape-rendering="crispEdges"/><rect width="1122.4" height="24.65" x="0" y="391.9" fill="#15090f" shape-rendering="crispEdges"/><g class="terminal-2452642550-matrix"><text x="0" y="20" class="terminal-2452642550-r1" clip-path="url(#terminal-2452642550-line-0)" textLength="24.4">╭─</text><text x="24.4" y="20" class="terminal-2452642550-r2" clip-path="url(#terminal-2452642550-line-0)" textLength="195.2">Histórico (11)</text><text x="219.6" y="20" class="terminal-2452642550-r1" clip-path="url(#terminal-2452642550-line-0)" textLength="878.4">────────────────────────────────────────────────────────────────────────</text><text x="1098" y="20" class="terminal-2452642550-r1" clip-path="url(#terminal-2452642550-line-0)" textLength="24.4">─╮</text><text x="0" y="44.4" class="terminal-2452642550-r1" clip-path="url(#terminal-2452642550-line-1)" textLength="12.2">│</text><text x="24.4" y="44.4" class="terminal-2452642550-r4" clip-path="url(#terminal-2452642550-line-1)" textLength="61">score</text><text x="97.6" y="44.4" class="terminal-2452642550-r5" clip-path="url(#terminal-2452642550-line-1)" textLength="134.2">▅▅▆▆▆▆▆▇▇▇▇</text><text x="244" y="44.4" class="terminal-2452642550-r5" clip-path="url(#terminal-2452642550-line-1)" textLength="24.4">90</text><text x="280.6" y="44.4" class="terminal-2452642550-r6" clip-path="url(#terminal-2452642550-line-1)" textLength="36.6">↑30</text><text x="1110.2" y="44.4" class="terminal-2452642550-r1" clip-path="url(#terminal-2452642550-line-1)" textLength="12.2">│</text><text x="0" y="68.8" class="terminal-2452642550-r1" clip-path="url(#terminal-2452642550-line-2)" textLength="12.2">│</text><text x="24.4" y="68.8" class="terminal-2452642550-r4" clip-path="url(#terminal-2452642550-line-2)" textLength="61">cpu</text><text x="97.6" y="68.8" class="terminal-2452642550-r7" clip-path="url(#terminal-2452642550-line-2)" textLength="134.2">▄▅▃▅▄▃▄▄▅▄▃</text><text x="244" y="68.8" class="terminal-2452642550-r7" clip-path="url(#terminal-2452642550-line-2)" textLength="24.4">33</text><text x="280.6" y="68.8" class="terminal-2452642550-r6" clip-path="url(#terminal-2452642550-line-2)" textLength="36.6">↓7</text><text x="1110.2" y="68.8" class="terminal-2452642550-r1" clip-path="url(#terminal-2452642550-line-2)" textLength="12.2">│</text><text x="0" y="93.2" class="terminal-2452642550-r1" clip-path="url(#terminal-2452642550-line-3)" textLength="12.2">│</text><text x="24.4" y="93.2" class="terminal-2452642550-r4" clip-path="url(#terminal-2452642550-line-3)" textLength="61">ram</text><text x="97.6" y="93.2" class="terminal-2452642550-r7" clip-path="url(#terminal-2452642550-line-3)" textLength="134.2">▅▅▅▅▅▆▅▆▆▆▆</text><text x="244" y="93.2" class="terminal-2452642550-r7" clip-path="url(#terminal-2452642550-line-3)" textLength="24.4">72</text><text x="280.6" y="93.2" class="terminal-2452642550-r8" clip-path="url(#terminal-2452642550-line-3)" textLength="36.6">↑17</text><text x="1110.2" y="93.2" class="terminal-2452642550-r1" clip-path="url(#terminal-2452642550-line-3)" textLength="12.2">│</text><text x="0" y="117.6" class="terminal-2452642550-r1" clip-path="url(#terminal-2452642550-line-4)" textLength="12.2">│</text><text x="24.4" y="117.6" class="terminal-2452642550-r4" clip-path="url(#terminal-2452642550-line-4)" textLength="61">disco</text><text x="97.6" y="117.6" class="terminal-2452642550-r7" clip-path="url(#terminal-2452642550-line-4)" textLength="134.2">▅▅▅▆▆▆▆▆▆▇▇</text><text x="244" y="117.6" class="terminal-2452642550-r7" clip-path="url(#terminal-2452642550-line-4)" textLength="24.4">84</text><text x="280.6" y="117.6" class="terminal-2452642550-r8" clip-path="url(#terminal-2452642550-line-4)" textLength="36.6">↑23</text><text x="1110.2" y="117.6" class="terminal-2452642550-r1" clip-path="url(#terminal-2452642550-line-4)" textLength="12.2">│</text><text x="0" y="142" class="terminal-2452642550-r1" clip-path="url(#terminal-2452642550-line-5)" textLength="12.2">│</text><text x="1110.2" y="142" class="terminal-2452642550-r1" clip-path="url(#terminal-2452642550-line-5)" textLength="12.2">│</text><text x="0" y="166.4" class="terminal-2452642550-r1" clip-path="url(#terminal-2452642550-line-6)" textLength="12.2">│</text><text x="24.4" y="166.4" class="terminal-2452642550-r2" clip-path="url(#terminal-2452642550-line-6)" textLength="256.2">Fecha</text><text x="305" y="166.4" class="terminal-2452642550-r2" clip-path="url(#terminal-2452642550-line-6)" textLength="134.2">Score</text><text x="463.6" y="166.4" class="terminal-2452642550-r2" clip-path="url(#terminal-2452642550-line-6)" textLength="134.2">Grade</text><text x="622.2" y="166.4" class="terminal-2452642550-r2" clip-path="url(#terminal-2452642550-line-6)" textLength="97.6">cpu</text><text x="744.2" y="166.4" class="terminal-2452642550-r2" clip-path="url(#terminal-2452642550-line-6)" textLength="85.4">ram</text><text x="854" y="166.4" class="terminal-2452642550-r2" clip-path="url(#terminal-2452642550-line-6)" textLength="109.8">swap</text><text x="988.2" y="166.4" class="terminal-2452642550-r2" clip-path="url(#terminal-2452642550-line-6)" textLength="109.8">disco</text><text x="1110.2" y="166.4" class="terminal-2452642550-r1" clip-path="url(#terminal-2452642550-line-6)" textLength="12.2">│</text><text x="0" y="190.8" class="terminal-2452642550-r1" clip-path="url(#terminal-2452642550-line-7)" textLength="12.2">│</text><text x="24.4" y="190.8" class="terminal-2452642550-r4" clip-path="url(#terminal-2452642550-line-7)" textLength="256.2">06-11 09:00</text><text x="305" y="190.8" class="terminal-2452642550-r9" clip-path="url(#terminal-2452642550-line-7)" textLength="134.2">70</text><text x="463.6" y="190.8" class="terminal-2452642550-r9" clip-path="url(#terminal-2452642550-line-7)" textLength="134.2">C</text><text x="622.2" y="190.8" class="terminal-2452642550-r4" clip-path="url(#terminal-2452642550-line-7)" textLength="97.6">62</text><text x="744.2" y="190.8" class="terminal-2452642550-r4" clip-path="url(#terminal-2452642550-line-7)" textLength="85.4">63</text><text x="854" y="190.8" class="terminal-2452642550-r4" clip-path="url(#terminal-2452642550-line-7)" textLength="109.8">0</text><text x="988.2" y="190.8" class="terminal-2452642550-r4" clip-path="url(#terminal-2452642550-line-7)" textLength="109.8">66</text><text x="1110.2" y="190.8" class="terminal-2452642550-r1" clip-path="url(#terminal-2452642550-line-7)" textLength="12.2">│</text><text x="0" y="215.2" class="terminal-2452642550-r1" clip-path="url(#terminal-2452642550-line-8)" textLength="12.2">│</text><text x="24.4" y="215.2" class="terminal-2452642550-r4" clip-path="url(#terminal-2452642550-line-8)" textLength="256.2">06-12 09:00</text><text x="305" y="215.2" class="terminal-2452642550-r9" clip-path="url(#terminal-2452642550-line-8)" textLength="134.2">70</text><text x="463.6" y="215.2" class="terminal-2452642550-r9" clip-path="url(#terminal-2452642550-line-8)" textLength="134.2">C</text><text x="622.2" y="215.2" class="terminal-2452642550-r4" clip-path="url(#terminal-2452642550-line-8)" textLength="97.6">48</text><text x="744.2" y="215.2" class="terminal-2452642550-r4" clip-path="url(#terminal-2452642550-line-8)" textLength="85.4">61</text><text x="854" y="215.2" class="terminal-2452642550-r4" clip-path="url(#terminal-2452642550-line-8)" textLength="109.8">0</text><text x="988.2" y="215.2" class="terminal-2452642550-r4" clip-path="url(#terminal-2452642550-line-8)" textLength="109.8">67</text><text x="1110.2" y="215.2" class="terminal-2452642550-r1" clip-path="url(#terminal-2452642550-line-8)" textLength="12.2">│</text><text x="0" y="239.6" class="terminal-2452642550-r1" clip-path="url(#terminal-2452642550-line-9)" textLength="12.2">│</text><text x="24.4" y="239.6" class="terminal-2452642550-r4" clip-path="url(#terminal-2452642550-line-9)" textLength="256.2">06-13 09:00</text><text x="305" y="239.6" class="terminal-2452642550-r9" clip-path="url(#terminal-2452642550-line-9)" textLength="134.2">75</text><text x="463.6" y="239.6" class="terminal-2452642550-r9" clip-path="url(#terminal-2452642550-line-9)" textLength="134.2">C</text><text x="622.2" y="239.6" class="terminal-2452642550-r4" clip-path="url(#terminal-2452642550-line-9)" textLength="97.6">30</text><text x="744.2" y="239.6" class="terminal-2452642550-r4" clip-path="url(#terminal-2452642550-line-9)" textLength="85.4">66</text><text x="854" y="239.6" class="terminal-2452642550-r4" clip-path="url(#terminal-2452642550-line-9)" textLength="109.8">0</text><text x="988.2" y="239.6" class="terminal-2452642550-r4" clip-path="url(#terminal-2452642550-line-9)" textLength="109.8">70</text><text x="1110.2" y="239.6" class="terminal-2452642550-r1" clip-path="url(#terminal-2452642550-line-9)" textLength="12.2">│</text><text x="0" y="264" class="terminal-2452642550-r1" clip-path="url(#terminal-2452642550-line-10)" textLength="12.2">│</text><text x="24.4" y="264" class="terminal-2452642550-r4" clip-path="url(#terminal-2452642550-line-10)" textLength="256.2">06-14 09:00</text><text x="305" y="264" class="terminal-2452642550-r9" clip-path="url(#terminal-2452642550-line-10)" textLength="134.2">78</text><text x="463.6" y="264" class="terminal-2452642550-r9" clip-path="url(#terminal-2452642550-line-10)" textLength="134.2">C</text><text x="622.2" y="264" class="terminal-2452642550-r4" clip-path="url(#terminal-2452642550-line-10)" textLength="97.6">44</text><text x="744.2" y="264" class="terminal-2452642550-r4" clip-path="url(#terminal-2452642550-line-10)" textLength="85.4">64</text><text x="854" y="264" class="terminal-2452642550-r4" clip-path="url(#terminal-2452642550-line-10)" textLength="109.8">0</text><text x="988.2" y="264" class="terminal-2452642550-r4" clip-path="url(#terminal-2452642550-line-10)" textLength="109.8">72</text><text x="1110.2" y="264" class="terminal-2452642550-r1" clip-path="url(#terminal-2452642550-line-10)" textLength="12.2">│</text><text x="0" y="288.4" class="terminal-2452642550-r1" clip-path="url(#terminal-2452642550-line-11)" textLength="12.2">│</text><text x="24.4" y="288.4" class="terminal-2452642550-r4" clip-path="url(#terminal-2452642550-line-11)" textLength="256.2">06-15 09:00</text><text x="305" y="288.4" class="terminal-2452642550-r6" clip-path="url(#terminal-2452642550-line-11)" textLength="134.2">82</text><text x="463.6" y="288.4" class="terminal-2452642550-r6" clip-path="url(#terminal-2452642550-line-11)" textLength="134.2">B</text><text x="622.2" y="288.4" class="terminal-2452642550-r4" clip-path="url(#terminal-2452642550-line-11)" textLength="97.6">38</text><text x="744.2" y="288.4" class="terminal-2452642550-r4" clip-path="url(#terminal-2452642550-line-11)" textLength="85.4">68</text><text x="854" y="288.4" class="terminal-2452642550-r4" clip-path="url(#terminal-2452642550-line-11)" textLength="109.8">0</text><text x="988.2" y="288.4" class="terminal-2452642550-r4" clip-path="url(#terminal-2452642550-line-11)" textLength="109.8">75</text><text x="1110.2" y="288.4" class="terminal-2452642550-r1" clip-path="url(#terminal-2452642550-line-11)" textLength="12.2">│</text><text x="0" y="312.8" class="terminal-2452642550-r1" clip-path="url(#terminal-2452642550-line-12)" textLength="12.2">│</text><text x="24.4" y="312.8" class="terminal-2452642550-r4" clip-path="url(#terminal-2452642550-line-12)" textLength="256.2">06-16 09:00</text><text x="305" y="312.8" class="terminal-2452642550-r6" clip-path="url(#terminal-2452642550-line-12)" textLength="134.2">85</text><text x="463.6" y="312.8" class="terminal-2452642550-r6" clip-path="url(#terminal-2452642550-line-12)" textLength="134.2">B</text><text x="622.2" y="312.8" class="terminal-2452642550-r4" clip-path="url(#terminal-2452642550-line-12)" textLength="97.6">52</text><text x="744.2" y="312.8" class="terminal-2452642550-r4" clip-path="url(#terminal-2452642550-line-12)" textLength="85.4">70</text><text x="854" y="312.8" class="terminal-2452642550-r4" clip-path="url(#terminal-2452642550-line-12)" textLength="109.8">0</text><text x="988.2" y="312.8" class="terminal-2452642550-r4" clip-path="url(#terminal-2452642550-line-12)" textLength="109.8">78</text><text x="1110.2" y="312.8" class="terminal-2452642550-r1" clip-path="url(#terminal-2452642550-line-12)" textLength="12.2">│</text><text x="0" y="337.2" class="terminal-2452642550-r1" clip-path="url(#terminal-2452642550-line-13)" textLength="12.2">│</text><text x="24.4" y="337.2" class="terminal-2452642550-r4" clip-path="url(#terminal-2452642550-line-13)" textLength="256.2">06-17 09:00</text><text x="305" y="337.2" class="terminal-2452642550-r6" clip-path="url(#terminal-2452642550-line-13)" textLength="134.2">88</text><text x="463.6" y="337.2" class="terminal-2452642550-r6" clip-path="url(#terminal-2452642550-line-13)" textLength="134.2">B</text><text x="622.2" y="337.2" class="terminal-2452642550-r4" clip-path="url(#terminal-2452642550-line-13)" textLength="97.6">41</text><text x="744.2" y="337.2" class="terminal-2452642550-r4" clip-path="url(#terminal-2452642550-line-13)" textLength="85.4">69</text><text x="854" y="337.2" class="terminal-2452642550-r4" clip-path="url(#terminal-2452642550-line-13)" textLength="109.8">0</text><text x="988.2" y="337.2" class="terminal-2452642550-r4" clip-path="url(#terminal-2452642550-line-13)" textLength="109.8">81</text><text x="1110.2" y="337.2" class="terminal-2452642550-r1" clip-path="url(#terminal-2452642550-line-13)" textLength="12.2">│</text><text x="0" y="361.6" class="terminal-2452642550-r1" clip-path="url(#terminal-2452642550-line-14)" textLength="12.2">│</text><text x="24.4" y="361.6" class="terminal-2452642550-r4" clip-path="url(#terminal-2452642550-line-14)" textLength="256.2">06-18 09:00</text><text x="305" y="361.6" class="terminal-2452642550-r6" clip-path="url(#terminal-2452642550-line-14)" textLength="134.2">90</text><text x="463.6" y="361.6" class="terminal-2452642550-r6" clip-path="url(#terminal-2452642550-line-14)" textLength="134.2">A</text><text x="622.2" y="361.6" class="terminal-2452642550-r4" clip-path="url(#terminal-2452642550-line-14)" textLength="97.6">33</text><text x="744.2" y="361.6" class="terminal-2452642550-r4" clip-path="url(#terminal-2452642550-line-14)" textLength="85.4">72</text><text x="854" y="361.6" class="terminal-2452642550-r4" clip-path="url(#terminal-2452642550-line-14)" textLength="109.8">0</text><text x="988.2" y="361.6" class="terminal-2452642550-r4" clip-path="url(#terminal-2452642550-line-14)" textLength="109.8">84</text><text x="1110.2" y="361.6" class="terminal-2452642550-r1" clip-path="url(#terminal-2452642550-line-14)" textLength="12.2">│</text><text x="0" y="386" class="terminal-2452642550-r1" clip-path="url(#terminal-2452642550-line-15)" textLength="12.2">│</text><text x="24.4" y="386" class="terminal-2452642550-r4" clip-path="url(#terminal-2452642550-line-15)" textLength="488">11 registros · 06-08 09:00 → 06-18 09:00</text><text x="1110.2" y="386" class="terminal-2452642550-r1" clip-path="url(#terminal-2452642550-line-15)" textLength="12.2">│</text><text x="0" y="410.4" class="terminal-2452642550-r1" clip-path="url(#terminal-2452642550-line-16)" textLength="1122.4">╰──────────────────────────────────────────────────────────────────────────────────────────╯</text></g></g></svg>