<svg xmlns="http://www.w3.org/2000/svg" class="rich-terminal" viewBox="0 0 1141 269.6"><style>@font-face{font-family:&quot;Fira Code&quot;;src:local(&quot;FiraCode-Regular&quot;),url(https://cdnjs.cloudflare.com/ajax/libs/firacode/6.2.0/woff2/FiraCode-Regular.woff2) format(&quot;woff2&quot;),url(https://cdnjs.cloudflare.com/ajax/libs/firacode/6.2.0/woff/FiraCode-Regular.woff) format(&quot;woff&quot;);font-style:normal;font-weight:400}@font-face{font-family:&quot;Fira Code&quot;;src:local(&quot;FiraCode-Bold&quot;),url(https://cdnjs.cloudflare.com/ajax/libs/firacode/6.2.0/woff2/FiraCode-Bold.woff2) format(&quot;woff2&quot;),url(https://cdnjs.cloudflare.com/ajax/libs/firacode/6.2.0/woff/FiraCode-Bold.woff) format(&quot;woff&quot;);font-style:bold;font-weight:700}.terminal-4196304774-matrix{font-family:Fira Code,monospace;font-size:20px;line-height:24.4px;font-variant-east-asian:full-width}.terminal-4196304774-title{font-size:18px;font-weight:700;font-family:arial}.terminal-4196304774-r1{fill:#ff3d94}.terminal-4196304774-r2{fill:#ff3d94;font-weight:700}.terminal-4196304774-r4{fill:#6b6b7b}.terminal-4196304774-r5{fill:#3dffd1;font-weight:700}</style><defs><clipPath id="terminal-4196304774-clip-terminal"><rect width="1121.4" height="218.6" x="0" y="0"/></clipPath><clipPath id="terminal-4196304774-line-0"><rect width="1122.4" height="24.65" x="0" y="1.5"/></clipPath><clipPath id="terminal-4196304774-line-1"><rect width="1122.4" height="24.65" x="0" y="25.9"/></clipPath><clipPath id="terminal-4196304774-line-2"><rect width="1122.4" height="24.65" x="0" y="50.3"/></clipPath><clipPath id="terminal-4196304774-line-3"><rect width="1122.4" height="24.65" x="0" y="74.7"/></clipPath><clipPath id="terminal-4196304774-line-4"><rect width="1122.4" height="24.65" x="0" y="99.1"/></clipPath><clipPath id="terminal-4196304774-line-5"><rect width="1122.4" height="24.65" x="0" y="123.5"/></clipPath><clipPath id="terminal-4196304774-line-6"><rect width="1122.4" height="24.65" x="0" y="147.9"/></clipPath><clipPath id="terminal-4196304774-line-7"><rect width="1122.4" height="24.65" x="0" y="172.3"/></clipPath></defs><rect width="1139" height="267.6" x="1" y="1" fill="#292929" stroke="rgba(255,255,255,0.35)" stroke-width="1" rx="8"/><text x="569" y="27" fill="#c5c8c6" class="terminal-4196304774-title" text-anchor="middle">warden info</text><g transform="translate(26,22)"><circle cx="0" cy="0" r="7" fill="#ff5f57"/><circle cx="22" cy="0" r="7" fill="#febc2e"/><circle cx="44" cy="0" r="7" fill="#28c840"/></g><g clip-path="url(#terminal-4196304774-clip-terminal)" transform="translate(9, 41)"><rect width="24.4" height="24.65" x="0" y="1.5" fill="#15090f" shape-rendering="crispEdges"/><rect width="305" height="24.65" x="24.4" y="1.5" fill="#15090f" shape-rendering="crispEdges"/><rect width="768.6" height="24.65" x="329.4" y="1.5" fill="#15090f" shape-rendering="crispEdges"/><rect width="24.4" height="24.65" x="1098" y="1.5" fill="#15090f" shape-rendering="crispEdges"/><rect width="12.2" height="24.65" x="0" y="25.9" fill="#15090f" shape-rendering="crispEdges"/><rect width="12.2" height="24.65" x="12.2" y="25.9" fill="#15090f" shape-rendering="crispEdges"/><rect width="146.4" height="24.65" x="24.4" y="25.9" fill="#15090f" shape-rendering="crispEdges"/><rect width="24.4" height="24.65" x="170.8" y="25.9" fill="#15090f" shape-rendering="crispEdges"/><rect width="402.6" height="24.65" x="195.2" y="25.9" fill="#15090f" shape-rendering="crispEdges"/><rect width="500.2" height="24.65" x="597.8" y="25.9" fill="#15090f" shape-rendering="crispEdges"/><rect width="12.2" height="24.65" x="1098" y="25.9" fill="#15090f" shape-rendering="crispEdges"/><rect width="12.2" height="24.65" x="1110.2" y="25.9" fill="#15090f" shape-rendering="crispEdges"/><rect width="12.2" height="24.65" x="0" y="50.3" fill="#15090f" shape-rendering="crispEdges"/><rect width="12.2" height="24.65" x="12.2" y="50.3" fill="#15090f" shape-rendering="crispEdges"/><rect width="146.4" height="24.65" x="24.4" y="50.3" fill="#15090f" shape-rendering="crispEdges"/><rect width="24.4" height="24.65" x="170.8" y="50.3" fill="#15090f" shape-rendering="crispEdges"/><rect width="402.6" height="24.65" x="195.2" y="50.3" fill="#15090f" shape-rendering="crispEdges"/><rect width="500.2" height="24.65" x="597.8" y="50.3" fill="#15090f" shape-rendering="crispEdges"/><rect width="12.2" height="24.65" x="1098" y="50.3" fill="#15090f" shape-rendering="crispEdges"/><rect width="12.2" height="24.65" x="1110.2" y="50.3" fill="#15090f" shape-rendering="crispEdges"/><rect width="12.2" height="24.65" x="0" y="74.7" fill="#15090f" shape-rendering="crispEdges"/><rect width="12.2" height="24.65" x="12.2" y="74.7" fill="#15090f" shape-rendering="crispEdges"/><rect width="146.4" height="24.65" x="24.4" y="74.7" fill="#15090f" shape-rendering="crispEdges"/><rect width="24.4" height="24.65" x="170.8" y="74.7" fill="#15090f" shape-rendering="crispEdges"/><rect width="402.6" height="24.65" x="195.2" y="74.7" fill="#15090f" shape-rendering="crispEdges"/><rect width="500.2" height="24.65" x="597.8" y="74.7" fill="#15090f" shape-rendering="crispEdges"/><rect width="12.2" height="24.65" x="1098" y="74.7" fill="#15090f" shape-rendering="crispEdges"/><rect width="12.2" height="24.65" x="1110.2" y="74.7" fill="#15090f" shape-rendering="crispEdges"/><rect width="12.2" height="24.65" x="0" y="99.1" fill="#15090f" shape-rendering="crispEdges"/><rect width="12.2" height="24.65" x="12.2" y="99.1" fill="#15090f" shape-rendering="crispEdges"/><rect width="146.4" height="24.65" x="24.4" y="99.1" fill="#15090f" shape-rendering="crispEdges"/><rect width="24.4" height="24.65" x="170.8" y="99.1" fill="#15090f" shape-rendering="crispEdges"/><rect width="402.6" height="24.65" x="195.2" y="99.1" fill="#15090f" shape-rendering="crispEdges"/><rect width="500.2" height="24.65" x="597.8" y="99.1" fill="#15090f" shape-rendering="crispEdges"/><rect width="12.2" height="24.65" x="1098" y="99.1" fill="#15090f" shape-rendering="crispEdges"/><rect width="12.2" height="24.65" x="1110.2" y="99.1" fill="#15090f" shape-rendering="crispEdges"/><rect width="12.2" height="24.65" x="0" y="123.5" fill="#15090f" shape-rendering="crispEdges"/><rect width="12.2" height="24.65" x="12.2" y="123.5" fill="#15090f" shape-rendering="crispEdges"/><rect width="146.4" height="24.65" x="24.4" y="123.5" fill="#15090f" shape-rendering="crispEdges"/><rect width="24.4" height="24.65" x="170.8" y="123.5" fill="#15090f" shape-rendering="crispEdges"/><rect width="402.6" height="24.65" x="195.2" y="123.5" fill="#15090f" shape-rendering="crispEdges"/><rect width="500.2" height="24.65" x="597.8" y="123.5" fill="#15090f" shape-rendering="crispEdges"/><rect width="12.2" height="24.65" x="1098" y="123.5" fill="#15090f" shape-rendering="crispEdges"/><rect width="12.2" height="24.65" x="1110.2" y="123.5" fill="#15090f" shape-rendering="crispEdges"/><rect width="12.2" height="24.65" x="0" y="147.9" fill="#15090f" shape-rendering="crispEdges"/><rect width="12.2" height="24.65" x="12.2" y="147.9" fill="#15090f" shape-rendering="crispEdges"/><rect width="146.4" height="24.65" x="24.4" y="147.9" fill="#15090f" shape-rendering="crispEdges"/><rect width="24.4" height="24.65" x="170.8" y="147.9" fill="#15090f" shape-rendering="crispEdges"/><rect width="402.6" height="24.65" x="195.2" y="147.9" fill="#15090f" shape-rendering="crispEdges"/><rect width="500.2" height="24.65" x="597.8" y="147.9" fill="#15090f" shape-rendering="crispEdges"/><rect width="12.2" height="24.65" x="1098" y="147.9" fill="#15090f" shape-rendering="crispEdges"/><rect width="12.2" height="24.65" x="1110.2" y="147.9" fill="#15090f" shape-rendering="crispEdges"/><rect width="12.2" height="24.65" x="0" y="172.3" fill="#15090f" shape-rendering="crispEdges"/><rect width="12.2" height="24.65" x="12.2" y="172.3" fill="#15090f" shape-rendering="crispEdges"/><rect width="146.4" height="24.65" x="24.4" y="172.3" fill="#15090f" shape-rendering="crispEdges"/><rect width="24.4" height="24.65" x="170.8" y="172.3" fill="#15090f" shape-rendering="crispEdges"/><rect width="402.6" height="24.65" x="195.2" y="172.3" fill="#15090f" shape-rendering="crispEdges"/><rect width="500.2" height="24.65" x="597.8" y="172.3" fill="#15090f" shape-rendering="crispEdges"/><rect width="12.2" height="24.65" x="1098" y="172.3" fill="#15090f" shape-rendering="crispEdges"/><rect width="12.2" height="24.65" x="1110.2" y="172.3" fill="#15090f" shape-rendering="crispEdges"/><rect width="1122.4" height="24.65" x="0" y="196.7" fill="#15090f" shape-rendering="crispEdges"/><g class="terminal-4196304774-matrix"><text x="0" y="20" class="terminal-4196304774-r1" clip-path="url(#terminal-4196304774-line-0)" textLength="24.4">╭─</text><text x="24.4" y="20" class="terminal-4196304774-r2" clip-path="url(#terminal-4196304774-line-0)" textLength="305">Información del sistema</text><text x="329.4" y="20" class="terminal-4196304774-r1" clip-path="url(#terminal-4196304774-line-0)" textLength="768.6">───────────────────────────────────────────────────────────────</text><text x="1098" y="20" class="terminal-4196304774-r1" clip-path="url(#terminal-4196304774-line-0)" textLength="24.4">─╮</text><text x="0" y="44.4" class="terminal-4196304774-r1" clip-path="url(#terminal-4196304774-line-1)" textLength="12.2">│</text><text x="24.4" y="44.4" class="terminal-4196304774-r4" clip-path="url(#terminal-4196304774-line-1)" textLength="146.4">SO</text><text x="195.2" y="44.4" class="terminal-4196304774-r5" clip-path="url(#terminal-4196304774-line-1)" textLength="402.6">Linux</text><text x="1110.2" y="44.4" class="terminal-4196304774-r1" clip-path="url(#terminal-4196304774-line-1)" textLength="12.2">│</text><text x="0" y="68.8" class="terminal-4196304774-r1" clip-path="url(#terminal-4196304774-line-2)" textLength="12.2">│</text><text x="24.4" y="68.8" class="terminal-4196304774-r4" clip-path="url(#terminal-4196304774-line-2)" textLength="146.4">Distro</text><text x="195.2" y="68.8" class="terminal-4196304774-r5" clip-path="url(#terminal-4196304774-line-2)" textLength="402.6">Ubuntu 24.04.4 LTS</text><text x="1110.2" y="68.8" class="terminal-4196304774-r1" clip-path="url(#terminal-4196304774-line-2)" textLength="12.2">│</text><text x="0" y="93.2" class="terminal-4196304774-r1" clip-path="url(#terminal-4196304774-line-3)" textLength="12.2">│</text><text x="24.4" y="93.2" class="terminal-4196304774-r4" clip-path="url(#terminal-4196304774-line-3)" textLength="146.4">Kernel</text><text x="195.2" y="93.2" class="terminal-4196304774-r5" clip-path="url(#terminal-4196304774-line-3)" textLength="402.6">6.18.33.1-microsoft-standard-WSL2</text><text x="1110.2" y="93.2" class="terminal-4196304774-r1" clip-path="url(#terminal-4196304774-line-3)" textLength="12.2">│</text><text x="0" y="117.6" class="terminal-4196304774-r1" clip-path="url(#terminal-4196304774-line-4)" textLength="12.2">│</text><text x="24.4" y="117.6" class="terminal-4196304774-r4" clip-path="url(#terminal-4196304774-line-4)" textLength="146.4">Host</text><text x="195.2" y="117.6" class="terminal-4196304774-r5" clip-path="url(#terminal-4196304774-line-4)" textLength="402.6">DESKTOP-L186KPC</text><text x="1110.2" y="117.6" class="terminal-4196304774-r1" clip-path="url(#terminal-4196304774-line-4)" textLength="12.2">│</text><text x="0" y="142" class="terminal-4196304774-r1" clip-path="url(#terminal-4196304774-line-5)" textLength="12.2">│</text><text x="24.4" y="142" class="terminal-4196304774-r4" clip-path="url(#terminal-4196304774-line-5)" textLength="146.4">Arquitectura</text><text x="195.2" y="142" class="terminal-4196304774-r5" clip-path="url(#terminal-4196304774-line-5)" textLength="402.6">x86_64</text><text x="1110.2" y="142" class="terminal-4196304774-r1" clip-path="url(#terminal-4196304774-line-5)" textLength="12.2">│</text><text x="0" y="166.4" class="terminal-4196304774-r1" clip-path="url(#terminal-4196304774-line-6)" textLength="12.2">│</text><text x="24.4" y="166.4" class="terminal-4196304774-r4" clip-path="url(#terminal-4196304774-line-6)" textLength="146.4">Python</text><text x="195.2" y="166.4" class="terminal-4196304774-r5" clip-path="url(#terminal-4196304774-line-6)" textLength="402.6">3.12.3</text><text x="1110.2" y="166.4" class="terminal-4196304774-r1" clip-path="url(#terminal-4196304774-line-6)" textLength="12.2">│</text><text x="0" y="190.8" class="terminal-4196304774-r1" clip-path="url(#terminal-4196304774-line-7)" textLength="12.2">│</text><text x="24.4" y="190.8" class="terminal-4196304774-r4" clip-path="url(#terminal-4196304774-line-7)" textLength="146.4">Uptime</text><text x="195.2" y="190.8" class="terminal-4196304774-r5" clip-path="url(#terminal-4196304774-line-7)" textLength="402.6">2d 21h 59m 19s</text><text x="1110.2" y="190.8" class="terminal-4196304774-r1" clip-path="url(#terminal-4196304774-line-7)" textLength="12.2">│</text><text x="0" y="215.2" class="terminal-4196304774-r1" clip-path="url(#terminal-4196304774-line-8)" textLength="1122.4">╰──────────────────────────────────────────────────────────────────────────────────────────╯</text></g></g></svg>